<svg xmlns="http://www.w3.org/2000/svg" xmlns:xlink="http://www.w3.org/1999/xlink" width="600" zoomAndPan="magnify" viewBox="0 0 450 225" height="300" preserveAspectRatio="xMidYMid meet" version="1.0"><defs><g/><clipPath id="2027952c10"><path d="M 34.675781 168.519531 L 56.425781 168.519531 L 56.425781 190.269531 L 34.675781 190.269531 Z M 34.675781 168.519531 " clip-rule="nonzero"/></clipPath><clipPath id="36016abbdc"><path d="M 131.210938 16.714844 L 444.621094 16.714844 L 444.621094 201.945312 L 131.210938 201.945312 Z M 131.210938 16.714844 " clip-rule="nonzero"/></clipPath><clipPath id="7084883f64"><path d="M 287.914062 16.714844 C 374.453125 16.714844 444.621094 58.171875 444.621094 109.332031 C 444.621094 160.492188 374.453125 201.945312 287.914062 201.945312 C 201.375 201.945312 131.210938 160.492188 131.210938 109.332031 C 131.210938 58.171875 201.375 16.714844 287.914062 16.714844 Z M 287.914062 16.714844 " clip-rule="nonzero"/></clipPath><clipPath id="df9e713627"><path d="M 0.210938 0.714844 L 313.621094 0.714844 L 313.621094 185.945312 L 0.210938 185.945312 Z M 0.210938 0.714844 " clip-rule="nonzero"/></clipPath><clipPath id="aace03724b"><path d="M 156.914062 0.714844 C 243.453125 0.714844 313.621094 42.171875 313.621094 93.332031 C 313.621094 144.492188 243.453125 185.945312 156.914062 185.945312 C 70.375 185.945312 0.210938 144.492188 0.210938 93.332031 C 0.210938 42.171875 70.375 0.714844 156.914062 0.714844 Z M 156.914062 0.714844 " clip-rule="nonzero"/></clipPath><clipPath id="165c373f9c"><rect x="0" width="314" y="0" height="186"/></clipPath><clipPath id="1d15a52363"><path d="M 131.210938 16.714844 L 444.613281 16.714844 L 444.613281 201.941406 L 131.210938 201.941406 Z M 131.210938 16.714844 " clip-rule="nonzero"/></clipPath><clipPath id="8d4cefc1b4"><path d="M 287.914062 16.714844 C 374.449219 16.714844 444.613281 58.171875 444.613281 109.328125 C 444.613281 160.488281 374.449219 201.941406 287.914062 201.941406 C 201.375 201.941406 131.210938 160.488281 131.210938 109.328125 C 131.210938 58.171875 201.375 16.714844 287.914062 16.714844 Z M 287.914062 16.714844 " clip-rule="nonzero"/></clipPath><clipPath id="9eadebf2c3"><path d="M 157.121094 35.65625 L 418.707031 35.65625 L 418.707031 183.238281 L 157.121094 183.238281 Z M 157.121094 35.65625 " clip-rule="nonzero"/></clipPath><clipPath id="7c42d78425"><path d="M 287.914062 35.65625 C 360.144531 35.65625 418.707031 68.632812 418.707031 109.332031 C 418.707031 150.03125 360.144531 183.007812 287.914062 183.007812 C 215.683594 183.007812 157.121094 150.03125 157.121094 109.332031 C 157.121094 68.632812 215.683594 35.65625 287.914062 35.65625 Z M 287.914062 35.65625 " clip-rule="nonzero"/></clipPath><clipPath id="d1d68b78bc"><path d="M 0.121094 0.65625 L 261.707031 0.65625 L 261.707031 148 L 0.121094 148 Z M 0.121094 0.65625 " clip-rule="nonzero"/></clipPath><clipPath id="de4f59ba7b"><path d="M 130.914062 0.65625 C 203.144531 0.65625 261.707031 33.632812 261.707031 74.332031 C 261.707031 115.03125 203.144531 148.007812 130.914062 148.007812 C 58.683594 148.007812 0.121094 115.03125 0.121094 74.332031 C 0.121094 33.632812 58.683594 0.65625 130.914062 0.65625 Z M 130.914062 0.65625 " clip-rule="nonzero"/></clipPath><clipPath id="65bdff1265"><rect x="0" width="262" y="0" height="149"/></clipPath><clipPath id="de12a0bd2f"><path d="M 157.121094 35.65625 L 418.8125 35.65625 L 418.8125 182.65625 L 157.121094 182.65625 Z M 157.121094 35.65625 " clip-rule="nonzero"/></clipPath><clipPath id="6c4e5f22a8"><path d="M 287.910156 35.65625 C 360.136719 35.65625 418.695312 68.632812 418.695312 109.332031 C 418.695312 150.027344 360.136719 183.003906 287.910156 183.003906 C 215.683594 183.003906 157.121094 150.027344 157.121094 109.332031 C 157.121094 68.632812 215.683594 35.65625 287.910156 35.65625 Z M 287.910156 35.65625 " clip-rule="nonzero"/></clipPath><clipPath id="106ea8dc90"><path d="M 373 154 L 393 154 L 393 183 L 373 183 Z M 373 154 " clip-rule="nonzero"/></clipPath><clipPath id="425a2cb8d6"><path d="M 378.324219 154.027344 L 392.507812 180.464844 L 387.878906 182.949219 L 373.699219 156.511719 Z M 378.324219 154.027344 " clip-rule="nonzero"/></clipPath><clipPath id="670e852e79"><path d="M 378.324219 154.027344 L 392.507812 180.464844 L 387.878906 182.949219 L 373.699219 156.511719 Z M 378.324219 154.027344 " clip-rule="nonzero"/></clipPath><clipPath id="8a04f38f07"><path d="M 378.324219 154.027344 L 392.507812 180.464844 L 387.878906 182.949219 L 373.699219 156.511719 Z M 378.324219 154.027344 " clip-rule="nonzero"/></clipPath><clipPath id="5d8dd3afda"><path d="M 394 162 L 414.980469 162 L 414.980469 176 L 394 176 Z M 394 162 " clip-rule="nonzero"/></clipPath><clipPath id="864e3efb87"><path d="M 411 165 L 414.980469 165 L 414.980469 169 L 411 169 Z M 411 165 " clip-rule="nonzero"/></clipPath><clipPath id="c43a375ba7"><path d="M 392.480469 161 L 398 161 L 398 183 L 392.480469 183 Z M 392.480469 161 " clip-rule="nonzero"/></clipPath><clipPath id="93e2a329b9"><path d="M 392.480469 161 L 399 161 L 399 183.125 L 392.480469 183.125 Z M 392.480469 161 " clip-rule="nonzero"/></clipPath></defs><rect x="-45" width="540" fill="#ffffff" y="-22.5" height="270" fill-opacity="1"/><rect x="-45" width="540" fill="#ffffff" y="-22.5" height="270" fill-opacity="1"/><g fill="#000000" fill-opacity="1"><g transform="translate(17.874038, 145.367656)"><g><path d="M 4.734375 -1.953125 C 5.367188 -1.953125 5.859375 -2.066406 6.203125 -2.296875 C 6.546875 -2.535156 6.71875 -2.867188 6.71875 -3.296875 C 6.71875 -3.554688 6.644531 -3.765625 6.5 -3.921875 C 6.363281 -4.085938 6.148438 -4.226562 5.859375 -4.34375 C 5.566406 -4.457031 5.160156 -4.5625 4.640625 -4.65625 C 3.398438 -4.894531 2.414062 -5.285156 1.6875 -5.828125 C 0.957031 -6.367188 0.59375 -7.179688 0.59375 -8.265625 C 0.59375 -8.992188 0.785156 -9.617188 1.171875 -10.140625 C 1.554688 -10.671875 2.097656 -11.078125 2.796875 -11.359375 C 3.492188 -11.640625 4.304688 -11.78125 5.234375 -11.78125 C 6.816406 -11.78125 8.003906 -11.503906 8.796875 -10.953125 C 9.171875 -10.710938 9.359375 -10.394531 9.359375 -10 C 9.359375 -9.757812 9.289062 -9.515625 9.15625 -9.265625 C 9.019531 -9.015625 8.820312 -8.773438 8.5625 -8.546875 C 8.09375 -8.878906 7.570312 -9.128906 7 -9.296875 C 6.425781 -9.472656 5.851562 -9.5625 5.28125 -9.5625 C 4.707031 -9.5625 4.253906 -9.453125 3.921875 -9.234375 C 3.597656 -9.023438 3.4375 -8.75 3.4375 -8.40625 C 3.4375 -8.15625 3.488281 -7.945312 3.59375 -7.78125 C 3.707031 -7.625 3.898438 -7.488281 4.171875 -7.375 C 4.453125 -7.269531 4.851562 -7.164062 5.375 -7.0625 C 6.320312 -6.875 7.113281 -6.632812 7.75 -6.34375 C 8.382812 -6.050781 8.875 -5.664062 9.21875 -5.1875 C 9.5625 -4.71875 9.734375 -4.128906 9.734375 -3.421875 C 9.734375 -2.679688 9.539062 -2.035156 9.15625 -1.484375 C 8.769531 -0.929688 8.210938 -0.503906 7.484375 -0.203125 C 6.753906 0.0976562 5.878906 0.25 4.859375 0.25 C 3.253906 0.25 2.003906 -0.0078125 1.109375 -0.53125 C 0.554688 -0.851562 0.28125 -1.21875 0.28125 -1.625 C 0.28125 -2.070312 0.585938 -2.582031 1.203125 -3.15625 C 1.628906 -2.769531 2.148438 -2.472656 2.765625 -2.265625 C 3.378906 -2.054688 4.035156 -1.953125 4.734375 -1.953125 Z M 4.734375 -1.953125 "/></g></g></g><g fill="#000000" fill-opacity="1"><g transform="translate(28.111579, 145.367656)"><g><path d="M 8.234375 -2.796875 C 8.429688 -2.628906 8.578125 -2.4375 8.671875 -2.21875 C 8.765625 -2 8.8125 -1.773438 8.8125 -1.546875 C 8.8125 -0.984375 8.5 -0.5625 7.875 -0.28125 C 7.5625 -0.125 7.175781 0 6.71875 0.09375 C 6.257812 0.195312 5.765625 0.25 5.234375 0.25 C 4.273438 0.25 3.441406 0.0664062 2.734375 -0.296875 C 2.035156 -0.660156 1.5 -1.179688 1.125 -1.859375 C 0.75 -2.535156 0.5625 -3.328125 0.5625 -4.234375 C 0.5625 -5.203125 0.757812 -6.023438 1.15625 -6.703125 C 1.550781 -7.378906 2.09375 -7.890625 2.78125 -8.234375 C 3.46875 -8.585938 4.253906 -8.765625 5.140625 -8.765625 C 5.867188 -8.765625 6.53125 -8.648438 7.125 -8.421875 C 7.71875 -8.203125 8.1875 -7.878906 8.53125 -7.453125 C 8.882812 -7.023438 9.0625 -6.519531 9.0625 -5.9375 C 9.0625 -5.101562 8.726562 -4.460938 8.0625 -4.015625 C 7.40625 -3.578125 6.410156 -3.359375 5.078125 -3.359375 C 4.492188 -3.359375 3.894531 -3.414062 3.28125 -3.53125 C 3.5625 -2.476562 4.335938 -1.953125 5.609375 -1.953125 C 6.171875 -1.953125 6.664062 -2.035156 7.09375 -2.203125 C 7.519531 -2.367188 7.898438 -2.566406 8.234375 -2.796875 Z M 5.1875 -6.78125 C 4.882812 -6.78125 4.59375 -6.71875 4.3125 -6.59375 C 4.039062 -6.476562 3.804688 -6.289062 3.609375 -6.03125 C 3.410156 -5.769531 3.28125 -5.453125 3.21875 -5.078125 C 3.675781 -4.984375 4.171875 -4.9375 4.703125 -4.9375 C 5.304688 -4.9375 5.753906 -5.003906 6.046875 -5.140625 C 6.335938 -5.285156 6.484375 -5.53125 6.484375 -5.875 C 6.484375 -6.144531 6.363281 -6.363281 6.125 -6.53125 C 5.882812 -6.695312 5.570312 -6.78125 5.1875 -6.78125 Z M 5.1875 -6.78125 "/></g></g></g><g fill="#000000" fill-opacity="1"><g transform="translate(37.933219, 145.367656)"><g><path d="M 6.3125 -8.765625 C 7.019531 -8.765625 7.660156 -8.597656 8.234375 -8.265625 C 8.804688 -7.941406 9.257812 -7.441406 9.59375 -6.765625 C 9.925781 -6.085938 10.09375 -5.253906 10.09375 -4.265625 C 10.09375 -3.304688 9.914062 -2.488281 9.5625 -1.8125 C 9.21875 -1.132812 8.742188 -0.617188 8.140625 -0.265625 C 7.535156 0.078125 6.859375 0.25 6.109375 0.25 C 5.703125 0.25 5.320312 0.195312 4.96875 0.09375 C 4.625 -0.0078125 4.3125 -0.15625 4.03125 -0.34375 L 4.03125 2.875 C 3.90625 2.894531 3.738281 2.910156 3.53125 2.921875 C 3.332031 2.941406 3.140625 2.953125 2.953125 2.953125 C 2.503906 2.953125 2.15625 2.910156 1.90625 2.828125 C 1.664062 2.742188 1.488281 2.59375 1.375 2.375 C 1.269531 2.164062 1.21875 1.851562 1.21875 1.4375 L 1.21875 -5.921875 C 1.21875 -6.171875 1.171875 -6.351562 1.078125 -6.46875 C 0.992188 -6.582031 0.847656 -6.640625 0.640625 -6.640625 C 0.484375 -6.640625 0.347656 -6.625 0.234375 -6.59375 C 0.179688 -6.757812 0.15625 -6.960938 0.15625 -7.203125 C 0.15625 -7.710938 0.300781 -8.078125 0.59375 -8.296875 C 0.894531 -8.546875 1.347656 -8.671875 1.953125 -8.671875 C 2.421875 -8.671875 2.804688 -8.597656 3.109375 -8.453125 C 3.421875 -8.304688 3.65625 -8.070312 3.8125 -7.75 C 4.113281 -8.070312 4.476562 -8.320312 4.90625 -8.5 C 5.34375 -8.675781 5.8125 -8.765625 6.3125 -8.765625 Z M 5.4375 -2.046875 C 5.789062 -2.046875 6.101562 -2.128906 6.375 -2.296875 C 6.644531 -2.472656 6.859375 -2.726562 7.015625 -3.0625 C 7.171875 -3.394531 7.25 -3.789062 7.25 -4.25 C 7.25 -4.71875 7.171875 -5.117188 7.015625 -5.453125 C 6.859375 -5.785156 6.644531 -6.035156 6.375 -6.203125 C 6.101562 -6.378906 5.789062 -6.46875 5.4375 -6.46875 C 5.164062 -6.46875 4.90625 -6.421875 4.65625 -6.328125 C 4.414062 -6.242188 4.207031 -6.125 4.03125 -5.96875 L 4.03125 -2.5625 C 4.445312 -2.21875 4.914062 -2.046875 5.4375 -2.046875 Z M 5.4375 -2.046875 "/></g></g></g><g fill="#000000" fill-opacity="1"><g transform="translate(48.58666, 145.367656)"><g><path d="M 10.421875 -1.890625 C 10.441406 -1.785156 10.457031 -1.679688 10.46875 -1.578125 C 10.488281 -1.484375 10.5 -1.382812 10.5 -1.28125 C 10.5 -0.75 10.347656 -0.359375 10.046875 -0.109375 C 9.890625 0.015625 9.695312 0.0976562 9.46875 0.140625 C 9.238281 0.179688 8.976562 0.203125 8.6875 0.203125 C 8.21875 0.203125 7.828125 0.132812 7.515625 0 C 7.210938 -0.144531 6.984375 -0.394531 6.828125 -0.75 C 6.515625 -0.414062 6.140625 -0.164062 5.703125 0 C 5.273438 0.164062 4.804688 0.25 4.296875 0.25 C 3.617188 0.25 2.992188 0.078125 2.421875 -0.265625 C 1.847656 -0.617188 1.394531 -1.132812 1.0625 -1.8125 C 0.726562 -2.488281 0.5625 -3.296875 0.5625 -4.234375 C 0.5625 -5.179688 0.734375 -6 1.078125 -6.6875 C 1.429688 -7.375 1.898438 -7.890625 2.484375 -8.234375 C 3.066406 -8.585938 3.707031 -8.765625 4.40625 -8.765625 C 4.84375 -8.765625 5.257812 -8.6875 5.65625 -8.53125 C 6.050781 -8.375 6.40625 -8.148438 6.71875 -7.859375 C 6.820312 -8.140625 7 -8.34375 7.25 -8.46875 C 7.507812 -8.601562 7.878906 -8.671875 8.359375 -8.671875 C 8.535156 -8.671875 8.722656 -8.660156 8.921875 -8.640625 C 9.128906 -8.617188 9.300781 -8.597656 9.4375 -8.578125 L 9.4375 -2.5625 C 9.4375 -2.289062 9.472656 -2.097656 9.546875 -1.984375 C 9.617188 -1.878906 9.765625 -1.828125 9.984375 -1.828125 C 10.148438 -1.828125 10.296875 -1.847656 10.421875 -1.890625 Z M 3.40625 -4.25 C 3.40625 -3.789062 3.484375 -3.394531 3.640625 -3.0625 C 3.796875 -2.726562 4.007812 -2.472656 4.28125 -2.296875 C 4.5625 -2.128906 4.875 -2.046875 5.21875 -2.046875 C 5.476562 -2.046875 5.722656 -2.085938 5.953125 -2.171875 C 6.191406 -2.253906 6.410156 -2.378906 6.609375 -2.546875 L 6.609375 -5.96875 C 6.203125 -6.300781 5.734375 -6.46875 5.203125 -6.46875 C 4.847656 -6.46875 4.535156 -6.378906 4.265625 -6.203125 C 4.003906 -6.035156 3.796875 -5.78125 3.640625 -5.4375 C 3.484375 -5.101562 3.40625 -4.707031 3.40625 -4.25 Z M 3.40625 -4.25 "/></g></g></g><g fill="#000000" fill-opacity="1"><g transform="translate(59.240102, 145.367656)"><g><path d="M 7.3125 -8.21875 C 7.46875 -8.03125 7.546875 -7.769531 7.546875 -7.4375 C 7.546875 -7.21875 7.507812 -6.972656 7.4375 -6.703125 C 7.375 -6.429688 7.285156 -6.171875 7.171875 -5.921875 C 6.785156 -6.117188 6.34375 -6.21875 5.84375 -6.21875 C 5.5 -6.21875 5.164062 -6.140625 4.84375 -5.984375 C 4.53125 -5.835938 4.257812 -5.625 4.03125 -5.34375 L 4.03125 0.0625 C 3.90625 0.0820312 3.742188 0.0976562 3.546875 0.109375 C 3.347656 0.128906 3.148438 0.140625 2.953125 0.140625 C 2.503906 0.140625 2.15625 0.0976562 1.90625 0.015625 C 1.664062 -0.0664062 1.488281 -0.21875 1.375 -0.4375 C 1.269531 -0.65625 1.21875 -0.96875 1.21875 -1.375 L 1.21875 -5.921875 C 1.21875 -6.171875 1.171875 -6.351562 1.078125 -6.46875 C 0.992188 -6.582031 0.847656 -6.640625 0.640625 -6.640625 C 0.484375 -6.640625 0.347656 -6.625 0.234375 -6.59375 C 0.179688 -6.757812 0.15625 -6.960938 0.15625 -7.203125 C 0.15625 -7.710938 0.300781 -8.078125 0.59375 -8.296875 C 0.894531 -8.546875 1.347656 -8.671875 1.953125 -8.671875 C 2.492188 -8.671875 2.929688 -8.570312 3.265625 -8.375 C 3.597656 -8.175781 3.820312 -7.84375 3.9375 -7.375 C 4.175781 -7.78125 4.492188 -8.085938 4.890625 -8.296875 C 5.285156 -8.515625 5.695312 -8.625 6.125 -8.625 C 6.675781 -8.625 7.070312 -8.488281 7.3125 -8.21875 Z M 7.3125 -8.21875 "/></g></g></g><g fill="#000000" fill-opacity="1"><g transform="translate(67.174199, 145.367656)"><g><path d="M 10.421875 -1.890625 C 10.441406 -1.785156 10.457031 -1.679688 10.46875 -1.578125 C 10.488281 -1.484375 10.5 -1.382812 10.5 -1.28125 C 10.5 -0.75 10.347656 -0.359375 10.046875 -0.109375 C 9.890625 0.015625 9.695312 0.0976562 9.46875 0.140625 C 9.238281 0.179688 8.976562 0.203125 8.6875 0.203125 C 8.21875 0.203125 7.828125 0.132812 7.515625 0 C 7.210938 -0.144531 6.984375 -0.394531 6.828125 -0.75 C 6.515625 -0.414062 6.140625 -0.164062 5.703125 0 C 5.273438 0.164062 4.804688 0.25 4.296875 0.25 C 3.617188 0.25 2.992188 0.078125 2.421875 -0.265625 C 1.847656 -0.617188 1.394531 -1.132812 1.0625 -1.8125 C 0.726562 -2.488281 0.5625 -3.296875 0.5625 -4.234375 C 0.5625 -5.179688 0.734375 -6 1.078125 -6.6875 C 1.429688 -7.375 1.898438 -7.890625 2.484375 -8.234375 C 3.066406 -8.585938 3.707031 -8.765625 4.40625 -8.765625 C 4.84375 -8.765625 5.257812 -8.6875 5.65625 -8.53125 C 6.050781 -8.375 6.40625 -8.148438 6.71875 -7.859375 C 6.820312 -8.140625 7 -8.34375 7.25 -8.46875 C 7.507812 -8.601562 7.878906 -8.671875 8.359375 -8.671875 C 8.535156 -8.671875 8.722656 -8.660156 8.921875 -8.640625 C 9.128906 -8.617188 9.300781 -8.597656 9.4375 -8.578125 L 9.4375 -2.5625 C 9.4375 -2.289062 9.472656 -2.097656 9.546875 -1.984375 C 9.617188 -1.878906 9.765625 -1.828125 9.984375 -1.828125 C 10.148438 -1.828125 10.296875 -1.847656 10.421875 -1.890625 Z M 3.40625 -4.25 C 3.40625 -3.789062 3.484375 -3.394531 3.640625 -3.0625 C 3.796875 -2.726562 4.007812 -2.472656 4.28125 -2.296875 C 4.5625 -2.128906 4.875 -2.046875 5.21875 -2.046875 C 5.476562 -2.046875 5.722656 -2.085938 5.953125 -2.171875 C 6.191406 -2.253906 6.410156 -2.378906 6.609375 -2.546875 L 6.609375 -5.96875 C 6.203125 -6.300781 5.734375 -6.46875 5.203125 -6.46875 C 4.847656 -6.46875 4.535156 -6.378906 4.265625 -6.203125 C 4.003906 -6.035156 3.796875 -5.78125 3.640625 -5.4375 C 3.484375 -5.101562 3.40625 -4.707031 3.40625 -4.25 Z M 3.40625 -4.25 "/></g></g></g><g fill="#000000" fill-opacity="1"><g transform="translate(77.827641, 145.367656)"><g><path d="M 7.0625 -2.65625 C 7.425781 -2.21875 7.609375 -1.796875 7.609375 -1.390625 C 7.609375 -1.171875 7.5625 -0.972656 7.46875 -0.796875 C 7.382812 -0.617188 7.265625 -0.472656 7.109375 -0.359375 C 6.859375 -0.160156 6.53125 -0.0078125 6.125 0.09375 C 5.726562 0.195312 5.328125 0.25 4.921875 0.25 C 2.785156 0.25 1.71875 -0.835938 1.71875 -3.015625 L 1.71875 -6.390625 L 0.171875 -6.390625 C 0.148438 -6.503906 0.132812 -6.648438 0.125 -6.828125 C 0.113281 -7.015625 0.109375 -7.175781 0.109375 -7.3125 C 0.109375 -7.632812 0.132812 -7.878906 0.1875 -8.046875 C 0.25 -8.210938 0.359375 -8.332031 0.515625 -8.40625 C 0.671875 -8.476562 0.898438 -8.515625 1.203125 -8.515625 L 1.71875 -8.515625 L 1.71875 -9.34375 C 1.71875 -9.75 1.769531 -10.066406 1.875 -10.296875 C 1.976562 -10.535156 2.148438 -10.703125 2.390625 -10.796875 C 2.628906 -10.898438 2.957031 -10.953125 3.375 -10.953125 C 3.53125 -10.953125 3.71875 -10.941406 3.9375 -10.921875 C 4.164062 -10.910156 4.359375 -10.894531 4.515625 -10.875 L 4.515625 -8.515625 L 7.28125 -8.515625 C 7.300781 -8.410156 7.316406 -8.265625 7.328125 -8.078125 C 7.347656 -7.890625 7.359375 -7.71875 7.359375 -7.5625 C 7.359375 -7.25 7.328125 -7.007812 7.265625 -6.84375 C 7.210938 -6.675781 7.109375 -6.554688 6.953125 -6.484375 C 6.796875 -6.421875 6.566406 -6.390625 6.265625 -6.390625 L 4.515625 -6.390625 L 4.515625 -3.34375 C 4.515625 -2.476562 4.890625 -2.046875 5.640625 -2.046875 C 5.910156 -2.046875 6.164062 -2.101562 6.40625 -2.21875 C 6.65625 -2.332031 6.875 -2.476562 7.0625 -2.65625 Z M 7.0625 -2.65625 "/></g></g></g><g fill="#000000" fill-opacity="1"><g transform="translate(85.777737, 145.367656)"><g><path d="M 8.234375 -2.796875 C 8.429688 -2.628906 8.578125 -2.4375 8.671875 -2.21875 C 8.765625 -2 8.8125 -1.773438 8.8125 -1.546875 C 8.8125 -0.984375 8.5 -0.5625 7.875 -0.28125 C 7.5625 -0.125 7.175781 0 6.71875 0.09375 C 6.257812 0.195312 5.765625 0.25 5.234375 0.25 C 4.273438 0.25 3.441406 0.0664062 2.734375 -0.296875 C 2.035156 -0.660156 1.5 -1.179688 1.125 -1.859375 C 0.75 -2.535156 0.5625 -3.328125 0.5625 -4.234375 C 0.5625 -5.203125 0.757812 -6.023438 1.15625 -6.703125 C 1.550781 -7.378906 2.09375 -7.890625 2.78125 -8.234375 C 3.46875 -8.585938 4.253906 -8.765625 5.140625 -8.765625 C 5.867188 -8.765625 6.53125 -8.648438 7.125 -8.421875 C 7.71875 -8.203125 8.1875 -7.878906 8.53125 -7.453125 C 8.882812 -7.023438 9.0625 -6.519531 9.0625 -5.9375 C 9.0625 -5.101562 8.726562 -4.460938 8.0625 -4.015625 C 7.40625 -3.578125 6.410156 -3.359375 5.078125 -3.359375 C 4.492188 -3.359375 3.894531 -3.414062 3.28125 -3.53125 C 3.5625 -2.476562 4.335938 -1.953125 5.609375 -1.953125 C 6.171875 -1.953125 6.664062 -2.035156 7.09375 -2.203125 C 7.519531 -2.367188 7.898438 -2.566406 8.234375 -2.796875 Z M 5.1875 -6.78125 C 4.882812 -6.78125 4.59375 -6.71875 4.3125 -6.59375 C 4.039062 -6.476562 3.804688 -6.289062 3.609375 -6.03125 C 3.410156 -5.769531 3.28125 -5.453125 3.21875 -5.078125 C 3.675781 -4.984375 4.171875 -4.9375 4.703125 -4.9375 C 5.304688 -4.9375 5.753906 -5.003906 6.046875 -5.140625 C 6.335938 -5.285156 6.484375 -5.53125 6.484375 -5.875 C 6.484375 -6.144531 6.363281 -6.363281 6.125 -6.53125 C 5.882812 -6.695312 5.570312 -6.78125 5.1875 -6.78125 Z M 5.1875 -6.78125 "/></g></g></g><g fill="#000000" fill-opacity="1"><g transform="translate(34.374038, 167.117655)"><g><path d="M 4.734375 -1.953125 C 5.367188 -1.953125 5.859375 -2.066406 6.203125 -2.296875 C 6.546875 -2.535156 6.71875 -2.867188 6.71875 -3.296875 C 6.71875 -3.554688 6.644531 -3.765625 6.5 -3.921875 C 6.363281 -4.085938 6.148438 -4.226562 5.859375 -4.34375 C 5.566406 -4.457031 5.160156 -4.5625 4.640625 -4.65625 C 3.398438 -4.894531 2.414062 -5.285156 1.6875 -5.828125 C 0.957031 -6.367188 0.59375 -7.179688 0.59375 -8.265625 C 0.59375 -8.992188 0.785156 -9.617188 1.171875 -10.140625 C 1.554688 -10.671875 2.097656 -11.078125 2.796875 -11.359375 C 3.492188 -11.640625 4.304688 -11.78125 5.234375 -11.78125 C 6.816406 -11.78125 8.003906 -11.503906 8.796875 -10.953125 C 9.171875 -10.710938 9.359375 -10.394531 9.359375 -10 C 9.359375 -9.757812 9.289062 -9.515625 9.15625 -9.265625 C 9.019531 -9.015625 8.820312 -8.773438 8.5625 -8.546875 C 8.09375 -8.878906 7.570312 -9.128906 7 -9.296875 C 6.425781 -9.472656 5.851562 -9.5625 5.28125 -9.5625 C 4.707031 -9.5625 4.253906 -9.453125 3.921875 -9.234375 C 3.597656 -9.023438 3.4375 -8.75 3.4375 -8.40625 C 3.4375 -8.15625 3.488281 -7.945312 3.59375 -7.78125 C 3.707031 -7.625 3.898438 -7.488281 4.171875 -7.375 C 4.453125 -7.269531 4.851562 -7.164062 5.375 -7.0625 C 6.320312 -6.875 7.113281 -6.632812 7.75 -6.34375 C 8.382812 -6.050781 8.875 -5.664062 9.21875 -5.1875 C 9.5625 -4.71875 9.734375 -4.128906 9.734375 -3.421875 C 9.734375 -2.679688 9.539062 -2.035156 9.15625 -1.484375 C 8.769531 -0.929688 8.210938 -0.503906 7.484375 -0.203125 C 6.753906 0.0976562 5.878906 0.25 4.859375 0.25 C 3.253906 0.25 2.003906 -0.0078125 1.109375 -0.53125 C 0.554688 -0.851562 0.28125 -1.21875 0.28125 -1.625 C 0.28125 -2.070312 0.585938 -2.582031 1.203125 -3.15625 C 1.628906 -2.769531 2.148438 -2.472656 2.765625 -2.265625 C 3.378906 -2.054688 4.035156 -1.953125 4.734375 -1.953125 Z M 4.734375 -1.953125 "/></g></g></g><g fill="#000000" fill-opacity="1"><g transform="translate(44.611578, 167.117655)"><g><path d="M 7.0625 -2.65625 C 7.425781 -2.21875 7.609375 -1.796875 7.609375 -1.390625 C 7.609375 -1.171875 7.5625 -0.972656 7.46875 -0.796875 C 7.382812 -0.617188 7.265625 -0.472656 7.109375 -0.359375 C 6.859375 -0.160156 6.53125 -0.0078125 6.125 0.09375 C 5.726562 0.195312 5.328125 0.25 4.921875 0.25 C 2.785156 0.25 1.71875 -0.835938 1.71875 -3.015625 L 1.71875 -6.390625 L 0.171875 -6.390625 C 0.148438 -6.503906 0.132812 -6.648438 0.125 -6.828125 C 0.113281 -7.015625 0.109375 -7.175781 0.109375 -7.3125 C 0.109375 -7.632812 0.132812 -7.878906 0.1875 -8.046875 C 0.25 -8.210938 0.359375 -8.332031 0.515625 -8.40625 C 0.671875 -8.476562 0.898438 -8.515625 1.203125 -8.515625 L 1.71875 -8.515625 L 1.71875 -9.34375 C 1.71875 -9.75 1.769531 -10.066406 1.875 -10.296875 C 1.976562 -10.535156 2.148438 -10.703125 2.390625 -10.796875 C 2.628906 -10.898438 2.957031 -10.953125 3.375 -10.953125 C 3.53125 -10.953125 3.71875 -10.941406 3.9375 -10.921875 C 4.164062 -10.910156 4.359375 -10.894531 4.515625 -10.875 L 4.515625 -8.515625 L 7.28125 -8.515625 C 7.300781 -8.410156 7.316406 -8.265625 7.328125 -8.078125 C 7.347656 -7.890625 7.359375 -7.71875 7.359375 -7.5625 C 7.359375 -7.25 7.328125 -7.007812 7.265625 -6.84375 C 7.210938 -6.675781 7.109375 -6.554688 6.953125 -6.484375 C 6.796875 -6.421875 6.566406 -6.390625 6.265625 -6.390625 L 4.515625 -6.390625 L 4.515625 -3.34375 C 4.515625 -2.476562 4.890625 -2.046875 5.640625 -2.046875 C 5.910156 -2.046875 6.164062 -2.101562 6.40625 -2.21875 C 6.65625 -2.332031 6.875 -2.476562 7.0625 -2.65625 Z M 7.0625 -2.65625 "/></g></g></g><g fill="#000000" fill-opacity="1"><g transform="translate(52.561674, 167.117655)"><g><path d="M 10.421875 -1.890625 C 10.441406 -1.785156 10.457031 -1.679688 10.46875 -1.578125 C 10.488281 -1.484375 10.5 -1.382812 10.5 -1.28125 C 10.5 -0.75 10.347656 -0.359375 10.046875 -0.109375 C 9.890625 0.015625 9.695312 0.0976562 9.46875 0.140625 C 9.238281 0.179688 8.976562 0.203125 8.6875 0.203125 C 8.21875 0.203125 7.828125 0.132812 7.515625 0 C 7.210938 -0.144531 6.984375 -0.394531 6.828125 -0.75 C 6.515625 -0.414062 6.140625 -0.164062 5.703125 0 C 5.273438 0.164062 4.804688 0.25 4.296875 0.25 C 3.617188 0.25 2.992188 0.078125 2.421875 -0.265625 C 1.847656 -0.617188 1.394531 -1.132812 1.0625 -1.8125 C 0.726562 -2.488281 0.5625 -3.296875 0.5625 -4.234375 C 0.5625 -5.179688 0.734375 -6 1.078125 -6.6875 C 1.429688 -7.375 1.898438 -7.890625 2.484375 -8.234375 C 3.066406 -8.585938 3.707031 -8.765625 4.40625 -8.765625 C 4.84375 -8.765625 5.257812 -8.6875 5.65625 -8.53125 C 6.050781 -8.375 6.40625 -8.148438 6.71875 -7.859375 C 6.820312 -8.140625 7 -8.34375 7.25 -8.46875 C 7.507812 -8.601562 7.878906 -8.671875 8.359375 -8.671875 C 8.535156 -8.671875 8.722656 -8.660156 8.921875 -8.640625 C 9.128906 -8.617188 9.300781 -8.597656 9.4375 -8.578125 L 9.4375 -2.5625 C 9.4375 -2.289062 9.472656 -2.097656 9.546875 -1.984375 C 9.617188 -1.878906 9.765625 -1.828125 9.984375 -1.828125 C 10.148438 -1.828125 10.296875 -1.847656 10.421875 -1.890625 Z M 3.40625 -4.25 C 3.40625 -3.789062 3.484375 -3.394531 3.640625 -3.0625 C 3.796875 -2.726562 4.007812 -2.472656 4.28125 -2.296875 C 4.5625 -2.128906 4.875 -2.046875 5.21875 -2.046875 C 5.476562 -2.046875 5.722656 -2.085938 5.953125 -2.171875 C 6.191406 -2.253906 6.410156 -2.378906 6.609375 -2.546875 L 6.609375 -5.96875 C 6.203125 -6.300781 5.734375 -6.46875 5.203125 -6.46875 C 4.847656 -6.46875 4.535156 -6.378906 4.265625 -6.203125 C 4.003906 -6.035156 3.796875 -5.78125 3.640625 -5.4375 C 3.484375 -5.101562 3.40625 -4.707031 3.40625 -4.25 Z M 3.40625 -4.25 "/></g></g></g><g fill="#000000" fill-opacity="1"><g transform="translate(63.215116, 167.117655)"><g><path d="M 7.3125 -8.21875 C 7.46875 -8.03125 7.546875 -7.769531 7.546875 -7.4375 C 7.546875 -7.21875 7.507812 -6.972656 7.4375 -6.703125 C 7.375 -6.429688 7.285156 -6.171875 7.171875 -5.921875 C 6.785156 -6.117188 6.34375 -6.21875 5.84375 -6.21875 C 5.5 -6.21875 5.164062 -6.140625 4.84375 -5.984375 C 4.53125 -5.835938 4.257812 -5.625 4.03125 -5.34375 L 4.03125 0.0625 C 3.90625 0.0820312 3.742188 0.0976562 3.546875 0.109375 C 3.347656 0.128906 3.148438 0.140625 2.953125 0.140625 C 2.503906 0.140625 2.15625 0.0976562 1.90625 0.015625 C 1.664062 -0.0664062 1.488281 -0.21875 1.375 -0.4375 C 1.269531 -0.65625 1.21875 -0.96875 1.21875 -1.375 L 1.21875 -5.921875 C 1.21875 -6.171875 1.171875 -6.351562 1.078125 -6.46875 C 0.992188 -6.582031 0.847656 -6.640625 0.640625 -6.640625 C 0.484375 -6.640625 0.347656 -6.625 0.234375 -6.59375 C 0.179688 -6.757812 0.15625 -6.960938 0.15625 -7.203125 C 0.15625 -7.710938 0.300781 -8.078125 0.59375 -8.296875 C 0.894531 -8.546875 1.347656 -8.671875 1.953125 -8.671875 C 2.492188 -8.671875 2.929688 -8.570312 3.265625 -8.375 C 3.597656 -8.175781 3.820312 -7.84375 3.9375 -7.375 C 4.175781 -7.78125 4.492188 -8.085938 4.890625 -8.296875 C 5.285156 -8.515625 5.695312 -8.625 6.125 -8.625 C 6.675781 -8.625 7.070312 -8.488281 7.3125 -8.21875 Z M 7.3125 -8.21875 "/></g></g></g><g fill="#000000" fill-opacity="1"><g transform="translate(71.149213, 167.117655)"><g><path d="M 7.0625 -2.65625 C 7.425781 -2.21875 7.609375 -1.796875 7.609375 -1.390625 C 7.609375 -1.171875 7.5625 -0.972656 7.46875 -0.796875 C 7.382812 -0.617188 7.265625 -0.472656 7.109375 -0.359375 C 6.859375 -0.160156 6.53125 -0.0078125 6.125 0.09375 C 5.726562 0.195312 5.328125 0.25 4.921875 0.25 C 2.785156 0.25 1.71875 -0.835938 1.71875 -3.015625 L 1.71875 -6.390625 L 0.171875 -6.390625 C 0.148438 -6.503906 0.132812 -6.648438 0.125 -6.828125 C 0.113281 -7.015625 0.109375 -7.175781 0.109375 -7.3125 C 0.109375 -7.632812 0.132812 -7.878906 0.1875 -8.046875 C 0.25 -8.210938 0.359375 -8.332031 0.515625 -8.40625 C 0.671875 -8.476562 0.898438 -8.515625 1.203125 -8.515625 L 1.71875 -8.515625 L 1.71875 -9.34375 C 1.71875 -9.75 1.769531 -10.066406 1.875 -10.296875 C 1.976562 -10.535156 2.148438 -10.703125 2.390625 -10.796875 C 2.628906 -10.898438 2.957031 -10.953125 3.375 -10.953125 C 3.53125 -10.953125 3.71875 -10.941406 3.9375 -10.921875 C 4.164062 -10.910156 4.359375 -10.894531 4.515625 -10.875 L 4.515625 -8.515625 L 7.28125 -8.515625 C 7.300781 -8.410156 7.316406 -8.265625 7.328125 -8.078125 C 7.347656 -7.890625 7.359375 -7.71875 7.359375 -7.5625 C 7.359375 -7.25 7.328125 -7.007812 7.265625 -6.84375 C 7.210938 -6.675781 7.109375 -6.554688 6.953125 -6.484375 C 6.796875 -6.421875 6.566406 -6.390625 6.265625 -6.390625 L 4.515625 -6.390625 L 4.515625 -3.34375 C 4.515625 -2.476562 4.890625 -2.046875 5.640625 -2.046875 C 5.910156 -2.046875 6.164062 -2.101562 6.40625 -2.21875 C 6.65625 -2.332031 6.875 -2.476562 7.0625 -2.65625 Z M 7.0625 -2.65625 "/></g></g></g><path stroke-linecap="butt" transform="matrix(0.749993, -0.00325727, 0.00325727, 0.749993, 44.206577, 182.258131)" fill="none" stroke-linejoin="miter" d="M 0.00233755 1.999604 L 198.613592 1.997594 " stroke="#000000" stroke-width="4" stroke-opacity="1" stroke-miterlimit="4"/><path stroke-linecap="butt" transform="matrix(0.749994, -0.00294052, 0.00294052, 0.749994, 44.190221, 197.258015)" fill="none" stroke-linejoin="miter" d="M -0.0010522 1.999741 L 264.27704 1.999436 " stroke="#000000" stroke-width="4" stroke-opacity="1" stroke-miterlimit="4"/><path stroke-linecap="butt" transform="matrix(0.000808798, 0.75, -0.75, 0.000808798, 47.190296, 183.012322)" fill="none" stroke-linejoin="miter" d="M 0.00224937 1.998523 L 21.002261 2.000336 " stroke="#000000" stroke-width="4" stroke-opacity="1" stroke-miterlimit="4"/><g clip-path="url(#2027952c10)"><path fill="#7ed957" d="M 56.742188 179.550781 C 56.742188 185.644531 51.804688 190.585938 45.710938 190.585938 C 39.617188 190.585938 34.675781 185.644531 34.675781 179.550781 C 34.675781 173.457031 39.617188 168.519531 45.710938 168.519531 C 51.804688 168.519531 56.742188 173.457031 56.742188 179.550781 Z M 56.742188 179.550781 " fill-opacity="1" fill-rule="nonzero"/></g><path fill="#ffffff" d="M 43.125 175.144531 L 43.125 184.148438 L 50.199219 179.644531 Z M 43.125 175.144531 " fill-opacity="1" fill-rule="nonzero"/><g clip-path="url(#36016abbdc)"><g clip-path="url(#7084883f64)"><g transform="matrix(1, 0, 0, 1, 131, 16)"><g clip-path="url(#165c373f9c)"><g clip-path="url(#df9e713627)"><g clip-path="url(#aace03724b)"><path fill="#ffffff" d="M 0.210938 0.714844 L 313.621094 0.714844 L 313.621094 185.945312 L 0.210938 185.945312 Z M 0.210938 0.714844 " fill-opacity="1" fill-rule="nonzero"/></g></g></g></g></g></g><g clip-path="url(#1d15a52363)"><g clip-path="url(#8d4cefc1b4)"><path stroke-linecap="butt" transform="matrix(0.75, 0, 0, 0.75, 131.211177, 16.716495)" fill="none" stroke-linejoin="miter" d="M 208.937203 -0.00220143 C 324.317423 -0.00220143 417.869517 55.273846 417.869517 123.482187 C 417.869517 191.695735 324.317423 246.966575 208.937203 246.966575 C 93.551774 246.966575 -0.000319244 191.695735 -0.000319244 123.482187 C -0.000319244 55.273846 93.551774 -0.00220143 208.937203 -0.00220143 Z M 208.937203 -0.00220143 " stroke="#000000" stroke-width="8" stroke-opacity="1" stroke-miterlimit="4"/></g></g><g clip-path="url(#9eadebf2c3)"><g clip-path="url(#7c42d78425)"><g transform="matrix(1, 0, 0, 1, 157, 35)"><g clip-path="url(#65bdff1265)"><g clip-path="url(#d1d68b78bc)"><g clip-path="url(#de4f59ba7b)"><path fill="#ffffff" d="M 0.121094 0.65625 L 261.707031 0.65625 L 261.707031 147.945312 L 0.121094 147.945312 Z M 0.121094 0.65625 " fill-opacity="1" fill-rule="nonzero"/></g></g></g></g></g></g><g clip-path="url(#de12a0bd2f)"><g clip-path="url(#6c4e5f22a8)"><path stroke-linecap="butt" transform="matrix(0.75, 0, 0, 0.75, 157.12268, 35.657433)" fill="none" stroke-linejoin="miter" d="M 174.38332 -0.00157701 C 270.685414 -0.00157701 348.763547 43.967178 348.763547 98.232808 C 348.763547 152.493231 270.685414 196.461985 174.38332 196.461985 C 78.081227 196.461985 -0.0021148 152.493231 -0.0021148 98.232808 C -0.0021148 43.967178 78.081227 -0.00157701 174.38332 -0.00157701 Z M 174.38332 -0.00157701 " stroke="#000000" stroke-width="8" stroke-opacity="1" stroke-miterlimit="4"/></g></g><g clip-path="url(#106ea8dc90)"><g clip-path="url(#425a2cb8d6)"><g clip-path="url(#670e852e79)"><g clip-path="url(#8a04f38f07)"><path fill="#262626" d="M 388.933594 182.382812 L 388.460938 181.5 L 387.621094 181.953125 L 387.148438 181.070312 L 387.988281 180.621094 L 387.515625 179.738281 L 386.675781 180.1875 L 386.203125 179.308594 L 387.042969 178.855469 L 386.570312 177.976562 L 385.730469 178.425781 L 385.257812 177.546875 L 386.097656 177.09375 L 385.625 176.214844 L 384.785156 176.664062 L 384.3125 175.78125 L 385.152344 175.332031 L 384.679688 174.453125 L 383.839844 174.902344 L 383.367188 174.019531 L 384.207031 173.570312 L 383.734375 172.6875 L 382.894531 173.140625 L 382.421875 172.257812 L 383.261719 171.808594 L 382.789062 170.925781 L 381.949219 171.375 L 381.476562 170.496094 L 382.316406 170.046875 L 381.84375 169.164062 L 381.003906 169.613281 L 380.53125 168.734375 L 381.371094 168.28125 L 380.898438 167.402344 L 380.058594 167.851562 L 379.585938 166.96875 L 380.425781 166.519531 L 379.953125 165.640625 L 379.113281 166.089844 L 378.640625 165.207031 L 379.480469 164.757812 L 379.007812 163.875 L 378.167969 164.328125 L 377.695312 163.445312 L 378.535156 162.996094 L 378.0625 162.113281 L 377.222656 162.5625 L 376.75 161.683594 L 377.589844 161.234375 L 377.117188 160.351562 L 376.277344 160.800781 L 375.804688 159.921875 L 376.644531 159.46875 L 376.171875 158.589844 L 375.332031 159.039062 L 374.859375 158.160156 L 375.699219 157.707031 L 375.226562 156.828125 L 374.386719 157.277344 L 373.914062 156.394531 L 373.703125 156.507812 L 387.886719 182.945312 Z M 375.226562 156.828125 L 376.066406 156.375 L 375.59375 155.496094 L 374.753906 155.945312 Z M 376.066406 156.375 L 376.539062 157.257812 L 377.378906 156.808594 L 376.90625 155.925781 Z M 376.90625 155.925781 L 377.746094 155.476562 L 377.273438 154.59375 L 376.433594 155.042969 Z M 377.746094 155.476562 L 378.21875 156.355469 L 379.058594 155.90625 L 379.53125 156.789062 L 378.691406 157.238281 L 379.164062 158.117188 L 380.003906 157.667969 L 380.476562 158.550781 L 379.636719 159 L 380.109375 159.882812 L 380.949219 159.429688 L 381.421875 160.3125 L 380.582031 160.761719 L 381.054688 161.644531 L 381.894531 161.191406 L 382.367188 162.074219 L 381.527344 162.523438 L 382 163.40625 L 382.839844 162.957031 L 383.3125 163.835938 L 382.472656 164.289062 L 382.945312 165.167969 L 383.785156 164.71875 L 384.257812 165.597656 L 383.417969 166.050781 L 383.890625 166.929688 L 384.730469 166.480469 L 385.203125 167.363281 L 384.363281 167.8125 L 384.835938 168.695312 L 385.675781 168.242188 L 386.148438 169.125 L 385.308594 169.574219 L 385.78125 170.457031 L 386.621094 170.003906 L 387.09375 170.886719 L 386.253906 171.335938 L 386.726562 172.21875 L 387.566406 171.769531 L 388.039062 172.648438 L 387.199219 173.101562 L 387.671875 173.980469 L 388.511719 173.53125 L 388.984375 174.410156 L 388.144531 174.863281 L 388.617188 175.742188 L 389.457031 175.292969 L 389.929688 176.175781 L 389.089844 176.625 L 389.5625 177.507812 L 390.402344 177.054688 L 390.875 177.9375 L 390.035156 178.386719 L 390.507812 179.269531 L 391.347656 178.816406 L 391.820312 179.699219 L 390.980469 180.148438 L 391.453125 181.03125 L 392.5 180.46875 L 378.320312 154.03125 L 378.113281 154.144531 L 378.585938 155.023438 Z M 390.980469 180.148438 L 390.507812 179.269531 L 389.667969 179.71875 L 390.140625 180.601562 Z M 390.140625 180.601562 L 389.300781 181.050781 L 389.773438 181.933594 L 390.613281 181.480469 Z M 389.300781 181.050781 L 388.828125 180.167969 L 387.988281 180.621094 L 388.460938 181.5 Z M 376.171875 158.589844 L 377.011719 158.136719 L 376.539062 157.257812 L 375.699219 157.707031 Z M 377.117188 160.351562 L 377.957031 159.902344 L 377.484375 159.019531 L 376.644531 159.46875 Z M 378.0625 162.113281 L 378.902344 161.664062 L 378.429688 160.78125 L 377.589844 161.234375 Z M 379.007812 163.875 L 379.847656 163.425781 L 379.375 162.542969 L 378.535156 162.996094 Z M 379.953125 165.640625 L 380.792969 165.1875 L 380.320312 164.308594 L 379.480469 164.757812 Z M 380.898438 167.402344 L 381.738281 166.949219 L 381.265625 166.070312 L 380.425781 166.519531 Z M 381.84375 169.164062 L 382.683594 168.714844 L 382.210938 167.832031 L 381.371094 168.28125 Z M 382.789062 170.925781 L 383.628906 170.476562 L 383.15625 169.59375 L 382.316406 170.046875 Z M 383.734375 172.6875 L 384.574219 172.238281 L 384.101562 171.355469 L 383.261719 171.808594 Z M 384.679688 174.453125 L 385.519531 174 L 385.046875 173.121094 L 384.207031 173.570312 Z M 385.625 176.214844 L 386.464844 175.761719 L 385.992188 174.882812 L 385.152344 175.332031 Z M 386.570312 177.976562 L 387.410156 177.527344 L 386.9375 176.644531 L 386.097656 177.09375 Z M 387.515625 179.738281 L 388.355469 179.289062 L 387.882812 178.40625 L 387.042969 178.855469 Z M 377.378906 156.808594 L 377.851562 157.6875 L 378.691406 157.238281 L 378.21875 156.355469 Z M 377.011719 158.136719 L 377.484375 159.019531 L 378.324219 158.570312 L 377.851562 157.6875 Z M 389.5625 177.507812 L 388.722656 177.957031 L 389.195312 178.835938 L 390.035156 178.386719 Z M 388.617188 175.742188 L 387.777344 176.195312 L 388.25 177.074219 L 389.089844 176.625 Z M 387.671875 173.980469 L 386.832031 174.429688 L 387.304688 175.3125 L 388.144531 174.863281 Z M 386.726562 172.21875 L 385.886719 172.667969 L 386.359375 173.550781 L 387.199219 173.101562 Z M 385.78125 170.457031 L 384.941406 170.90625 L 385.414062 171.789062 L 386.253906 171.335938 Z M 384.835938 168.695312 L 383.996094 169.144531 L 384.46875 170.023438 L 385.308594 169.574219 Z M 383.890625 166.929688 L 383.050781 167.382812 L 383.523438 168.261719 L 384.363281 167.8125 Z M 382.945312 165.167969 L 382.105469 165.621094 L 382.578125 166.5 L 383.417969 166.050781 Z M 382 163.40625 L 381.160156 163.855469 L 381.632812 164.738281 L 382.472656 164.289062 Z M 381.054688 161.644531 L 380.214844 162.09375 L 380.6875 162.976562 L 381.527344 162.523438 Z M 380.109375 159.882812 L 379.269531 160.332031 L 379.742188 161.214844 L 380.582031 160.761719 Z M 379.164062 158.117188 L 378.324219 158.570312 L 378.796875 159.449219 L 379.636719 159 Z M 389.667969 179.71875 L 389.195312 178.835938 L 388.355469 179.289062 L 388.828125 180.167969 Z M 378.429688 160.78125 L 379.269531 160.332031 L 378.796875 159.449219 L 377.957031 159.902344 Z M 379.375 162.542969 L 380.214844 162.09375 L 379.742188 161.214844 L 378.902344 161.664062 Z M 380.320312 164.308594 L 381.160156 163.855469 L 380.6875 162.976562 L 379.847656 163.425781 Z M 381.265625 166.070312 L 382.105469 165.621094 L 381.632812 164.738281 L 380.792969 165.1875 Z M 382.210938 167.832031 L 383.050781 167.382812 L 382.578125 166.5 L 381.738281 166.949219 Z M 383.15625 169.59375 L 383.996094 169.144531 L 383.523438 168.261719 L 382.683594 168.714844 Z M 384.101562 171.355469 L 384.941406 170.90625 L 384.46875 170.023438 L 383.628906 170.476562 Z M 385.046875 173.121094 L 385.886719 172.667969 L 385.414062 171.789062 L 384.574219 172.238281 Z M 385.992188 174.882812 L 386.832031 174.429688 L 386.359375 173.550781 L 385.519531 174 Z M 386.9375 176.644531 L 387.777344 176.195312 L 387.304688 175.3125 L 386.464844 175.761719 Z M 387.882812 178.40625 L 388.722656 177.957031 L 388.25 177.074219 L 387.410156 177.527344 Z M 387.882812 178.40625 " fill-opacity="1" fill-rule="evenodd"/></g></g></g></g><g clip-path="url(#5d8dd3afda)"><path fill="#ffffff" d="M 394.53125 175.695312 C 396.65625 167.164062 396.488281 166.523438 397.054688 163.191406 C 405.707031 159.878906 405.527344 166.4375 414.738281 165.746094 C 414.972656 167.273438 412.285156 173.257812 407 173.570312 C 401.71875 173.882812 397.570312 172.285156 394.53125 175.691406 Z M 394.53125 175.695312 " fill-opacity="1" fill-rule="evenodd"/><path fill="#000000" d="M 394.394531 175.660156 C 396.519531 167.136719 396.347656 166.5 396.917969 163.167969 C 396.921875 163.117188 396.960938 163.078125 397.007812 163.058594 C 401.398438 161.378906 403.542969 162.207031 405.757812 163.355469 C 407.925781 164.484375 410.164062 165.945312 414.730469 165.601562 C 414.804688 165.597656 414.871094 165.648438 414.882812 165.722656 C 414.980469 166.351562 414.609375 167.71875 413.765625 169.144531 C 412.511719 171.261719 410.234375 173.523438 407.011719 173.714844 C 404.371094 173.871094 402.011719 173.550781 399.933594 173.617188 C 397.894531 173.683594 396.132812 174.121094 394.644531 175.789062 C 394.601562 175.839844 394.53125 175.855469 394.46875 175.820312 C 394.410156 175.789062 394.382812 175.722656 394.398438 175.65625 Z M 394.804688 175.203125 C 396.265625 173.785156 397.972656 173.390625 399.921875 173.328125 C 401.996094 173.261719 404.355469 173.585938 406.992188 173.429688 C 410.113281 173.242188 412.308594 171.046875 413.515625 168.996094 C 414.257812 167.742188 414.636719 166.542969 414.609375 165.902344 C 410.058594 166.210938 407.804688 164.753906 405.621094 163.617188 C 403.476562 162.5 401.402344 161.707031 397.183594 163.304688 C 396.644531 166.496094 396.773438 167.234375 394.804688 175.207031 Z M 394.804688 175.203125 " fill-opacity="1" fill-rule="evenodd"/></g><path fill="#000000" d="M 396.492188 166.832031 C 396.703125 165.558594 396.8125 164.625 397.058594 163.195312 C 398.679688 162.570312 399.996094 162.296875 401.117188 162.261719 C 400.847656 163.179688 400.496094 164.351562 400.042969 165.984375 C 398.945312 166.042969 397.773438 166.296875 396.492188 166.832031 Z M 396.492188 166.832031 " fill-opacity="1" fill-rule="evenodd"/><path fill="#000000" d="M 396.351562 166.808594 C 396.5625 165.53125 396.671875 164.601562 396.917969 163.167969 C 396.921875 163.117188 396.960938 163.078125 397.007812 163.058594 C 398.652344 162.429688 399.980469 162.152344 401.113281 162.113281 C 401.164062 162.113281 401.203125 162.128906 401.234375 162.167969 C 401.261719 162.207031 401.269531 162.253906 401.257812 162.296875 C 400.988281 163.21875 400.636719 164.386719 400.183594 166.019531 C 400.171875 166.078125 400.113281 166.121094 400.054688 166.125 C 398.96875 166.183594 397.8125 166.429688 396.554688 166.960938 C 396.503906 166.980469 396.449219 166.972656 396.410156 166.941406 C 396.367188 166.90625 396.34375 166.855469 396.355469 166.804688 Z M 396.679688 166.597656 C 397.839844 166.132812 398.917969 165.910156 399.933594 165.84375 C 400.339844 164.375 400.667969 163.285156 400.921875 162.414062 C 399.878906 162.476562 398.660156 162.742188 397.1875 163.304688 C 396.96875 164.589844 396.859375 165.480469 396.679688 166.601562 Z M 396.679688 166.597656 " fill-opacity="1" fill-rule="evenodd"/><path fill="#000000" d="M 405.214844 163.246094 C 406.570312 163.914062 407.890625 164.769531 409.71875 165.300781 C 409.402344 166.035156 409.035156 166.890625 408.609375 167.898438 C 407.996094 167.765625 407.351562 167.585938 406.667969 167.355469 C 405.914062 167.105469 405.15625 166.832031 404.371094 166.597656 C 404.675781 165.367188 404.9375 164.402344 405.214844 163.25 Z M 405.214844 163.246094 " fill-opacity="1" fill-rule="evenodd"/><path fill="#000000" d="M 405.277344 163.117188 C 406.625 163.78125 407.941406 164.636719 409.757812 165.164062 C 409.796875 165.171875 409.832031 165.203125 409.847656 165.242188 C 409.867188 165.277344 409.867188 165.324219 409.847656 165.359375 C 409.53125 166.09375 409.164062 166.949219 408.738281 167.957031 C 408.710938 168.023438 408.640625 168.058594 408.574219 168.042969 C 407.960938 167.910156 407.308594 167.730469 406.617188 167.5 C 405.871094 167.246094 405.109375 166.976562 404.328125 166.738281 C 404.253906 166.71875 404.210938 166.644531 404.226562 166.5625 C 404.53125 165.335938 404.792969 164.371094 405.070312 163.214844 C 405.082031 163.171875 405.109375 163.136719 405.148438 163.117188 C 405.1875 163.097656 405.234375 163.097656 405.273438 163.117188 Z M 405.3125 163.457031 C 405.058594 164.492188 404.816406 165.394531 404.542969 166.496094 C 405.28125 166.726562 406 166.980469 406.710938 167.21875 C 407.34375 167.429688 407.949219 167.605469 408.519531 167.730469 C 408.898438 166.835938 409.226562 166.0625 409.515625 165.394531 C 407.835938 164.878906 406.578125 164.097656 405.3125 163.457031 Z M 405.3125 163.457031 " fill-opacity="1" fill-rule="evenodd"/><g clip-path="url(#864e3efb87)"><path fill="#000000" d="M 412.695312 165.78125 C 413.324219 165.8125 414 165.800781 414.738281 165.746094 C 414.800781 166.15625 414.652344 166.886719 414.304688 167.738281 C 413.5 167.980469 412.675781 168.136719 411.792969 168.183594 C 412.140625 167.242188 412.441406 166.445312 412.695312 165.777344 Z M 412.695312 165.78125 " fill-opacity="1" fill-rule="evenodd"/><path fill="#000000" d="M 412.703125 165.636719 C 413.328125 165.664062 413.996094 165.65625 414.730469 165.601562 C 414.804688 165.597656 414.871094 165.648438 414.882812 165.722656 C 414.949219 166.148438 414.804688 166.90625 414.4375 167.792969 C 414.425781 167.835938 414.386719 167.867188 414.347656 167.875 C 413.53125 168.125 412.691406 168.285156 411.796875 168.328125 C 411.75 168.328125 411.699219 168.304688 411.675781 168.269531 C 411.644531 168.226562 411.636719 168.179688 411.65625 168.132812 C 412.003906 167.191406 412.304688 166.394531 412.558594 165.730469 C 412.582031 165.671875 412.636719 165.636719 412.699219 165.640625 Z M 412.792969 165.933594 C 412.5625 166.527344 412.304688 167.222656 412.003906 168.027344 C 412.769531 167.96875 413.492188 167.828125 414.199219 167.617188 C 414.484375 166.910156 414.625 166.296875 414.609375 165.898438 C 413.960938 165.945312 413.355469 165.949219 412.792969 165.929688 Z M 412.792969 165.933594 " fill-opacity="1" fill-rule="evenodd"/></g><path fill="#000000" d="M 400.042969 165.980469 C 401.613281 165.894531 403.027344 166.191406 404.371094 166.597656 C 404.128906 167.589844 403.855469 168.757812 403.519531 170.339844 C 403.472656 170.332031 403.429688 170.324219 403.378906 170.3125 C 401.726562 170.039062 400.238281 170.039062 398.925781 170.214844 C 399.355469 168.523438 399.726562 167.132812 400.042969 165.980469 Z M 400.042969 165.980469 " fill-opacity="1" fill-rule="evenodd"/><path fill="#000000" d="M 400.035156 165.835938 C 401.621094 165.746094 403.054688 166.046875 404.414062 166.457031 C 404.488281 166.476562 404.53125 166.558594 404.515625 166.632812 C 404.269531 167.621094 403.996094 168.789062 403.664062 170.371094 C 403.648438 170.449219 403.574219 170.496094 403.5 170.480469 C 403.453125 170.476562 403.40625 170.46875 403.359375 170.460938 C 401.722656 170.183594 400.25 170.1875 398.945312 170.363281 C 398.898438 170.371094 398.851562 170.351562 398.820312 170.3125 C 398.789062 170.28125 398.777344 170.226562 398.789062 170.183594 C 399.21875 168.484375 399.589844 167.097656 399.90625 165.945312 C 399.925781 165.882812 399.976562 165.839844 400.035156 165.839844 Z M 400.15625 166.121094 C 399.855469 167.207031 399.511719 168.492188 399.117188 170.042969 C 400.390625 169.890625 401.824219 169.902344 403.40625 170.167969 L 403.410156 170.167969 C 403.71875 168.722656 403.96875 167.628906 404.199219 166.695312 C 402.9375 166.324219 401.613281 166.054688 400.15625 166.121094 Z M 400.15625 166.121094 " fill-opacity="1" fill-rule="evenodd"/><path fill="#000000" d="M 408.605469 167.898438 C 409.769531 168.148438 410.8125 168.234375 411.792969 168.1875 C 411.375 169.316406 410.886719 170.65625 410.324219 172.253906 C 409.238281 172.035156 408.203125 171.691406 407.15625 171.347656 C 407.703125 170.035156 408.1875 168.894531 408.609375 167.902344 Z M 408.605469 167.898438 " fill-opacity="1" fill-rule="evenodd"/><path fill="#000000" d="M 408.640625 167.757812 C 409.789062 168.007812 410.820312 168.089844 411.785156 168.039062 C 411.832031 168.039062 411.882812 168.058594 411.90625 168.101562 C 411.9375 168.140625 411.945312 168.191406 411.925781 168.238281 C 411.507812 169.367188 411.023438 170.710938 410.457031 172.304688 C 410.4375 172.375 410.367188 172.414062 410.296875 172.398438 C 409.203125 172.179688 408.160156 171.832031 407.109375 171.484375 C 407.070312 171.46875 407.039062 171.441406 407.023438 171.40625 C 407.007812 171.367188 407.003906 171.328125 407.023438 171.289062 C 407.570312 169.976562 408.054688 168.835938 408.476562 167.84375 C 408.5 167.777344 408.570312 167.742188 408.640625 167.757812 Z M 408.695312 168.066406 C 408.300781 168.996094 407.855469 170.050781 407.347656 171.257812 C 408.300781 171.570312 409.246094 171.875 410.230469 172.089844 C 410.742188 170.640625 411.191406 169.402344 411.582031 168.34375 C 410.6875 168.371094 409.738281 168.289062 408.691406 168.070312 Z M 408.695312 168.066406 " fill-opacity="1" fill-rule="evenodd"/><path fill="#000000" d="M 398.074219 173.675781 C 396.765625 173.941406 395.582031 174.519531 394.535156 175.699219 C 395 173.832031 395.355469 172.347656 395.632812 171.125 C 396.566406 170.726562 397.667969 170.390625 398.929688 170.21875 C 398.667969 171.253906 398.382812 172.394531 398.078125 173.675781 Z M 398.074219 173.675781 " fill-opacity="1" fill-rule="evenodd"/><path fill="#000000" d="M 398.101562 173.816406 C 396.820312 174.078125 395.664062 174.644531 394.640625 175.792969 C 394.597656 175.84375 394.527344 175.859375 394.464844 175.824219 C 394.40625 175.792969 394.378906 175.726562 394.394531 175.660156 C 394.859375 173.796875 395.214844 172.308594 395.492188 171.089844 C 395.503906 171.046875 395.535156 171.007812 395.578125 170.992188 C 396.523438 170.585938 397.636719 170.246094 398.910156 170.074219 C 398.957031 170.066406 399.007812 170.085938 399.035156 170.125 C 399.070312 170.160156 399.082031 170.210938 399.070312 170.253906 C 398.808594 171.285156 398.523438 172.429688 398.222656 173.707031 C 398.207031 173.765625 398.164062 173.804688 398.109375 173.816406 Z M 397.957031 173.546875 C 398.234375 172.394531 398.496094 171.34375 398.730469 170.390625 C 397.605469 170.5625 396.613281 170.863281 395.757812 171.226562 C 395.507812 172.316406 395.199219 173.613281 394.808594 175.203125 C 395.757812 174.285156 396.808594 173.796875 397.957031 173.546875 Z M 397.957031 173.546875 " fill-opacity="1" fill-rule="evenodd"/><path fill="#000000" d="M 406.207031 173.609375 C 405.039062 173.636719 403.929688 173.589844 402.875 173.539062 C 403.113281 172.304688 403.328125 171.253906 403.519531 170.335938 C 404.808594 170.566406 405.988281 170.957031 407.15625 171.34375 C 406.859375 172.046875 406.542969 172.800781 406.210938 173.609375 Z M 406.207031 173.609375 " fill-opacity="1" fill-rule="evenodd"/><path fill="#000000" d="M 406.210938 173.753906 C 405.039062 173.785156 403.925781 173.738281 402.867188 173.6875 C 402.828125 173.6875 402.785156 173.664062 402.761719 173.628906 C 402.734375 173.597656 402.722656 173.554688 402.730469 173.511719 C 402.96875 172.273438 403.183594 171.21875 403.375 170.304688 C 403.390625 170.230469 403.464844 170.179688 403.542969 170.195312 C 404.839844 170.425781 406.027344 170.816406 407.195312 171.203125 C 407.234375 171.214844 407.265625 171.246094 407.28125 171.28125 C 407.300781 171.320312 407.300781 171.359375 407.28125 171.398438 C 406.984375 172.101562 406.671875 172.855469 406.335938 173.660156 C 406.316406 173.710938 406.261719 173.746094 406.207031 173.75 Z M 406.109375 173.464844 C 406.410156 172.742188 406.691406 172.070312 406.960938 171.433594 C 405.890625 171.082031 404.804688 170.730469 403.628906 170.507812 C 403.453125 171.347656 403.261719 172.300781 403.046875 173.40625 C 404.015625 173.449219 405.039062 173.492188 406.105469 173.464844 Z M 406.109375 173.464844 " fill-opacity="1" fill-rule="evenodd"/><g clip-path="url(#c43a375ba7)"><path fill="#ffffff" d="M 397.929688 161.757812 L 393.71875 182.71875 C 393.6875 182.863281 393.546875 182.957031 393.402344 182.925781 L 392.875 182.820312 C 392.730469 182.789062 392.640625 182.648438 392.667969 182.5 L 396.878906 161.542969 C 396.910156 161.398438 397.050781 161.300781 397.195312 161.332031 L 397.71875 161.4375 C 397.863281 161.46875 397.957031 161.609375 397.929688 161.757812 Z M 397.929688 161.757812 " fill-opacity="1" fill-rule="evenodd"/></g><g clip-path="url(#93e2a329b9)"><path fill="#000000" d="M 398.070312 161.785156 L 393.859375 182.75 C 393.8125 182.972656 393.59375 183.117188 393.375 183.074219 L 392.847656 182.964844 C 392.625 182.921875 392.480469 182.699219 392.523438 182.476562 L 396.738281 161.511719 C 396.78125 161.289062 397 161.144531 397.222656 161.1875 L 397.75 161.296875 C 397.972656 161.339844 398.117188 161.5625 398.074219 161.785156 Z M 397.785156 161.726562 C 397.800781 161.660156 397.757812 161.59375 397.691406 161.578125 L 397.164062 161.46875 C 397.097656 161.453125 397.03125 161.5 397.019531 161.566406 L 392.808594 182.535156 C 392.792969 182.601562 392.839844 182.667969 392.90625 182.679688 L 393.433594 182.789062 C 393.5 182.804688 393.566406 182.757812 393.578125 182.691406 Z M 397.785156 161.726562 " fill-opacity="1" fill-rule="evenodd"/></g><path fill="#ffffff" d="M 397.832031 162.113281 L 396.824219 161.90625 C 396.648438 161.707031 396.578125 161.4375 396.628906 161.179688 C 396.722656 160.726562 397.167969 160.429688 397.628906 160.523438 C 398.085938 160.617188 398.382812 161.066406 398.292969 161.519531 C 398.238281 161.777344 398.070312 161.996094 397.832031 162.113281 Z M 397.832031 162.113281 " fill-opacity="1" fill-rule="evenodd"/><path fill="#000000" d="M 397.800781 162.253906 L 396.792969 162.046875 C 396.765625 162.039062 396.734375 162.027344 396.714844 162.003906 C 396.511719 161.773438 396.425781 161.457031 396.488281 161.15625 C 396.597656 160.621094 397.121094 160.273438 397.65625 160.378906 C 398.195312 160.488281 398.539062 161.015625 398.433594 161.550781 C 398.371094 161.855469 398.171875 162.109375 397.894531 162.242188 C 397.863281 162.253906 397.835938 162.261719 397.804688 162.253906 Z M 397.808594 161.957031 C 397.984375 161.859375 398.109375 161.6875 398.148438 161.492188 C 398.222656 161.113281 397.976562 160.742188 397.59375 160.664062 C 397.214844 160.585938 396.847656 160.832031 396.769531 161.210938 C 396.726562 161.410156 396.773438 161.613281 396.898438 161.773438 L 397.804688 161.957031 Z M 397.808594 161.957031 " fill-opacity="1" fill-rule="evenodd"/><g fill="#000000" fill-opacity="1"><g transform="translate(304.776198, 145.367656)"><g><path d="M 11.375 -0.15625 C 11.15625 -0.0507812 10.863281 0.03125 10.5 0.09375 C 10.132812 0.15625 9.789062 0.1875 9.46875 0.1875 C 9.175781 0.1875 8.929688 0.148438 8.734375 0.078125 C 8.546875 0.015625 8.375 -0.0976562 8.21875 -0.265625 C 8.0625 -0.441406 7.894531 -0.695312 7.71875 -1.03125 L 6.171875 -3.796875 L 4.0625 -3.796875 L 4.0625 0.046875 C 3.976562 0.0664062 3.816406 0.0859375 3.578125 0.109375 C 3.347656 0.128906 3.144531 0.140625 2.96875 0.140625 C 2.488281 0.140625 2.140625 0.101562 1.921875 0.03125 C 1.703125 -0.03125 1.550781 -0.144531 1.46875 -0.3125 C 1.394531 -0.488281 1.359375 -0.765625 1.359375 -1.140625 L 1.359375 -9.34375 L 0.21875 -9.34375 C 0.195312 -9.46875 0.179688 -9.613281 0.171875 -9.78125 C 0.160156 -9.945312 0.15625 -10.101562 0.15625 -10.25 C 0.15625 -10.582031 0.195312 -10.835938 0.28125 -11.015625 C 0.363281 -11.203125 0.488281 -11.332031 0.65625 -11.40625 C 0.832031 -11.476562 1.082031 -11.515625 1.40625 -11.515625 L 5.75 -11.515625 C 7.5 -11.515625 8.78125 -11.1875 9.59375 -10.53125 C 10.40625 -9.882812 10.8125 -8.90625 10.8125 -7.59375 C 10.8125 -6.8125 10.628906 -6.144531 10.265625 -5.59375 C 9.898438 -5.039062 9.390625 -4.65625 8.734375 -4.4375 Z M 4.0625 -6.046875 L 5.8125 -6.046875 C 6.550781 -6.046875 7.097656 -6.171875 7.453125 -6.421875 C 7.816406 -6.671875 8 -7.070312 8 -7.625 C 8 -8.207031 7.816406 -8.628906 7.453125 -8.890625 C 7.097656 -9.160156 6.550781 -9.296875 5.8125 -9.296875 L 4.0625 -9.296875 Z M 4.0625 -6.046875 "/></g></g></g><g fill="#000000" fill-opacity="1"><g transform="translate(316.59736, 145.367656)"><g><path d="M 5.15625 0.25 C 4.195312 0.25 3.367188 0.078125 2.671875 -0.265625 C 1.984375 -0.609375 1.457031 -1.117188 1.09375 -1.796875 C 0.738281 -2.472656 0.5625 -3.296875 0.5625 -4.265625 C 0.5625 -5.222656 0.75 -6.039062 1.125 -6.71875 C 1.5 -7.394531 2.03125 -7.90625 2.71875 -8.25 C 3.40625 -8.59375 4.210938 -8.765625 5.140625 -8.765625 C 6.097656 -8.765625 6.921875 -8.59375 7.609375 -8.25 C 8.296875 -7.90625 8.820312 -7.394531 9.1875 -6.71875 C 9.5625 -6.039062 9.75 -5.210938 9.75 -4.234375 C 9.75 -3.285156 9.554688 -2.472656 9.171875 -1.796875 C 8.796875 -1.117188 8.265625 -0.609375 7.578125 -0.265625 C 6.890625 0.078125 6.082031 0.25 5.15625 0.25 Z M 5.171875 -2.046875 C 5.710938 -2.046875 6.132812 -2.222656 6.4375 -2.578125 C 6.738281 -2.929688 6.890625 -3.484375 6.890625 -4.234375 C 6.890625 -5.003906 6.734375 -5.566406 6.421875 -5.921875 C 6.109375 -6.285156 5.675781 -6.46875 5.125 -6.46875 C 4.570312 -6.46875 4.144531 -6.289062 3.84375 -5.9375 C 3.539062 -5.582031 3.390625 -5.023438 3.390625 -4.265625 C 3.390625 -3.503906 3.546875 -2.941406 3.859375 -2.578125 C 4.179688 -2.222656 4.617188 -2.046875 5.171875 -2.046875 Z M 5.171875 -2.046875 "/></g></g></g><g fill="#000000" fill-opacity="1"><g transform="translate(326.882886, 145.367656)"><g><path d="M 10.140625 -1.890625 C 10.191406 -1.703125 10.21875 -1.492188 10.21875 -1.265625 C 10.21875 -0.742188 10.070312 -0.359375 9.78125 -0.109375 C 9.613281 0.015625 9.414062 0.0976562 9.1875 0.140625 C 8.96875 0.191406 8.71875 0.21875 8.4375 0.21875 C 7.9375 0.21875 7.523438 0.132812 7.203125 -0.03125 C 6.890625 -0.195312 6.660156 -0.476562 6.515625 -0.875 C 6.222656 -0.539062 5.847656 -0.269531 5.390625 -0.0625 C 4.929688 0.144531 4.445312 0.25 3.9375 0.25 C 1.875 0.25 0.84375 -0.96875 0.84375 -3.40625 L 0.84375 -8.59375 C 0.988281 -8.613281 1.15625 -8.628906 1.34375 -8.640625 C 1.539062 -8.660156 1.734375 -8.671875 1.921875 -8.671875 C 2.367188 -8.671875 2.710938 -8.628906 2.953125 -8.546875 C 3.203125 -8.460938 3.378906 -8.3125 3.484375 -8.09375 C 3.597656 -7.882812 3.65625 -7.570312 3.65625 -7.15625 L 3.65625 -3.703125 C 3.65625 -3.097656 3.765625 -2.671875 3.984375 -2.421875 C 4.203125 -2.171875 4.515625 -2.046875 4.921875 -2.046875 C 5.191406 -2.046875 5.453125 -2.101562 5.703125 -2.21875 C 5.960938 -2.34375 6.179688 -2.5 6.359375 -2.6875 L 6.359375 -8.59375 C 6.492188 -8.613281 6.660156 -8.628906 6.859375 -8.640625 C 7.054688 -8.660156 7.242188 -8.671875 7.421875 -8.671875 C 7.859375 -8.671875 8.203125 -8.617188 8.453125 -8.515625 C 8.703125 -8.410156 8.882812 -8.238281 9 -8 C 9.113281 -7.757812 9.171875 -7.4375 9.171875 -7.03125 L 9.171875 -2.546875 C 9.171875 -2.273438 9.207031 -2.082031 9.28125 -1.96875 C 9.363281 -1.863281 9.515625 -1.8125 9.734375 -1.8125 C 9.878906 -1.8125 10.015625 -1.835938 10.140625 -1.890625 Z M 10.140625 -1.890625 "/></g></g></g><g fill="#000000" fill-opacity="1"><g transform="translate(337.264394, 145.367656)"><g><path d="M 10.546875 -1.890625 C 10.585938 -1.679688 10.609375 -1.476562 10.609375 -1.28125 C 10.609375 -0.738281 10.457031 -0.347656 10.15625 -0.109375 C 10.007812 0.015625 9.820312 0.0976562 9.59375 0.140625 C 9.363281 0.179688 9.101562 0.203125 8.8125 0.203125 C 8.363281 0.203125 7.988281 0.132812 7.6875 0 C 7.382812 -0.125 7.148438 -0.351562 6.984375 -0.6875 C 6.816406 -1.019531 6.734375 -1.472656 6.734375 -2.046875 L 6.734375 -4.859375 C 6.734375 -5.460938 6.613281 -5.878906 6.375 -6.109375 C 6.132812 -6.347656 5.800781 -6.46875 5.375 -6.46875 C 5.144531 -6.46875 4.90625 -6.421875 4.65625 -6.328125 C 4.414062 -6.234375 4.207031 -6.117188 4.03125 -5.984375 L 4.03125 0.0625 C 3.90625 0.0820312 3.742188 0.0976562 3.546875 0.109375 C 3.347656 0.128906 3.148438 0.140625 2.953125 0.140625 C 2.503906 0.140625 2.15625 0.0976562 1.90625 0.015625 C 1.664062 -0.0664062 1.488281 -0.21875 1.375 -0.4375 C 1.269531 -0.65625 1.21875 -0.96875 1.21875 -1.375 L 1.21875 -5.921875 C 1.21875 -6.171875 1.171875 -6.351562 1.078125 -6.46875 C 0.992188 -6.582031 0.847656 -6.640625 0.640625 -6.640625 C 0.484375 -6.640625 0.347656 -6.625 0.234375 -6.59375 C 0.179688 -6.757812 0.15625 -6.960938 0.15625 -7.203125 C 0.15625 -7.710938 0.300781 -8.078125 0.59375 -8.296875 C 0.894531 -8.546875 1.347656 -8.671875 1.953125 -8.671875 C 2.441406 -8.671875 2.835938 -8.59375 3.140625 -8.4375 C 3.453125 -8.28125 3.6875 -8.019531 3.84375 -7.65625 C 4.125 -7.988281 4.488281 -8.253906 4.9375 -8.453125 C 5.394531 -8.660156 5.890625 -8.765625 6.421875 -8.765625 C 8.503906 -8.765625 9.546875 -7.535156 9.546875 -5.078125 L 9.546875 -2.5625 C 9.546875 -2.289062 9.585938 -2.097656 9.671875 -1.984375 C 9.753906 -1.878906 9.898438 -1.828125 10.109375 -1.828125 C 10.285156 -1.828125 10.429688 -1.847656 10.546875 -1.890625 Z M 10.546875 -1.890625 "/></g></g></g><g fill="#000000" fill-opacity="1"><g transform="translate(347.949822, 145.367656)"><g><path d="M 10.421875 -1.890625 C 10.441406 -1.785156 10.457031 -1.679688 10.46875 -1.578125 C 10.488281 -1.484375 10.5 -1.382812 10.5 -1.28125 C 10.5 -0.75 10.347656 -0.359375 10.046875 -0.109375 C 9.890625 0.015625 9.695312 0.0976562 9.46875 0.140625 C 9.238281 0.179688 8.976562 0.203125 8.6875 0.203125 C 8.21875 0.203125 7.828125 0.132812 7.515625 0 C 7.210938 -0.144531 6.984375 -0.394531 6.828125 -0.75 C 6.515625 -0.414062 6.140625 -0.164062 5.703125 0 C 5.273438 0.164062 4.804688 0.25 4.296875 0.25 C 3.617188 0.25 2.992188 0.078125 2.421875 -0.265625 C 1.847656 -0.617188 1.394531 -1.132812 1.0625 -1.8125 C 0.726562 -2.488281 0.5625 -3.296875 0.5625 -4.234375 C 0.5625 -5.179688 0.734375 -6 1.078125 -6.6875 C 1.429688 -7.375 1.898438 -7.890625 2.484375 -8.234375 C 3.066406 -8.585938 3.707031 -8.765625 4.40625 -8.765625 C 4.820312 -8.765625 5.210938 -8.695312 5.578125 -8.5625 C 5.953125 -8.425781 6.296875 -8.222656 6.609375 -7.953125 L 6.609375 -11.71875 C 6.691406 -11.738281 6.847656 -11.757812 7.078125 -11.78125 C 7.304688 -11.800781 7.515625 -11.8125 7.703125 -11.8125 C 8.148438 -11.8125 8.492188 -11.765625 8.734375 -11.671875 C 8.984375 -11.585938 9.160156 -11.4375 9.265625 -11.21875 C 9.378906 -11 9.4375 -10.6875 9.4375 -10.28125 L 9.4375 -2.5625 C 9.4375 -2.289062 9.472656 -2.097656 9.546875 -1.984375 C 9.617188 -1.878906 9.765625 -1.828125 9.984375 -1.828125 C 10.148438 -1.828125 10.296875 -1.847656 10.421875 -1.890625 Z M 3.40625 -4.25 C 3.40625 -3.789062 3.484375 -3.394531 3.640625 -3.0625 C 3.796875 -2.726562 4.007812 -2.472656 4.28125 -2.296875 C 4.5625 -2.128906 4.875 -2.046875 5.21875 -2.046875 C 5.476562 -2.046875 5.722656 -2.085938 5.953125 -2.171875 C 6.191406 -2.253906 6.410156 -2.378906 6.609375 -2.546875 L 6.609375 -5.96875 C 6.203125 -6.300781 5.734375 -6.46875 5.203125 -6.46875 C 4.847656 -6.46875 4.535156 -6.378906 4.265625 -6.203125 C 4.003906 -6.035156 3.796875 -5.78125 3.640625 -5.4375 C 3.484375 -5.101562 3.40625 -4.707031 3.40625 -4.25 Z M 3.40625 -4.25 "/></g></g></g><g fill="#000000" fill-opacity="1"><g transform="translate(358.603264, 145.367656)"><g><path d="M 4.03125 0.25 C 3.4375 0.25 2.878906 0.191406 2.359375 0.078125 C 1.835938 -0.0234375 1.40625 -0.175781 1.0625 -0.375 C 0.863281 -0.476562 0.71875 -0.59375 0.625 -0.71875 C 0.539062 -0.851562 0.5 -1.015625 0.5 -1.203125 C 0.5 -1.546875 0.707031 -1.992188 1.125 -2.546875 C 1.457031 -2.296875 1.878906 -2.09375 2.390625 -1.9375 C 2.898438 -1.78125 3.421875 -1.703125 3.953125 -1.703125 C 4.910156 -1.703125 5.390625 -1.984375 5.390625 -2.546875 C 5.390625 -2.703125 5.335938 -2.832031 5.234375 -2.9375 C 5.140625 -3.039062 4.988281 -3.125 4.78125 -3.1875 C 4.582031 -3.25 4.296875 -3.304688 3.921875 -3.359375 C 3.253906 -3.460938 2.6875 -3.601562 2.21875 -3.78125 C 1.75 -3.96875 1.367188 -4.242188 1.078125 -4.609375 C 0.785156 -4.984375 0.640625 -5.472656 0.640625 -6.078125 C 0.640625 -6.628906 0.796875 -7.109375 1.109375 -7.515625 C 1.421875 -7.921875 1.867188 -8.226562 2.453125 -8.4375 C 3.046875 -8.65625 3.742188 -8.765625 4.546875 -8.765625 C 5.546875 -8.765625 6.382812 -8.59375 7.0625 -8.25 C 7.3125 -8.144531 7.492188 -8.019531 7.609375 -7.875 C 7.734375 -7.726562 7.796875 -7.566406 7.796875 -7.390625 C 7.796875 -7.210938 7.738281 -7.015625 7.625 -6.796875 C 7.519531 -6.585938 7.375 -6.347656 7.1875 -6.078125 C 6.851562 -6.316406 6.441406 -6.503906 5.953125 -6.640625 C 5.472656 -6.773438 4.988281 -6.84375 4.5 -6.84375 C 4.101562 -6.84375 3.796875 -6.773438 3.578125 -6.640625 C 3.367188 -6.515625 3.265625 -6.335938 3.265625 -6.109375 C 3.265625 -5.953125 3.3125 -5.816406 3.40625 -5.703125 C 3.507812 -5.597656 3.660156 -5.515625 3.859375 -5.453125 C 4.066406 -5.390625 4.351562 -5.332031 4.71875 -5.28125 C 5.375 -5.1875 5.941406 -5.050781 6.421875 -4.875 C 6.910156 -4.707031 7.3125 -4.4375 7.625 -4.0625 C 7.9375 -3.695312 8.09375 -3.207031 8.09375 -2.59375 C 8.09375 -2.019531 7.941406 -1.519531 7.640625 -1.09375 C 7.335938 -0.664062 6.882812 -0.332031 6.28125 -0.09375 C 5.675781 0.132812 4.925781 0.25 4.03125 0.25 Z M 4.03125 0.25 "/></g></g></g><g fill="#000000" fill-opacity="1"><g transform="translate(312.967604, 167.117655)"><g><path d="M 10.890625 -0.28125 C 10.648438 -0.113281 10.378906 0.0234375 10.078125 0.140625 C 9.785156 0.253906 9.519531 0.3125 9.28125 0.3125 C 9 0.3125 8.773438 0.265625 8.609375 0.171875 C 8.441406 0.078125 8.242188 -0.101562 8.015625 -0.375 L 7.765625 -0.65625 C 7.304688 -0.375 6.8125 -0.160156 6.28125 -0.015625 C 5.75 0.117188 5.191406 0.1875 4.609375 0.1875 C 3.765625 0.1875 3.03125 0.0625 2.40625 -0.1875 C 1.789062 -0.4375 1.316406 -0.796875 0.984375 -1.265625 C 0.648438 -1.734375 0.484375 -2.289062 0.484375 -2.9375 C 0.484375 -3.625 0.664062 -4.21875 1.03125 -4.71875 C 1.40625 -5.21875 2.003906 -5.707031 2.828125 -6.1875 C 2.316406 -6.757812 1.96875 -7.253906 1.78125 -7.671875 C 1.59375 -8.085938 1.5 -8.515625 1.5 -8.953125 C 1.5 -9.523438 1.660156 -10.023438 1.984375 -10.453125 C 2.304688 -10.878906 2.742188 -11.207031 3.296875 -11.4375 C 3.847656 -11.664062 4.472656 -11.78125 5.171875 -11.78125 C 5.835938 -11.78125 6.4375 -11.664062 6.96875 -11.4375 C 7.507812 -11.21875 7.929688 -10.898438 8.234375 -10.484375 C 8.535156 -10.066406 8.6875 -9.585938 8.6875 -9.046875 C 8.6875 -8.378906 8.445312 -7.785156 7.96875 -7.265625 C 7.488281 -6.753906 6.820312 -6.265625 5.96875 -5.796875 L 7.96875 -3.546875 C 8.15625 -3.859375 8.3125 -4.207031 8.4375 -4.59375 C 8.570312 -4.976562 8.695312 -5.445312 8.8125 -6 C 9.070312 -6.039062 9.320312 -6.0625 9.5625 -6.0625 C 10.007812 -6.0625 10.335938 -5.972656 10.546875 -5.796875 C 10.765625 -5.628906 10.875 -5.375 10.875 -5.03125 C 10.875 -4.488281 10.734375 -3.9375 10.453125 -3.375 C 10.179688 -2.820312 9.835938 -2.335938 9.421875 -1.921875 Z M 5.125 -9.828125 C 4.769531 -9.828125 4.484375 -9.726562 4.265625 -9.53125 C 4.046875 -9.332031 3.9375 -9.070312 3.9375 -8.75 C 3.9375 -8.519531 3.992188 -8.28125 4.109375 -8.03125 C 4.234375 -7.78125 4.453125 -7.488281 4.765625 -7.15625 C 5.296875 -7.425781 5.6875 -7.691406 5.9375 -7.953125 C 6.1875 -8.210938 6.3125 -8.492188 6.3125 -8.796875 C 6.3125 -9.109375 6.195312 -9.359375 5.96875 -9.546875 C 5.738281 -9.734375 5.457031 -9.828125 5.125 -9.828125 Z M 4.765625 -1.875 C 5.347656 -1.875 5.875 -2 6.34375 -2.25 L 4.078125 -4.78125 C 3.285156 -4.300781 2.890625 -3.78125 2.890625 -3.21875 C 2.890625 -2.800781 3.054688 -2.472656 3.390625 -2.234375 C 3.734375 -1.992188 4.191406 -1.875 4.765625 -1.875 Z M 4.765625 -1.875 "/></g></g></g><g fill="#000000" fill-opacity="1"><g transform="translate(324.32488, 167.117655)"><g/></g></g><g fill="#000000" fill-opacity="1"><g transform="translate(327.84403, 167.117655)"><g><path d="M 8.234375 -2.796875 C 8.429688 -2.628906 8.578125 -2.4375 8.671875 -2.21875 C 8.765625 -2 8.8125 -1.773438 8.8125 -1.546875 C 8.8125 -0.984375 8.5 -0.5625 7.875 -0.28125 C 7.5625 -0.125 7.175781 0 6.71875 0.09375 C 6.257812 0.195312 5.765625 0.25 5.234375 0.25 C 4.273438 0.25 3.441406 0.0664062 2.734375 -0.296875 C 2.035156 -0.660156 1.5 -1.179688 1.125 -1.859375 C 0.75 -2.535156 0.5625 -3.328125 0.5625 -4.234375 C 0.5625 -5.203125 0.757812 -6.023438 1.15625 -6.703125 C 1.550781 -7.378906 2.09375 -7.890625 2.78125 -8.234375 C 3.46875 -8.585938 4.253906 -8.765625 5.140625 -8.765625 C 5.867188 -8.765625 6.53125 -8.648438 7.125 -8.421875 C 7.71875 -8.203125 8.1875 -7.878906 8.53125 -7.453125 C 8.882812 -7.023438 9.0625 -6.519531 9.0625 -5.9375 C 9.0625 -5.101562 8.726562 -4.460938 8.0625 -4.015625 C 7.40625 -3.578125 6.410156 -3.359375 5.078125 -3.359375 C 4.492188 -3.359375 3.894531 -3.414062 3.28125 -3.53125 C 3.5625 -2.476562 4.335938 -1.953125 5.609375 -1.953125 C 6.171875 -1.953125 6.664062 -2.035156 7.09375 -2.203125 C 7.519531 -2.367188 7.898438 -2.566406 8.234375 -2.796875 Z M 5.1875 -6.78125 C 4.882812 -6.78125 4.59375 -6.71875 4.3125 -6.59375 C 4.039062 -6.476562 3.804688 -6.289062 3.609375 -6.03125 C 3.410156 -5.769531 3.28125 -5.453125 3.21875 -5.078125 C 3.675781 -4.984375 4.171875 -4.9375 4.703125 -4.9375 C 5.304688 -4.9375 5.753906 -5.003906 6.046875 -5.140625 C 6.335938 -5.285156 6.484375 -5.53125 6.484375 -5.875 C 6.484375 -6.144531 6.363281 -6.363281 6.125 -6.53125 C 5.882812 -6.695312 5.570312 -6.78125 5.1875 -6.78125 Z M 5.1875 -6.78125 "/></g></g></g><g fill="#000000" fill-opacity="1"><g transform="translate(337.665669, 167.117655)"><g><path d="M 10.546875 -1.890625 C 10.585938 -1.679688 10.609375 -1.476562 10.609375 -1.28125 C 10.609375 -0.738281 10.457031 -0.347656 10.15625 -0.109375 C 10.007812 0.015625 9.820312 0.0976562 9.59375 0.140625 C 9.363281 0.179688 9.101562 0.203125 8.8125 0.203125 C 8.363281 0.203125 7.988281 0.132812 7.6875 0 C 7.382812 -0.125 7.148438 -0.351562 6.984375 -0.6875 C 6.816406 -1.019531 6.734375 -1.472656 6.734375 -2.046875 L 6.734375 -4.859375 C 6.734375 -5.460938 6.613281 -5.878906 6.375 -6.109375 C 6.132812 -6.347656 5.800781 -6.46875 5.375 -6.46875 C 5.144531 -6.46875 4.90625 -6.421875 4.65625 -6.328125 C 4.414062 -6.234375 4.207031 -6.117188 4.03125 -5.984375 L 4.03125 0.0625 C 3.90625 0.0820312 3.742188 0.0976562 3.546875 0.109375 C 3.347656 0.128906 3.148438 0.140625 2.953125 0.140625 C 2.503906 0.140625 2.15625 0.0976562 1.90625 0.015625 C 1.664062 -0.0664062 1.488281 -0.21875 1.375 -0.4375 C 1.269531 -0.65625 1.21875 -0.96875 1.21875 -1.375 L 1.21875 -5.921875 C 1.21875 -6.171875 1.171875 -6.351562 1.078125 -6.46875 C 0.992188 -6.582031 0.847656 -6.640625 0.640625 -6.640625 C 0.484375 -6.640625 0.347656 -6.625 0.234375 -6.59375 C 0.179688 -6.757812 0.15625 -6.960938 0.15625 -7.203125 C 0.15625 -7.710938 0.300781 -8.078125 0.59375 -8.296875 C 0.894531 -8.546875 1.347656 -8.671875 1.953125 -8.671875 C 2.441406 -8.671875 2.835938 -8.59375 3.140625 -8.4375 C 3.453125 -8.28125 3.6875 -8.019531 3.84375 -7.65625 C 4.125 -7.988281 4.488281 -8.253906 4.9375 -8.453125 C 5.394531 -8.660156 5.890625 -8.765625 6.421875 -8.765625 C 8.503906 -8.765625 9.546875 -7.535156 9.546875 -5.078125 L 9.546875 -2.5625 C 9.546875 -2.289062 9.585938 -2.097656 9.671875 -1.984375 C 9.753906 -1.878906 9.898438 -1.828125 10.109375 -1.828125 C 10.285156 -1.828125 10.429688 -1.847656 10.546875 -1.890625 Z M 10.546875 -1.890625 "/></g></g></g><g fill="#000000" fill-opacity="1"><g transform="translate(348.351098, 167.117655)"><g><path d="M 10.421875 -1.890625 C 10.441406 -1.785156 10.457031 -1.679688 10.46875 -1.578125 C 10.488281 -1.484375 10.5 -1.382812 10.5 -1.28125 C 10.5 -0.75 10.347656 -0.359375 10.046875 -0.109375 C 9.890625 0.015625 9.695312 0.0976562 9.46875 0.140625 C 9.238281 0.179688 8.976562 0.203125 8.6875 0.203125 C 8.21875 0.203125 7.828125 0.132812 7.515625 0 C 7.210938 -0.144531 6.984375 -0.394531 6.828125 -0.75 C 6.515625 -0.414062 6.140625 -0.164062 5.703125 0 C 5.273438 0.164062 4.804688 0.25 4.296875 0.25 C 3.617188 0.25 2.992188 0.078125 2.421875 -0.265625 C 1.847656 -0.617188 1.394531 -1.132812 1.0625 -1.8125 C 0.726562 -2.488281 0.5625 -3.296875 0.5625 -4.234375 C 0.5625 -5.179688 0.734375 -6 1.078125 -6.6875 C 1.429688 -7.375 1.898438 -7.890625 2.484375 -8.234375 C 3.066406 -8.585938 3.707031 -8.765625 4.40625 -8.765625 C 4.820312 -8.765625 5.210938 -8.695312 5.578125 -8.5625 C 5.953125 -8.425781 6.296875 -8.222656 6.609375 -7.953125 L 6.609375 -11.71875 C 6.691406 -11.738281 6.847656 -11.757812 7.078125 -11.78125 C 7.304688 -11.800781 7.515625 -11.8125 7.703125 -11.8125 C 8.148438 -11.8125 8.492188 -11.765625 8.734375 -11.671875 C 8.984375 -11.585938 9.160156 -11.4375 9.265625 -11.21875 C 9.378906 -11 9.4375 -10.6875 9.4375 -10.28125 L 9.4375 -2.5625 C 9.4375 -2.289062 9.472656 -2.097656 9.546875 -1.984375 C 9.617188 -1.878906 9.765625 -1.828125 9.984375 -1.828125 C 10.148438 -1.828125 10.296875 -1.847656 10.421875 -1.890625 Z M 3.40625 -4.25 C 3.40625 -3.789062 3.484375 -3.394531 3.640625 -3.0625 C 3.796875 -2.726562 4.007812 -2.472656 4.28125 -2.296875 C 4.5625 -2.128906 4.875 -2.046875 5.21875 -2.046875 C 5.476562 -2.046875 5.722656 -2.085938 5.953125 -2.171875 C 6.191406 -2.253906 6.410156 -2.378906 6.609375 -2.546875 L 6.609375 -5.96875 C 6.203125 -6.300781 5.734375 -6.46875 5.203125 -6.46875 C 4.847656 -6.46875 4.535156 -6.378906 4.265625 -6.203125 C 4.003906 -6.035156 3.796875 -5.78125 3.640625 -5.4375 C 3.484375 -5.101562 3.40625 -4.707031 3.40625 -4.25 Z M 3.40625 -4.25 "/></g></g></g></svg>