<svg xmlns="http://www.w3.org/2000/svg" version="1.1" viewBox="-5.0 -10.0 110.0 135.0">
 <g>
  <path d="m47.43 26.035c4 1.3555 8.3555-0.82031 9.7148-4.8203 1.3555-4-0.82031-8.3555-4.8203-9.7148-4-1.3555-8.3555 0.82031-9.7148 4.8203-1.3555 4 0.82031 8.3555 4.8203 9.7148z"/>
  <path d="m85.145 69.215s-9.2852-11.145-13.465-15.785l-14.43 3.3945 7.8203 3.2852c1.0703 0.35547 1.9648 1.1445 2.4297 2.1055l10.715 21.93c1.8203 3.6445-3.5 6.6797-5.7148 3.25 0 0-9.2148-14-12.355-18.785l-22.535-8.2852c2.4297-0.5 4.9648-0.85547 7.5-0.92969 1-0.035156 1.7852-0.85547 1.75-1.8945-0.035156-1-0.96484-1.75-1.8945-1.75-9.6445 0.32031-18.645 3.8945-25.535 7.6797h-0.28516c-0.64453 0-1.2852-0.32031-1.6055-0.92969-0.46484-0.89453-0.14453-2 0.71484-2.4648 4.9297-2.7148 9.7852-4.6797 14.465-5.9648l-2.1445-17.75-6.1797 3.1797-5.8203 13.215c-1.6797 3.8203-7.5352 1.7148-6.3945-2.2852l4.4297-15.82c0.32031-1.1797 1.1797-2.0352 2.2148-2.5l13.855-7.1445c1.1445-0.57031 2.3945-0.64453 3.5-0.25 0.32031 0 20.465 5.6445 23.895 6.6055l10.215-5c3.6797-1.7852 6.8203 3.4648 3.5 5.8203l-10.965 7.9297c-0.96484 0.71484-2.1445 0.85547-3.2148 0.57031l-0.35547-0.10547-9.8555-2.75 1.2148 10 21.965-3.0703c1.6055-0.32031 3.25 0.35547 4.1055 1.6445l14.145 18.68c2.5352 3.6797-2.9297 7.6797-5.6797 4.1445z"/>
  <path d="m23.145 67.355c-8.1797 3.6797-13.645 7.75-13.855 7.9297-0.78516 0.60547-0.96484 1.75-0.35547 2.5352 0.35547 0.46484 0.89453 0.71484 1.4648 0.71484 0.39453 0 0.75-0.10547 1.1055-0.35547 0.035156-0.035157 5.3945-4.0352 13.18-7.5352 0.92969-0.42969 1.3203-1.5 0.92969-2.3945-0.42969-0.92969-1.5-1.3203-2.3945-0.92969z"/>
 </g>
<text x="0.0" y="117.5" font-size="5.0" font-weight="bold" font-family="Arbeit Regular, Helvetica, Arial-Unicode, Arial, Sans-serif" fill="#000000">Created by Iconographer</text><text x="0.0" y="122.5" font-size="5.0" font-weight="bold" font-family="Arbeit Regular, Helvetica, Arial-Unicode, Arial, Sans-serif" fill="#000000">from Noun Project</text></svg>