<svg xmlns="http://www.w3.org/2000/svg" version="1.1" viewBox="-5.0 -10.0 110.0 135.0">
 <path d="m56.988 23.438c1.4844-1.6602 2.3867-3.8477 2.3867-6.25 0-5.1758-4.1953-9.375-9.375-9.375s-9.375 4.1992-9.375 9.375c0 2.4023 0.90234 4.5898 2.3867 6.25h-10.199c0-2.5898-2.0977-4.6875-4.6875-4.6875s-4.6875 2.0977-4.6875 4.6875h-12.5c-0.86328 0-1.5625 0.69922-1.5625 1.5625s0.69922 1.5625 1.5625 1.5625h12.5v11.535c0 4.6445 4.8906 7.668 9.0469 5.5898l8.1406-4.0703v13.445c-0.003906 0.17578 0.003906 0.35156 0.023438 0.52734l1.3945 13.949c0.027343 0.27734-0.019531 0.55469-0.13281 0.80469l-7.1133 15.652c-1.0742 2.3594-0.03125 5.1367 2.3242 6.207 2.3594 1.0742 5.1367 0.03125 6.207-2.3242l7.1172-15.656c0.80078-1.7578 1.1172-3.6953 0.92578-5.6133l-1.2344-12.367c0.015625 0.078124 0.039062 0.15234 0.0625 0.23047l4.1719 13.91c0.082031 0.28125 0.085937 0.57813 0.011718 0.85938l-4.2188 15.461c-0.67969 2.5 0.79297 5.0742 3.2891 5.7578 2.5 0.67969 5.0742-0.79297 5.7578-3.2891l4.2148-15.461c0.53906-1.9766 0.51172-4.0625-0.074219-6.0234l-3.9766-13.25v-12.82l10.402 5.1992c1.4531 0.72656 3.1797 0.64844 4.5625-0.20312 1.3828-0.85547 2.2227-2.3633 2.2227-3.9883v-14.062h12.5c0.86328 0 1.5625-0.69922 1.5625-1.5625s-0.69922-1.5625-1.5625-1.5625h-12.5c0-2.5898-2.0977-4.6875-4.6875-4.6875s-4.6875 2.0977-4.6875 4.6875zm-24.176 3.125v6.4766l5.0547-2.5273c1.0859-0.54297 2.2812-0.82422 3.4922-0.82422h18.023c0.72266 0 1.4375 0.17188 2.0898 0.49609l5.7148 2.8555v-6.4766z" fill-rule="evenodd"/>
<text x="0.0" y="117.5" font-size="5.0" font-weight="bold" font-family="Arbeit Regular, Helvetica, Arial-Unicode, Arial, Sans-serif" fill="#000000">Created by SeungJun</text><text x="0.0" y="122.5" font-size="5.0" font-weight="bold" font-family="Arbeit Regular, Helvetica, Arial-Unicode, Arial, Sans-serif" fill="#000000">from Noun Project</text></svg>