<svg xmlns="http://www.w3.org/2000/svg" viewBox="0 0 325.03 451.03749999999997" x="0px" y="0px"><g data-name="Livello 2"><g data-name="Livello 1"><path d="M0,198.32C0,288,72.85,360.83,162.52,360.83S325,288,325,198.32A161.91,161.91,0,0,0,277.7,83.75L290.48,71l5.91,5.93a12.82,12.82,0,0,0,18.06,0,12.8,12.8,0,0,0,0-18.06L284.87,29.27a12.77,12.77,0,0,0-18.06,18.05l5.91,5.92-14,14A161,161,0,0,0,175.6,36.42V25.53h28.31a12.63,12.63,0,0,0,12.78-12.76A12.64,12.64,0,0,0,203.91,0h-84A12.64,12.64,0,0,0,107.1,12.77a12.63,12.63,0,0,0,12.77,12.76h30.19V36.42C66,43,0,113,0,198.32Zm162.52-137c75.65,0,137.29,61.64,137.29,137.29s-61.64,137.3-137.29,137.3-137.3-61.65-137.3-137.3A137.31,137.31,0,0,1,162.52,61.34Z"/><path d="M162.52,208.9H217a12.76,12.76,0,0,0,0-25.52H175.28v-65.7a12.77,12.77,0,0,0-25.53,0v78.77a12.57,12.57,0,0,0,12.77,12.45Z"/></g></g><text x="0" y="375.83" fill="#000000" font-size="5px" font-weight="bold" font-family="'Helvetica Neue', Helvetica, Arial-Unicode, Arial, Sans-serif">Created by Nicola Galluzzi</text><text x="0" y="380.83" fill="#000000" font-size="5px" font-weight="bold" font-family="'Helvetica Neue', Helvetica, Arial-Unicode, Arial, Sans-serif">from the Noun Project</text></svg>