<svg xmlns="http://www.w3.org/2000/svg" xmlns:xlink="http://www.w3.org/1999/xlink" version="1.1" x="0px" y="0px" viewBox="0 0 96 120" enable-background="new 0 0 96 96" xml:space="preserve"><g><circle fill="#000000" cx="56.616" cy="25.742" r="10.512"/><path fill="#000000" d="M80.416,65.107H31.423l9.401-17.864l14.738,14.733c2.259,2.254,6.17,2.006,8.734-0.561   c2.564-2.565,2.813-6.477,0.555-8.734L46.265,34.103c-0.292-0.292-0.612-0.537-0.953-0.746c-0.646-2.484-2.267-4.706-4.718-5.995   c-4.624-2.434-10.345-0.658-12.779,3.967L9.09,66.912c-2.432,4.624-0.656,10.347,3.968,12.779c2.375,1.251,5.033,1.374,7.392,0.588   h59.967c4.188,0,7.584-3.396,7.584-7.587C88,68.504,84.604,65.107,80.416,65.107z"/></g><text x="0" y="111" fill="#000000" font-size="5px" font-weight="bold" font-family="'Helvetica Neue', Helvetica, Arial-Unicode, Arial, Sans-serif">Created by Fahmihorizon</text><text x="0" y="116" fill="#000000" font-size="5px" font-weight="bold" font-family="'Helvetica Neue', Helvetica, Arial-Unicode, Arial, Sans-serif">from the Noun Project</text></svg>