<svg xmlns="http://www.w3.org/2000/svg" version="1.1" viewBox="-5.0 -10.0 110.0 135.0">
 <path d="m89.062 26.562c0 4.3086-3.5039 7.8125-7.8125 7.8125h-4.5625c2.1641 3.7344 6.1914 6.25 10.812 6.25 6.9023 0 12.5-5.5977 12.5-12.5s-5.5977-12.5-12.5-12.5c-3.1641 0-6.0469 1.1875-8.25 3.125h2c4.3086 0 7.8125 3.5039 7.8125 7.8125z"/>
 <path d="m0 78.125h100v6.25h-100z"/>
 <path d="m24.836 58.625s12.324 14.809 13.703 16.375h13.562l23.25-23.027c3.6797-3.6445 3.707-9.5781 0.0625-13.258-0.42969-0.43359-0.89453-0.80859-1.3828-1.1406l-5.6914-6.3242h12.914c2.5898 0 4.6875-2.0977 4.6875-4.6875s-2.0977-4.6875-4.6875-4.6875h-23.438c-1.8516 0-3.5312 1.0898-4.2812 2.7812-0.75391 1.6914-0.44141 3.668 0.79688 5.043l7.9609 8.8438c-0.042969 0.039062-0.09375 0.070312-0.13672 0.10938l-22.812 22.598-10.758-12.715c-0.86719-1.0234-2.1289-1.6289-3.4688-1.6602-1.3789-0.070312-2.6328 0.51562-3.543 1.4961l-21.574 21.879v4.75h9.6328z"/>
<text x="0.0" y="117.5" font-size="5.0" font-weight="bold" font-family="Arbeit Regular, Helvetica, Arial-Unicode, Arial, Sans-serif" fill="#000000">Created by Berkah Icon</text><text x="0.0" y="122.5" font-size="5.0" font-weight="bold" font-family="Arbeit Regular, Helvetica, Arial-Unicode, Arial, Sans-serif" fill="#000000">from Noun Project</text></svg>