<svg xmlns="http://www.w3.org/2000/svg" xmlns:xlink="http://www.w3.org/1999/xlink" width="600" zoomAndPan="magnify" viewBox="0 0 450 225" height="300" preserveAspectRatio="xMidYMid meet" version="1.0"><defs><g/><clipPath id="eb87435d06"><path d="M 22.5 17.269531 L 335.910156 17.269531 L 335.910156 202.5 L 22.5 202.5 Z M 22.5 17.269531 " clip-rule="nonzero"/></clipPath><clipPath id="ac76257b21"><path d="M 179.203125 17.269531 C 265.746094 17.269531 335.910156 58.722656 335.910156 109.886719 C 335.910156 161.046875 265.746094 202.5 179.203125 202.5 C 92.664062 202.5 22.5 161.046875 22.5 109.886719 C 22.5 58.722656 92.664062 17.269531 179.203125 17.269531 Z M 179.203125 17.269531 " clip-rule="nonzero"/></clipPath><clipPath id="123441b9ac"><path d="M 0.5 0.269531 L 313.910156 0.269531 L 313.910156 185.5 L 0.5 185.5 Z M 0.5 0.269531 " clip-rule="nonzero"/></clipPath><clipPath id="b6b510b22f"><path d="M 157.203125 0.269531 C 243.746094 0.269531 313.910156 41.722656 313.910156 92.886719 C 313.910156 144.046875 243.746094 185.5 157.203125 185.5 C 70.664062 185.5 0.5 144.046875 0.5 92.886719 C 0.5 41.722656 70.664062 0.269531 157.203125 0.269531 Z M 157.203125 0.269531 " clip-rule="nonzero"/></clipPath><clipPath id="653ec6e7e2"><rect x="0" width="314" y="0" height="186"/></clipPath><clipPath id="d437bb207a"><path d="M 22.5 17.269531 L 335.90625 17.269531 L 335.90625 202.496094 L 22.5 202.496094 Z M 22.5 17.269531 " clip-rule="nonzero"/></clipPath><clipPath id="7c6637695d"><path d="M 179.203125 17.269531 C 265.742188 17.269531 335.90625 58.722656 335.90625 109.882812 C 335.90625 161.042969 265.742188 202.496094 179.203125 202.496094 C 92.664062 202.496094 22.5 161.042969 22.5 109.882812 C 22.5 58.722656 92.664062 17.269531 179.203125 17.269531 Z M 179.203125 17.269531 " clip-rule="nonzero"/></clipPath><clipPath id="6c0361efc9"><path d="M 48.414062 36.207031 L 309.996094 36.207031 L 309.996094 183.792969 L 48.414062 183.792969 Z M 48.414062 36.207031 " clip-rule="nonzero"/></clipPath><clipPath id="2e6eddaa68"><path d="M 179.203125 36.207031 C 251.433594 36.207031 309.996094 69.1875 309.996094 109.886719 C 309.996094 150.582031 251.433594 183.5625 179.203125 183.5625 C 106.976562 183.5625 48.414062 150.582031 48.414062 109.886719 C 48.414062 69.1875 106.976562 36.207031 179.203125 36.207031 Z M 179.203125 36.207031 " clip-rule="nonzero"/></clipPath><clipPath id="7eacfc141e"><path d="M 0.414062 0.207031 L 261.996094 0.207031 L 261.996094 147.601562 L 0.414062 147.601562 Z M 0.414062 0.207031 " clip-rule="nonzero"/></clipPath><clipPath id="6c1a1e5708"><path d="M 131.203125 0.207031 C 203.433594 0.207031 261.996094 33.1875 261.996094 73.886719 C 261.996094 114.582031 203.433594 147.5625 131.203125 147.5625 C 58.976562 147.5625 0.414062 114.582031 0.414062 73.886719 C 0.414062 33.1875 58.976562 0.207031 131.203125 0.207031 Z M 131.203125 0.207031 " clip-rule="nonzero"/></clipPath><clipPath id="ef8a172f1b"><rect x="0" width="262" y="0" height="148"/></clipPath><clipPath id="9de14b4200"><path d="M 48.414062 36.210938 L 310 36.210938 L 310 183.207031 L 48.414062 183.207031 Z M 48.414062 36.210938 " clip-rule="nonzero"/></clipPath><clipPath id="b613b718c5"><path d="M 179.199219 36.210938 C 251.425781 36.210938 309.988281 69.1875 309.988281 109.882812 C 309.988281 150.582031 251.425781 183.558594 179.199219 183.558594 C 106.972656 183.558594 48.414062 150.582031 48.414062 109.882812 C 48.414062 69.1875 106.972656 36.210938 179.199219 36.210938 Z M 179.199219 36.210938 " clip-rule="nonzero"/></clipPath><clipPath id="89998e5090"><path d="M 39 136 L 65 136 L 65 162 L 39 162 Z M 39 136 " clip-rule="nonzero"/></clipPath><clipPath id="c2e823ee30"><path d="M 64.414062 140.28125 L 43.203125 161.492188 L 39.488281 157.78125 L 60.703125 136.566406 Z M 64.414062 140.28125 " clip-rule="nonzero"/></clipPath><clipPath id="220d74f23e"><path d="M 64.414062 140.28125 L 43.203125 161.492188 L 39.488281 157.78125 L 60.703125 136.566406 Z M 64.414062 140.28125 " clip-rule="nonzero"/></clipPath><clipPath id="9c119d6fa4"><path d="M 64.414062 140.28125 L 43.203125 161.492188 L 39.488281 157.78125 L 60.703125 136.566406 Z M 64.414062 140.28125 " clip-rule="nonzero"/></clipPath><clipPath id="aa484414ef"><path d="M 398 171 L 418.613281 171 L 418.613281 185 L 398 185 Z M 398 171 " clip-rule="nonzero"/></clipPath><clipPath id="dbd015c8c2"><path d="M 398 171 L 418.613281 171 L 418.613281 186 L 398 186 Z M 398 171 " clip-rule="nonzero"/></clipPath><clipPath id="a79404e06b"><path d="M 415 174 L 418.613281 174 L 418.613281 178 L 415 178 Z M 415 174 " clip-rule="nonzero"/></clipPath><clipPath id="ec11f701df"><path d="M 396.113281 170 L 402 170 L 402 192.320312 L 396.113281 192.320312 Z M 396.113281 170 " clip-rule="nonzero"/></clipPath><clipPath id="948c057691"><path d="M 400 169.070312 L 402 169.070312 L 402 172 L 400 172 Z M 400 169.070312 " clip-rule="nonzero"/></clipPath><clipPath id="7c9abdca55"><path d="M 400 169.070312 L 403 169.070312 L 403 172 L 400 172 Z M 400 169.070312 " clip-rule="nonzero"/></clipPath><clipPath id="5698060335"><path d="M 26.339844 146.996094 L 48.089844 146.996094 L 48.089844 168.746094 L 26.339844 168.746094 Z M 26.339844 146.996094 " clip-rule="nonzero"/></clipPath></defs><rect x="-45" width="540" fill="#ffffff" y="-22.5" height="270" fill-opacity="1"/><rect x="-45" width="540" fill="#ffffff" y="-22.5" height="270" fill-opacity="1"/><g clip-path="url(#eb87435d06)"><g clip-path="url(#ac76257b21)"><g transform="matrix(1, 0, 0, 1, 22, 17)"><g clip-path="url(#653ec6e7e2)"><g clip-path="url(#123441b9ac)"><g clip-path="url(#b6b510b22f)"><path fill="#ffffff" d="M 0.5 0.269531 L 313.910156 0.269531 L 313.910156 185.5 L 0.5 185.5 Z M 0.5 0.269531 " fill-opacity="1" fill-rule="nonzero"/></g></g></g></g></g></g><g clip-path="url(#d437bb207a)"><g clip-path="url(#7c6637695d)"><path stroke-linecap="butt" transform="matrix(0.75, 0, 0, 0.75, 22.501453, 17.26955)" fill="none" stroke-linejoin="miter" d="M 208.935585 -0.0000254273 C 324.321014 -0.0000254273 417.873107 55.270814 417.873107 123.484363 C 417.873107 191.697911 324.321014 246.968751 208.935585 246.968751 C 93.550156 246.968751 -0.00193731 191.697911 -0.00193731 123.484363 C -0.00193731 55.270814 93.550156 -0.0000254273 208.935585 -0.0000254273 Z M 208.935585 -0.0000254273 " stroke="#000000" stroke-width="8" stroke-opacity="1" stroke-miterlimit="4"/></g></g><g fill="#000000" fill-opacity="1"><g transform="translate(337.807018, 159.175784)"><g><path d="M 4.734375 -1.953125 C 5.367188 -1.953125 5.859375 -2.066406 6.203125 -2.296875 C 6.546875 -2.535156 6.71875 -2.867188 6.71875 -3.296875 C 6.71875 -3.554688 6.644531 -3.765625 6.5 -3.921875 C 6.363281 -4.085938 6.148438 -4.226562 5.859375 -4.34375 C 5.566406 -4.457031 5.160156 -4.5625 4.640625 -4.65625 C 3.398438 -4.894531 2.414062 -5.285156 1.6875 -5.828125 C 0.957031 -6.367188 0.59375 -7.179688 0.59375 -8.265625 C 0.59375 -8.992188 0.785156 -9.617188 1.171875 -10.140625 C 1.554688 -10.671875 2.097656 -11.078125 2.796875 -11.359375 C 3.492188 -11.640625 4.304688 -11.78125 5.234375 -11.78125 C 6.816406 -11.78125 8.003906 -11.503906 8.796875 -10.953125 C 9.171875 -10.710938 9.359375 -10.394531 9.359375 -10 C 9.359375 -9.757812 9.289062 -9.515625 9.15625 -9.265625 C 9.019531 -9.015625 8.820312 -8.773438 8.5625 -8.546875 C 8.09375 -8.878906 7.570312 -9.128906 7 -9.296875 C 6.425781 -9.472656 5.851562 -9.5625 5.28125 -9.5625 C 4.707031 -9.5625 4.253906 -9.453125 3.921875 -9.234375 C 3.597656 -9.023438 3.4375 -8.75 3.4375 -8.40625 C 3.4375 -8.15625 3.488281 -7.945312 3.59375 -7.78125 C 3.707031 -7.625 3.898438 -7.488281 4.171875 -7.375 C 4.453125 -7.269531 4.851562 -7.164062 5.375 -7.0625 C 6.320312 -6.875 7.113281 -6.632812 7.75 -6.34375 C 8.382812 -6.050781 8.875 -5.664062 9.21875 -5.1875 C 9.5625 -4.71875 9.734375 -4.128906 9.734375 -3.421875 C 9.734375 -2.679688 9.539062 -2.035156 9.15625 -1.484375 C 8.769531 -0.929688 8.210938 -0.503906 7.484375 -0.203125 C 6.753906 0.0976562 5.878906 0.25 4.859375 0.25 C 3.253906 0.25 2.003906 -0.0078125 1.109375 -0.53125 C 0.554688 -0.851562 0.28125 -1.21875 0.28125 -1.625 C 0.28125 -2.070312 0.585938 -2.582031 1.203125 -3.15625 C 1.628906 -2.769531 2.148438 -2.472656 2.765625 -2.265625 C 3.378906 -2.054688 4.035156 -1.953125 4.734375 -1.953125 Z M 4.734375 -1.953125 "/></g></g></g><g fill="#000000" fill-opacity="1"><g transform="translate(348.044559, 159.175784)"><g><path d="M 8.234375 -2.796875 C 8.429688 -2.628906 8.578125 -2.4375 8.671875 -2.21875 C 8.765625 -2 8.8125 -1.773438 8.8125 -1.546875 C 8.8125 -0.984375 8.5 -0.5625 7.875 -0.28125 C 7.5625 -0.125 7.175781 0 6.71875 0.09375 C 6.257812 0.195312 5.765625 0.25 5.234375 0.25 C 4.273438 0.25 3.441406 0.0664062 2.734375 -0.296875 C 2.035156 -0.660156 1.5 -1.179688 1.125 -1.859375 C 0.75 -2.535156 0.5625 -3.328125 0.5625 -4.234375 C 0.5625 -5.203125 0.757812 -6.023438 1.15625 -6.703125 C 1.550781 -7.378906 2.09375 -7.890625 2.78125 -8.234375 C 3.46875 -8.585938 4.253906 -8.765625 5.140625 -8.765625 C 5.867188 -8.765625 6.53125 -8.648438 7.125 -8.421875 C 7.71875 -8.203125 8.1875 -7.878906 8.53125 -7.453125 C 8.882812 -7.023438 9.0625 -6.519531 9.0625 -5.9375 C 9.0625 -5.101562 8.726562 -4.460938 8.0625 -4.015625 C 7.40625 -3.578125 6.410156 -3.359375 5.078125 -3.359375 C 4.492188 -3.359375 3.894531 -3.414062 3.28125 -3.53125 C 3.5625 -2.476562 4.335938 -1.953125 5.609375 -1.953125 C 6.171875 -1.953125 6.664062 -2.035156 7.09375 -2.203125 C 7.519531 -2.367188 7.898438 -2.566406 8.234375 -2.796875 Z M 5.1875 -6.78125 C 4.882812 -6.78125 4.59375 -6.71875 4.3125 -6.59375 C 4.039062 -6.476562 3.804688 -6.289062 3.609375 -6.03125 C 3.410156 -5.769531 3.28125 -5.453125 3.21875 -5.078125 C 3.675781 -4.984375 4.171875 -4.9375 4.703125 -4.9375 C 5.304688 -4.9375 5.753906 -5.003906 6.046875 -5.140625 C 6.335938 -5.285156 6.484375 -5.53125 6.484375 -5.875 C 6.484375 -6.144531 6.363281 -6.363281 6.125 -6.53125 C 5.882812 -6.695312 5.570312 -6.78125 5.1875 -6.78125 Z M 5.1875 -6.78125 "/></g></g></g><g fill="#000000" fill-opacity="1"><g transform="translate(357.866198, 159.175784)"><g><path d="M 6.3125 -8.765625 C 7.019531 -8.765625 7.660156 -8.597656 8.234375 -8.265625 C 8.804688 -7.941406 9.257812 -7.441406 9.59375 -6.765625 C 9.925781 -6.085938 10.09375 -5.253906 10.09375 -4.265625 C 10.09375 -3.304688 9.914062 -2.488281 9.5625 -1.8125 C 9.21875 -1.132812 8.742188 -0.617188 8.140625 -0.265625 C 7.535156 0.078125 6.859375 0.25 6.109375 0.25 C 5.703125 0.25 5.320312 0.195312 4.96875 0.09375 C 4.625 -0.0078125 4.3125 -0.15625 4.03125 -0.34375 L 4.03125 2.875 C 3.90625 2.894531 3.738281 2.910156 3.53125 2.921875 C 3.332031 2.941406 3.140625 2.953125 2.953125 2.953125 C 2.503906 2.953125 2.15625 2.910156 1.90625 2.828125 C 1.664062 2.742188 1.488281 2.59375 1.375 2.375 C 1.269531 2.164062 1.21875 1.851562 1.21875 1.4375 L 1.21875 -5.921875 C 1.21875 -6.171875 1.171875 -6.351562 1.078125 -6.46875 C 0.992188 -6.582031 0.847656 -6.640625 0.640625 -6.640625 C 0.484375 -6.640625 0.347656 -6.625 0.234375 -6.59375 C 0.179688 -6.757812 0.15625 -6.960938 0.15625 -7.203125 C 0.15625 -7.710938 0.300781 -8.078125 0.59375 -8.296875 C 0.894531 -8.546875 1.347656 -8.671875 1.953125 -8.671875 C 2.421875 -8.671875 2.804688 -8.597656 3.109375 -8.453125 C 3.421875 -8.304688 3.65625 -8.070312 3.8125 -7.75 C 4.113281 -8.070312 4.476562 -8.320312 4.90625 -8.5 C 5.34375 -8.675781 5.8125 -8.765625 6.3125 -8.765625 Z M 5.4375 -2.046875 C 5.789062 -2.046875 6.101562 -2.128906 6.375 -2.296875 C 6.644531 -2.472656 6.859375 -2.726562 7.015625 -3.0625 C 7.171875 -3.394531 7.25 -3.789062 7.25 -4.25 C 7.25 -4.71875 7.171875 -5.117188 7.015625 -5.453125 C 6.859375 -5.785156 6.644531 -6.035156 6.375 -6.203125 C 6.101562 -6.378906 5.789062 -6.46875 5.4375 -6.46875 C 5.164062 -6.46875 4.90625 -6.421875 4.65625 -6.328125 C 4.414062 -6.242188 4.207031 -6.125 4.03125 -5.96875 L 4.03125 -2.5625 C 4.445312 -2.21875 4.914062 -2.046875 5.4375 -2.046875 Z M 5.4375 -2.046875 "/></g></g></g><g fill="#000000" fill-opacity="1"><g transform="translate(368.51964, 159.175784)"><g><path d="M 10.421875 -1.890625 C 10.441406 -1.785156 10.457031 -1.679688 10.46875 -1.578125 C 10.488281 -1.484375 10.5 -1.382812 10.5 -1.28125 C 10.5 -0.75 10.347656 -0.359375 10.046875 -0.109375 C 9.890625 0.015625 9.695312 0.0976562 9.46875 0.140625 C 9.238281 0.179688 8.976562 0.203125 8.6875 0.203125 C 8.21875 0.203125 7.828125 0.132812 7.515625 0 C 7.210938 -0.144531 6.984375 -0.394531 6.828125 -0.75 C 6.515625 -0.414062 6.140625 -0.164062 5.703125 0 C 5.273438 0.164062 4.804688 0.25 4.296875 0.25 C 3.617188 0.25 2.992188 0.078125 2.421875 -0.265625 C 1.847656 -0.617188 1.394531 -1.132812 1.0625 -1.8125 C 0.726562 -2.488281 0.5625 -3.296875 0.5625 -4.234375 C 0.5625 -5.179688 0.734375 -6 1.078125 -6.6875 C 1.429688 -7.375 1.898438 -7.890625 2.484375 -8.234375 C 3.066406 -8.585938 3.707031 -8.765625 4.40625 -8.765625 C 4.84375 -8.765625 5.257812 -8.6875 5.65625 -8.53125 C 6.050781 -8.375 6.40625 -8.148438 6.71875 -7.859375 C 6.820312 -8.140625 7 -8.34375 7.25 -8.46875 C 7.507812 -8.601562 7.878906 -8.671875 8.359375 -8.671875 C 8.535156 -8.671875 8.722656 -8.660156 8.921875 -8.640625 C 9.128906 -8.617188 9.300781 -8.597656 9.4375 -8.578125 L 9.4375 -2.5625 C 9.4375 -2.289062 9.472656 -2.097656 9.546875 -1.984375 C 9.617188 -1.878906 9.765625 -1.828125 9.984375 -1.828125 C 10.148438 -1.828125 10.296875 -1.847656 10.421875 -1.890625 Z M 3.40625 -4.25 C 3.40625 -3.789062 3.484375 -3.394531 3.640625 -3.0625 C 3.796875 -2.726562 4.007812 -2.472656 4.28125 -2.296875 C 4.5625 -2.128906 4.875 -2.046875 5.21875 -2.046875 C 5.476562 -2.046875 5.722656 -2.085938 5.953125 -2.171875 C 6.191406 -2.253906 6.410156 -2.378906 6.609375 -2.546875 L 6.609375 -5.96875 C 6.203125 -6.300781 5.734375 -6.46875 5.203125 -6.46875 C 4.847656 -6.46875 4.535156 -6.378906 4.265625 -6.203125 C 4.003906 -6.035156 3.796875 -5.78125 3.640625 -5.4375 C 3.484375 -5.101562 3.40625 -4.707031 3.40625 -4.25 Z M 3.40625 -4.25 "/></g></g></g><g fill="#000000" fill-opacity="1"><g transform="translate(379.173082, 159.175784)"><g><path d="M 7.3125 -8.21875 C 7.46875 -8.03125 7.546875 -7.769531 7.546875 -7.4375 C 7.546875 -7.21875 7.507812 -6.972656 7.4375 -6.703125 C 7.375 -6.429688 7.285156 -6.171875 7.171875 -5.921875 C 6.785156 -6.117188 6.34375 -6.21875 5.84375 -6.21875 C 5.5 -6.21875 5.164062 -6.140625 4.84375 -5.984375 C 4.53125 -5.835938 4.257812 -5.625 4.03125 -5.34375 L 4.03125 0.0625 C 3.90625 0.0820312 3.742188 0.0976562 3.546875 0.109375 C 3.347656 0.128906 3.148438 0.140625 2.953125 0.140625 C 2.503906 0.140625 2.15625 0.0976562 1.90625 0.015625 C 1.664062 -0.0664062 1.488281 -0.21875 1.375 -0.4375 C 1.269531 -0.65625 1.21875 -0.96875 1.21875 -1.375 L 1.21875 -5.921875 C 1.21875 -6.171875 1.171875 -6.351562 1.078125 -6.46875 C 0.992188 -6.582031 0.847656 -6.640625 0.640625 -6.640625 C 0.484375 -6.640625 0.347656 -6.625 0.234375 -6.59375 C 0.179688 -6.757812 0.15625 -6.960938 0.15625 -7.203125 C 0.15625 -7.710938 0.300781 -8.078125 0.59375 -8.296875 C 0.894531 -8.546875 1.347656 -8.671875 1.953125 -8.671875 C 2.492188 -8.671875 2.929688 -8.570312 3.265625 -8.375 C 3.597656 -8.175781 3.820312 -7.84375 3.9375 -7.375 C 4.175781 -7.78125 4.492188 -8.085938 4.890625 -8.296875 C 5.285156 -8.515625 5.695312 -8.625 6.125 -8.625 C 6.675781 -8.625 7.070312 -8.488281 7.3125 -8.21875 Z M 7.3125 -8.21875 "/></g></g></g><g fill="#000000" fill-opacity="1"><g transform="translate(387.107179, 159.175784)"><g><path d="M 10.421875 -1.890625 C 10.441406 -1.785156 10.457031 -1.679688 10.46875 -1.578125 C 10.488281 -1.484375 10.5 -1.382812 10.5 -1.28125 C 10.5 -0.75 10.347656 -0.359375 10.046875 -0.109375 C 9.890625 0.015625 9.695312 0.0976562 9.46875 0.140625 C 9.238281 0.179688 8.976562 0.203125 8.6875 0.203125 C 8.21875 0.203125 7.828125 0.132812 7.515625 0 C 7.210938 -0.144531 6.984375 -0.394531 6.828125 -0.75 C 6.515625 -0.414062 6.140625 -0.164062 5.703125 0 C 5.273438 0.164062 4.804688 0.25 4.296875 0.25 C 3.617188 0.25 2.992188 0.078125 2.421875 -0.265625 C 1.847656 -0.617188 1.394531 -1.132812 1.0625 -1.8125 C 0.726562 -2.488281 0.5625 -3.296875 0.5625 -4.234375 C 0.5625 -5.179688 0.734375 -6 1.078125 -6.6875 C 1.429688 -7.375 1.898438 -7.890625 2.484375 -8.234375 C 3.066406 -8.585938 3.707031 -8.765625 4.40625 -8.765625 C 4.84375 -8.765625 5.257812 -8.6875 5.65625 -8.53125 C 6.050781 -8.375 6.40625 -8.148438 6.71875 -7.859375 C 6.820312 -8.140625 7 -8.34375 7.25 -8.46875 C 7.507812 -8.601562 7.878906 -8.671875 8.359375 -8.671875 C 8.535156 -8.671875 8.722656 -8.660156 8.921875 -8.640625 C 9.128906 -8.617188 9.300781 -8.597656 9.4375 -8.578125 L 9.4375 -2.5625 C 9.4375 -2.289062 9.472656 -2.097656 9.546875 -1.984375 C 9.617188 -1.878906 9.765625 -1.828125 9.984375 -1.828125 C 10.148438 -1.828125 10.296875 -1.847656 10.421875 -1.890625 Z M 3.40625 -4.25 C 3.40625 -3.789062 3.484375 -3.394531 3.640625 -3.0625 C 3.796875 -2.726562 4.007812 -2.472656 4.28125 -2.296875 C 4.5625 -2.128906 4.875 -2.046875 5.21875 -2.046875 C 5.476562 -2.046875 5.722656 -2.085938 5.953125 -2.171875 C 6.191406 -2.253906 6.410156 -2.378906 6.609375 -2.546875 L 6.609375 -5.96875 C 6.203125 -6.300781 5.734375 -6.46875 5.203125 -6.46875 C 4.847656 -6.46875 4.535156 -6.378906 4.265625 -6.203125 C 4.003906 -6.035156 3.796875 -5.78125 3.640625 -5.4375 C 3.484375 -5.101562 3.40625 -4.707031 3.40625 -4.25 Z M 3.40625 -4.25 "/></g></g></g><g fill="#000000" fill-opacity="1"><g transform="translate(397.760621, 159.175784)"><g><path d="M 7.0625 -2.65625 C 7.425781 -2.21875 7.609375 -1.796875 7.609375 -1.390625 C 7.609375 -1.171875 7.5625 -0.972656 7.46875 -0.796875 C 7.382812 -0.617188 7.265625 -0.472656 7.109375 -0.359375 C 6.859375 -0.160156 6.53125 -0.0078125 6.125 0.09375 C 5.726562 0.195312 5.328125 0.25 4.921875 0.25 C 2.785156 0.25 1.71875 -0.835938 1.71875 -3.015625 L 1.71875 -6.390625 L 0.171875 -6.390625 C 0.148438 -6.503906 0.132812 -6.648438 0.125 -6.828125 C 0.113281 -7.015625 0.109375 -7.175781 0.109375 -7.3125 C 0.109375 -7.632812 0.132812 -7.878906 0.1875 -8.046875 C 0.25 -8.210938 0.359375 -8.332031 0.515625 -8.40625 C 0.671875 -8.476562 0.898438 -8.515625 1.203125 -8.515625 L 1.71875 -8.515625 L 1.71875 -9.34375 C 1.71875 -9.75 1.769531 -10.066406 1.875 -10.296875 C 1.976562 -10.535156 2.148438 -10.703125 2.390625 -10.796875 C 2.628906 -10.898438 2.957031 -10.953125 3.375 -10.953125 C 3.53125 -10.953125 3.71875 -10.941406 3.9375 -10.921875 C 4.164062 -10.910156 4.359375 -10.894531 4.515625 -10.875 L 4.515625 -8.515625 L 7.28125 -8.515625 C 7.300781 -8.410156 7.316406 -8.265625 7.328125 -8.078125 C 7.347656 -7.890625 7.359375 -7.71875 7.359375 -7.5625 C 7.359375 -7.25 7.328125 -7.007812 7.265625 -6.84375 C 7.210938 -6.675781 7.109375 -6.554688 6.953125 -6.484375 C 6.796875 -6.421875 6.566406 -6.390625 6.265625 -6.390625 L 4.515625 -6.390625 L 4.515625 -3.34375 C 4.515625 -2.476562 4.890625 -2.046875 5.640625 -2.046875 C 5.910156 -2.046875 6.164062 -2.101562 6.40625 -2.21875 C 6.65625 -2.332031 6.875 -2.476562 7.0625 -2.65625 Z M 7.0625 -2.65625 "/></g></g></g><g fill="#000000" fill-opacity="1"><g transform="translate(405.710717, 159.175784)"><g><path d="M 8.234375 -2.796875 C 8.429688 -2.628906 8.578125 -2.4375 8.671875 -2.21875 C 8.765625 -2 8.8125 -1.773438 8.8125 -1.546875 C 8.8125 -0.984375 8.5 -0.5625 7.875 -0.28125 C 7.5625 -0.125 7.175781 0 6.71875 0.09375 C 6.257812 0.195312 5.765625 0.25 5.234375 0.25 C 4.273438 0.25 3.441406 0.0664062 2.734375 -0.296875 C 2.035156 -0.660156 1.5 -1.179688 1.125 -1.859375 C 0.75 -2.535156 0.5625 -3.328125 0.5625 -4.234375 C 0.5625 -5.203125 0.757812 -6.023438 1.15625 -6.703125 C 1.550781 -7.378906 2.09375 -7.890625 2.78125 -8.234375 C 3.46875 -8.585938 4.253906 -8.765625 5.140625 -8.765625 C 5.867188 -8.765625 6.53125 -8.648438 7.125 -8.421875 C 7.71875 -8.203125 8.1875 -7.878906 8.53125 -7.453125 C 8.882812 -7.023438 9.0625 -6.519531 9.0625 -5.9375 C 9.0625 -5.101562 8.726562 -4.460938 8.0625 -4.015625 C 7.40625 -3.578125 6.410156 -3.359375 5.078125 -3.359375 C 4.492188 -3.359375 3.894531 -3.414062 3.28125 -3.53125 C 3.5625 -2.476562 4.335938 -1.953125 5.609375 -1.953125 C 6.171875 -1.953125 6.664062 -2.035156 7.09375 -2.203125 C 7.519531 -2.367188 7.898438 -2.566406 8.234375 -2.796875 Z M 5.1875 -6.78125 C 4.882812 -6.78125 4.59375 -6.71875 4.3125 -6.59375 C 4.039062 -6.476562 3.804688 -6.289062 3.609375 -6.03125 C 3.410156 -5.769531 3.28125 -5.453125 3.21875 -5.078125 C 3.675781 -4.984375 4.171875 -4.9375 4.703125 -4.9375 C 5.304688 -4.9375 5.753906 -5.003906 6.046875 -5.140625 C 6.335938 -5.285156 6.484375 -5.53125 6.484375 -5.875 C 6.484375 -6.144531 6.363281 -6.363281 6.125 -6.53125 C 5.882812 -6.695312 5.570312 -6.78125 5.1875 -6.78125 Z M 5.1875 -6.78125 "/></g></g></g><g fill="#000000" fill-opacity="1"><g transform="translate(360.787486, 180.925783)"><g><path d="M 9.796875 -2.3125 C 9.816406 -2.1875 9.832031 -2.023438 9.84375 -1.828125 C 9.863281 -1.628906 9.875 -1.429688 9.875 -1.234375 C 9.875 -0.898438 9.835938 -0.644531 9.765625 -0.46875 C 9.691406 -0.289062 9.570312 -0.164062 9.40625 -0.09375 C 9.25 -0.03125 9.015625 0 8.703125 0 L 3.21875 0 C 2.707031 0 2.316406 -0.046875 2.046875 -0.140625 C 1.785156 -0.242188 1.601562 -0.421875 1.5 -0.671875 C 1.40625 -0.921875 1.359375 -1.285156 1.359375 -1.765625 L 1.359375 -9.25 L 0.21875 -9.25 C 0.175781 -9.65625 0.15625 -9.988281 0.15625 -10.25 C 0.15625 -10.582031 0.195312 -10.835938 0.28125 -11.015625 C 0.363281 -11.203125 0.488281 -11.332031 0.65625 -11.40625 C 0.832031 -11.476562 1.082031 -11.515625 1.40625 -11.515625 L 9.5625 -11.515625 C 9.582031 -11.410156 9.597656 -11.269531 9.609375 -11.09375 C 9.617188 -10.914062 9.625 -10.734375 9.625 -10.546875 C 9.625 -10.148438 9.59375 -9.859375 9.53125 -9.671875 C 9.46875 -9.484375 9.351562 -9.359375 9.1875 -9.296875 C 9.03125 -9.234375 8.789062 -9.203125 8.46875 -9.203125 L 4.125 -9.203125 L 4.125 -7.015625 L 8 -7.015625 C 8.019531 -6.898438 8.035156 -6.765625 8.046875 -6.609375 C 8.066406 -6.460938 8.078125 -6.300781 8.078125 -6.125 C 8.078125 -5.769531 8.039062 -5.488281 7.96875 -5.28125 C 7.894531 -5.082031 7.769531 -4.9375 7.59375 -4.84375 C 7.414062 -4.757812 7.171875 -4.71875 6.859375 -4.71875 L 4.125 -4.71875 L 4.125 -2.3125 Z M 9.796875 -2.3125 "/></g></g></g><g fill="#000000" fill-opacity="1"><g transform="translate(371.216978, 180.925783)"><g><path d="M 10.546875 -1.890625 C 10.585938 -1.679688 10.609375 -1.476562 10.609375 -1.28125 C 10.609375 -0.738281 10.457031 -0.347656 10.15625 -0.109375 C 10.007812 0.015625 9.820312 0.0976562 9.59375 0.140625 C 9.363281 0.179688 9.101562 0.203125 8.8125 0.203125 C 8.363281 0.203125 7.988281 0.132812 7.6875 0 C 7.382812 -0.125 7.148438 -0.351562 6.984375 -0.6875 C 6.816406 -1.019531 6.734375 -1.472656 6.734375 -2.046875 L 6.734375 -4.859375 C 6.734375 -5.460938 6.613281 -5.878906 6.375 -6.109375 C 6.132812 -6.347656 5.800781 -6.46875 5.375 -6.46875 C 5.144531 -6.46875 4.90625 -6.421875 4.65625 -6.328125 C 4.414062 -6.234375 4.207031 -6.117188 4.03125 -5.984375 L 4.03125 0.0625 C 3.90625 0.0820312 3.742188 0.0976562 3.546875 0.109375 C 3.347656 0.128906 3.148438 0.140625 2.953125 0.140625 C 2.503906 0.140625 2.15625 0.0976562 1.90625 0.015625 C 1.664062 -0.0664062 1.488281 -0.21875 1.375 -0.4375 C 1.269531 -0.65625 1.21875 -0.96875 1.21875 -1.375 L 1.21875 -5.921875 C 1.21875 -6.171875 1.171875 -6.351562 1.078125 -6.46875 C 0.992188 -6.582031 0.847656 -6.640625 0.640625 -6.640625 C 0.484375 -6.640625 0.347656 -6.625 0.234375 -6.59375 C 0.179688 -6.757812 0.15625 -6.960938 0.15625 -7.203125 C 0.15625 -7.710938 0.300781 -8.078125 0.59375 -8.296875 C 0.894531 -8.546875 1.347656 -8.671875 1.953125 -8.671875 C 2.441406 -8.671875 2.835938 -8.59375 3.140625 -8.4375 C 3.453125 -8.28125 3.6875 -8.019531 3.84375 -7.65625 C 4.125 -7.988281 4.488281 -8.253906 4.9375 -8.453125 C 5.394531 -8.660156 5.890625 -8.765625 6.421875 -8.765625 C 8.503906 -8.765625 9.546875 -7.535156 9.546875 -5.078125 L 9.546875 -2.5625 C 9.546875 -2.289062 9.585938 -2.097656 9.671875 -1.984375 C 9.753906 -1.878906 9.898438 -1.828125 10.109375 -1.828125 C 10.285156 -1.828125 10.429688 -1.847656 10.546875 -1.890625 Z M 10.546875 -1.890625 "/></g></g></g><g fill="#000000" fill-opacity="1"><g transform="translate(381.902406, 180.925783)"><g><path d="M 10.421875 -1.890625 C 10.441406 -1.785156 10.457031 -1.679688 10.46875 -1.578125 C 10.488281 -1.484375 10.5 -1.382812 10.5 -1.28125 C 10.5 -0.75 10.347656 -0.359375 10.046875 -0.109375 C 9.890625 0.015625 9.695312 0.0976562 9.46875 0.140625 C 9.238281 0.179688 8.976562 0.203125 8.6875 0.203125 C 8.21875 0.203125 7.828125 0.132812 7.515625 0 C 7.210938 -0.144531 6.984375 -0.394531 6.828125 -0.75 C 6.515625 -0.414062 6.140625 -0.164062 5.703125 0 C 5.273438 0.164062 4.804688 0.25 4.296875 0.25 C 3.617188 0.25 2.992188 0.078125 2.421875 -0.265625 C 1.847656 -0.617188 1.394531 -1.132812 1.0625 -1.8125 C 0.726562 -2.488281 0.5625 -3.296875 0.5625 -4.234375 C 0.5625 -5.179688 0.734375 -6 1.078125 -6.6875 C 1.429688 -7.375 1.898438 -7.890625 2.484375 -8.234375 C 3.066406 -8.585938 3.707031 -8.765625 4.40625 -8.765625 C 4.820312 -8.765625 5.210938 -8.695312 5.578125 -8.5625 C 5.953125 -8.425781 6.296875 -8.222656 6.609375 -7.953125 L 6.609375 -11.71875 C 6.691406 -11.738281 6.847656 -11.757812 7.078125 -11.78125 C 7.304688 -11.800781 7.515625 -11.8125 7.703125 -11.8125 C 8.148438 -11.8125 8.492188 -11.765625 8.734375 -11.671875 C 8.984375 -11.585938 9.160156 -11.4375 9.265625 -11.21875 C 9.378906 -11 9.4375 -10.6875 9.4375 -10.28125 L 9.4375 -2.5625 C 9.4375 -2.289062 9.472656 -2.097656 9.546875 -1.984375 C 9.617188 -1.878906 9.765625 -1.828125 9.984375 -1.828125 C 10.148438 -1.828125 10.296875 -1.847656 10.421875 -1.890625 Z M 3.40625 -4.25 C 3.40625 -3.789062 3.484375 -3.394531 3.640625 -3.0625 C 3.796875 -2.726562 4.007812 -2.472656 4.28125 -2.296875 C 4.5625 -2.128906 4.875 -2.046875 5.21875 -2.046875 C 5.476562 -2.046875 5.722656 -2.085938 5.953125 -2.171875 C 6.191406 -2.253906 6.410156 -2.378906 6.609375 -2.546875 L 6.609375 -5.96875 C 6.203125 -6.300781 5.734375 -6.46875 5.203125 -6.46875 C 4.847656 -6.46875 4.535156 -6.378906 4.265625 -6.203125 C 4.003906 -6.035156 3.796875 -5.78125 3.640625 -5.4375 C 3.484375 -5.101562 3.40625 -4.707031 3.40625 -4.25 Z M 3.40625 -4.25 "/></g></g></g><g clip-path="url(#6c0361efc9)"><g clip-path="url(#2e6eddaa68)"><g transform="matrix(1, 0, 0, 1, 48, 36)"><g clip-path="url(#ef8a172f1b)"><g clip-path="url(#7eacfc141e)"><g clip-path="url(#6c1a1e5708)"><path fill="#ffffff" d="M 0.414062 0.207031 L 261.996094 0.207031 L 261.996094 147.496094 L 0.414062 147.496094 Z M 0.414062 0.207031 " fill-opacity="1" fill-rule="nonzero"/></g></g></g></g></g></g><g clip-path="url(#9de14b4200)"><g clip-path="url(#b613b718c5)"><path stroke-linecap="butt" transform="matrix(0.75, 0, 0, 0.75, 48.412952, 36.210495)" fill="none" stroke-linejoin="miter" d="M 174.381708 0.000589398 C 270.683801 0.000589398 348.767143 43.969344 348.767143 98.229766 C 348.767143 152.495397 270.683801 196.464152 174.381708 196.464152 C 78.079614 196.464152 0.00148122 152.495397 0.00148122 98.229766 C 0.00148122 43.969344 78.079614 0.000589398 174.381708 0.000589398 Z M 174.381708 0.000589398 " stroke="#000000" stroke-width="8" stroke-opacity="1" stroke-miterlimit="4"/></g></g><path stroke-linecap="butt" transform="matrix(-0.75, 0, 0, -0.75, 407.397103, 201.853098)" fill="none" stroke-linejoin="miter" d="M -0.0017793 2.002048 L 280.378441 2.002048 " stroke="#000000" stroke-width="4" stroke-opacity="1" stroke-miterlimit="4"/><path stroke-linecap="butt" transform="matrix(-0.75, 0, 0, -0.75, 407.400631, 187.731096)" fill="none" stroke-linejoin="miter" d="M -0.00228363 2.000836 L 189.648766 2.000836 " stroke="#000000" stroke-width="4" stroke-opacity="1" stroke-miterlimit="4"/><path stroke-linecap="butt" transform="matrix(-0.000808796, -0.75, 0.75, -0.000808796, 404.393599, 201.978371)" fill="none" stroke-linejoin="miter" d="M 0.000253447 2.001244 L 21.000271 1.997849 " stroke="#000000" stroke-width="4" stroke-opacity="1" stroke-miterlimit="4"/><g clip-path="url(#89998e5090)"><g clip-path="url(#c2e823ee30)"><g clip-path="url(#220d74f23e)"><g clip-path="url(#9c119d6fa4)"><path fill="#262626" d="M 40.335938 158.625 L 41.042969 157.917969 L 40.367188 157.246094 L 41.074219 156.539062 L 41.75 157.210938 L 42.457031 156.503906 L 41.78125 155.832031 L 42.488281 155.125 L 43.164062 155.796875 L 43.871094 155.089844 L 43.195312 154.417969 L 43.902344 153.710938 L 44.578125 154.382812 L 45.285156 153.675781 L 44.609375 153.003906 L 45.316406 152.296875 L 45.992188 152.96875 L 46.699219 152.261719 L 46.023438 151.589844 L 46.730469 150.882812 L 47.40625 151.554688 L 48.113281 150.847656 L 47.4375 150.175781 L 48.144531 149.46875 L 48.820312 150.140625 L 49.527344 149.433594 L 48.855469 148.761719 L 49.5625 148.050781 L 50.234375 148.726562 L 50.941406 148.019531 L 50.269531 147.34375 L 50.976562 146.636719 L 51.648438 147.3125 L 52.355469 146.605469 L 51.683594 145.929688 L 52.390625 145.222656 L 53.0625 145.898438 L 53.769531 145.191406 L 53.097656 144.515625 L 53.804688 143.808594 L 54.476562 144.484375 L 55.183594 143.777344 L 54.511719 143.101562 L 55.21875 142.394531 L 55.890625 143.070312 L 56.597656 142.363281 L 55.925781 141.6875 L 56.632812 140.980469 L 57.304688 141.65625 L 58.011719 140.949219 L 57.339844 140.273438 L 58.046875 139.566406 L 58.71875 140.242188 L 59.425781 139.535156 L 58.753906 138.859375 L 59.460938 138.152344 L 60.132812 138.828125 L 60.839844 138.121094 L 60.167969 137.445312 L 60.875 136.738281 L 60.707031 136.570312 L 39.492188 157.785156 Z M 60.839844 138.121094 L 61.515625 138.792969 L 62.222656 138.085938 L 61.546875 137.414062 Z M 61.515625 138.792969 L 60.808594 139.5 L 61.480469 140.175781 L 62.1875 139.46875 Z M 62.1875 139.46875 L 62.863281 140.140625 L 63.570312 139.433594 L 62.894531 138.761719 Z M 62.863281 140.140625 L 62.15625 140.847656 L 62.828125 141.523438 L 62.121094 142.230469 L 61.449219 141.554688 L 60.742188 142.261719 L 61.414062 142.9375 L 60.707031 143.644531 L 60.035156 142.96875 L 59.328125 143.675781 L 60 144.351562 L 59.292969 145.058594 L 58.621094 144.382812 L 57.914062 145.089844 L 58.585938 145.765625 L 57.878906 146.472656 L 57.207031 145.796875 L 56.5 146.503906 L 57.171875 147.179688 L 56.464844 147.886719 L 55.792969 147.210938 L 55.085938 147.917969 L 55.757812 148.59375 L 55.050781 149.300781 L 54.378906 148.625 L 53.671875 149.332031 L 54.34375 150.007812 L 53.636719 150.714844 L 52.964844 150.042969 L 52.257812 150.75 L 52.929688 151.421875 L 52.222656 152.128906 L 51.550781 151.457031 L 50.84375 152.164062 L 51.515625 152.835938 L 50.808594 153.542969 L 50.136719 152.871094 L 49.425781 153.578125 L 50.101562 154.25 L 49.394531 154.957031 L 48.71875 154.285156 L 48.011719 154.992188 L 48.6875 155.664062 L 47.980469 156.371094 L 47.304688 155.699219 L 46.597656 156.40625 L 47.273438 157.078125 L 46.566406 157.785156 L 45.890625 157.113281 L 45.183594 157.820312 L 45.859375 158.492188 L 45.152344 159.199219 L 44.476562 158.527344 L 43.769531 159.234375 L 44.445312 159.90625 L 43.738281 160.613281 L 43.0625 159.941406 L 42.355469 160.648438 L 43.199219 161.488281 L 64.410156 140.277344 L 64.242188 140.109375 L 63.535156 140.816406 Z M 43.0625 159.941406 L 43.769531 159.234375 L 43.097656 158.558594 L 42.390625 159.265625 Z M 42.390625 159.265625 L 41.714844 158.59375 L 41.007812 159.300781 L 41.683594 159.972656 Z M 41.714844 158.59375 L 42.421875 157.886719 L 41.75 157.210938 L 41.042969 157.917969 Z M 59.425781 139.535156 L 60.101562 140.207031 L 60.808594 139.5 L 60.132812 138.828125 Z M 58.011719 140.949219 L 58.6875 141.621094 L 59.394531 140.914062 L 58.71875 140.242188 Z M 56.597656 142.363281 L 57.273438 143.035156 L 57.980469 142.328125 L 57.304688 141.65625 Z M 55.183594 143.777344 L 55.859375 144.449219 L 56.566406 143.742188 L 55.890625 143.070312 Z M 53.769531 145.191406 L 54.445312 145.863281 L 55.152344 145.15625 L 54.476562 144.484375 Z M 52.355469 146.605469 L 53.03125 147.277344 L 53.738281 146.570312 L 53.0625 145.898438 Z M 50.941406 148.019531 L 51.617188 148.691406 L 52.324219 147.984375 L 51.648438 147.3125 Z M 49.527344 149.433594 L 50.203125 150.109375 L 50.910156 149.402344 L 50.234375 148.726562 Z M 48.113281 150.847656 L 48.785156 151.523438 L 49.496094 150.816406 L 48.820312 150.140625 Z M 46.699219 152.261719 L 47.371094 152.9375 L 48.078125 152.230469 L 47.40625 151.554688 Z M 45.285156 153.675781 L 45.957031 154.351562 L 46.664062 153.644531 L 45.992188 152.96875 Z M 43.871094 155.089844 L 44.542969 155.765625 L 45.25 155.058594 L 44.578125 154.382812 Z M 42.457031 156.503906 L 43.128906 157.179688 L 43.835938 156.472656 L 43.164062 155.796875 Z M 61.480469 140.175781 L 60.773438 140.882812 L 61.449219 141.554688 L 62.15625 140.847656 Z M 60.101562 140.207031 L 59.394531 140.914062 L 60.066406 141.589844 L 60.773438 140.882812 Z M 45.183594 157.820312 L 44.511719 157.144531 L 43.804688 157.851562 L 44.476562 158.527344 Z M 46.597656 156.40625 L 45.925781 155.730469 L 45.21875 156.4375 L 45.890625 157.113281 Z M 48.011719 154.992188 L 47.339844 154.316406 L 46.632812 155.023438 L 47.304688 155.699219 Z M 49.425781 153.578125 L 48.753906 152.902344 L 48.046875 153.609375 L 48.71875 154.285156 Z M 50.84375 152.164062 L 50.167969 151.488281 L 49.460938 152.195312 L 50.136719 152.871094 Z M 52.257812 150.75 L 51.582031 150.074219 L 50.875 150.78125 L 51.550781 151.457031 Z M 53.671875 149.332031 L 52.996094 148.660156 L 52.289062 149.367188 L 52.964844 150.042969 Z M 55.085938 147.917969 L 54.410156 147.246094 L 53.703125 147.953125 L 54.378906 148.625 Z M 56.5 146.503906 L 55.824219 145.832031 L 55.117188 146.539062 L 55.792969 147.210938 Z M 57.914062 145.089844 L 57.238281 144.417969 L 56.53125 145.125 L 57.207031 145.796875 Z M 59.328125 143.675781 L 58.652344 143.003906 L 57.945312 143.710938 L 58.621094 144.382812 Z M 60.742188 142.261719 L 60.066406 141.589844 L 59.359375 142.296875 L 60.035156 142.96875 Z M 43.097656 158.558594 L 43.804688 157.851562 L 43.128906 157.179688 L 42.421875 157.886719 Z M 57.980469 142.328125 L 58.652344 143.003906 L 59.359375 142.296875 L 58.6875 141.621094 Z M 56.566406 143.742188 L 57.238281 144.417969 L 57.945312 143.710938 L 57.273438 143.035156 Z M 55.152344 145.15625 L 55.824219 145.832031 L 56.53125 145.125 L 55.859375 144.449219 Z M 53.738281 146.570312 L 54.410156 147.246094 L 55.117188 146.539062 L 54.445312 145.863281 Z M 52.324219 147.984375 L 52.996094 148.660156 L 53.703125 147.953125 L 53.03125 147.277344 Z M 50.910156 149.402344 L 51.582031 150.074219 L 52.289062 149.367188 L 51.617188 148.691406 Z M 49.496094 150.816406 L 50.167969 151.488281 L 50.875 150.78125 L 50.203125 150.109375 Z M 48.078125 152.230469 L 48.753906 152.902344 L 49.460938 152.195312 L 48.785156 151.523438 Z M 46.664062 153.644531 L 47.339844 154.316406 L 48.046875 153.609375 L 47.371094 152.9375 Z M 45.25 155.058594 L 45.925781 155.730469 L 46.632812 155.023438 L 45.957031 154.351562 Z M 43.835938 156.472656 L 44.511719 157.144531 L 45.21875 156.4375 L 44.542969 155.765625 Z M 43.835938 156.472656 " fill-opacity="1" fill-rule="evenodd"/></g></g></g></g><g clip-path="url(#aa484414ef)"><path fill="#ffffff" d="M 398.167969 184.890625 C 400.289062 176.359375 400.125 175.71875 400.6875 172.390625 C 409.339844 169.078125 409.160156 175.632812 418.371094 174.941406 C 418.605469 176.472656 415.917969 182.453125 410.632812 182.765625 C 405.351562 183.082031 401.203125 181.480469 398.167969 184.886719 Z M 398.167969 184.890625 " fill-opacity="1" fill-rule="evenodd"/></g><g clip-path="url(#dbd015c8c2)"><path fill="#000000" d="M 398.03125 184.855469 C 400.152344 176.332031 399.984375 175.699219 400.550781 172.367188 C 400.558594 172.3125 400.59375 172.273438 400.640625 172.253906 C 405.03125 170.574219 407.175781 171.402344 409.394531 172.554688 C 411.5625 173.683594 413.800781 175.140625 418.367188 174.796875 C 418.4375 174.792969 418.507812 174.84375 418.515625 174.917969 C 418.613281 175.546875 418.242188 176.917969 417.398438 178.339844 C 416.144531 180.457031 413.871094 182.71875 410.644531 182.914062 C 408.003906 183.070312 405.644531 182.75 403.566406 182.816406 C 401.527344 182.878906 399.769531 183.316406 398.277344 184.988281 C 398.234375 185.035156 398.164062 185.050781 398.105469 185.015625 C 398.042969 184.988281 398.015625 184.921875 398.035156 184.851562 Z M 398.4375 184.402344 C 399.902344 182.984375 401.605469 182.585938 403.554688 182.523438 C 405.632812 182.460938 407.988281 182.78125 410.625 182.625 C 413.746094 182.4375 415.941406 180.242188 417.148438 178.195312 C 417.890625 176.9375 418.269531 175.738281 418.242188 175.097656 C 413.691406 175.40625 411.4375 173.953125 409.253906 172.816406 C 407.109375 171.695312 405.035156 170.90625 400.816406 172.5 C 400.28125 175.695312 400.410156 176.429688 398.4375 184.40625 Z M 398.4375 184.402344 " fill-opacity="1" fill-rule="evenodd"/></g><path fill="#000000" d="M 400.128906 176.03125 C 400.339844 174.753906 400.445312 173.820312 400.691406 172.390625 C 402.3125 171.769531 403.628906 171.496094 404.753906 171.457031 C 404.480469 172.378906 404.128906 173.546875 403.679688 175.179688 C 402.578125 175.242188 401.40625 175.492188 400.128906 176.03125 Z M 400.128906 176.03125 " fill-opacity="1" fill-rule="evenodd"/><path fill="#000000" d="M 399.988281 176.003906 C 400.199219 174.730469 400.304688 173.796875 400.550781 172.367188 C 400.558594 172.3125 400.59375 172.273438 400.640625 172.253906 C 402.285156 171.625 403.613281 171.347656 404.75 171.308594 C 404.796875 171.308594 404.835938 171.328125 404.867188 171.363281 C 404.898438 171.402344 404.90625 171.449219 404.894531 171.496094 C 404.621094 172.414062 404.269531 173.585938 403.820312 175.214844 C 403.804688 175.273438 403.75 175.316406 403.6875 175.320312 C 402.601562 175.378906 401.445312 175.625 400.1875 176.15625 C 400.136719 176.175781 400.082031 176.167969 400.042969 176.136719 C 400 176.105469 399.980469 176.050781 399.992188 176 Z M 400.3125 175.792969 C 401.472656 175.332031 402.550781 175.105469 403.566406 175.039062 C 403.972656 173.570312 404.300781 172.480469 404.554688 171.609375 C 403.511719 171.675781 402.296875 171.941406 400.820312 172.5 C 400.601562 173.785156 400.496094 174.675781 400.3125 175.796875 Z M 400.3125 175.792969 " fill-opacity="1" fill-rule="evenodd"/><path fill="#000000" d="M 408.847656 172.441406 C 410.203125 173.109375 411.523438 173.964844 413.351562 174.496094 C 413.035156 175.230469 412.667969 176.085938 412.242188 177.09375 C 411.632812 176.960938 410.988281 176.78125 410.300781 176.554688 C 409.546875 176.304688 408.789062 176.03125 408.007812 175.792969 C 408.308594 174.566406 408.570312 173.601562 408.847656 172.445312 Z M 408.847656 172.441406 " fill-opacity="1" fill-rule="evenodd"/><path fill="#000000" d="M 408.910156 172.3125 C 410.261719 172.980469 411.574219 173.832031 413.390625 174.359375 C 413.433594 174.371094 413.464844 174.398438 413.480469 174.4375 C 413.5 174.476562 413.5 174.519531 413.480469 174.558594 C 413.164062 175.289062 412.796875 176.144531 412.371094 177.15625 C 412.347656 177.21875 412.277344 177.257812 412.210938 177.242188 C 411.59375 177.105469 410.941406 176.925781 410.253906 176.695312 C 409.503906 176.441406 408.746094 176.171875 407.960938 175.9375 C 407.886719 175.914062 407.84375 175.839844 407.863281 175.761719 C 408.164062 174.53125 408.425781 173.566406 408.703125 172.410156 C 408.714844 172.371094 408.746094 172.332031 408.78125 172.3125 C 408.820312 172.296875 408.867188 172.296875 408.90625 172.3125 Z M 408.945312 172.652344 C 408.691406 173.691406 408.453125 174.589844 408.175781 175.695312 C 408.914062 175.921875 409.632812 176.175781 410.34375 176.414062 C 410.980469 176.628906 411.582031 176.800781 412.152344 176.925781 C 412.53125 176.035156 412.863281 175.261719 413.152344 174.589844 C 411.46875 174.074219 410.210938 173.292969 408.945312 172.652344 Z M 408.945312 172.652344 " fill-opacity="1" fill-rule="evenodd"/><g clip-path="url(#a79404e06b)"><path fill="#000000" d="M 416.332031 174.980469 C 416.957031 175.007812 417.636719 175 418.371094 174.941406 C 418.4375 175.351562 418.289062 176.082031 417.9375 176.933594 C 417.136719 177.179688 416.308594 177.335938 415.425781 177.378906 C 415.773438 176.4375 416.074219 175.640625 416.332031 174.976562 Z M 416.332031 174.980469 " fill-opacity="1" fill-rule="evenodd"/><path fill="#000000" d="M 416.339844 174.832031 C 416.960938 174.859375 417.632812 174.851562 418.367188 174.796875 C 418.4375 174.792969 418.507812 174.84375 418.515625 174.917969 C 418.582031 175.347656 418.4375 176.105469 418.074219 176.992188 C 418.058594 177.03125 418.019531 177.0625 417.980469 177.074219 C 417.164062 177.320312 416.328125 177.480469 415.429688 177.527344 C 415.382812 177.527344 415.332031 177.503906 415.308594 177.464844 C 415.277344 177.425781 415.269531 177.375 415.289062 177.332031 C 415.636719 176.390625 415.9375 175.59375 416.195312 174.925781 C 416.214844 174.867188 416.269531 174.832031 416.335938 174.835938 Z M 416.425781 175.128906 C 416.195312 175.722656 415.9375 176.417969 415.636719 177.222656 C 416.40625 177.167969 417.128906 177.023438 417.832031 176.816406 C 418.117188 176.109375 418.257812 175.492188 418.242188 175.09375 C 417.59375 175.140625 416.992188 175.148438 416.425781 175.125 Z M 416.425781 175.128906 " fill-opacity="1" fill-rule="evenodd"/></g><path fill="#000000" d="M 403.679688 175.175781 C 405.246094 175.089844 406.660156 175.386719 408.007812 175.792969 C 407.761719 176.785156 407.488281 177.957031 407.152344 179.535156 C 407.105469 179.53125 407.0625 179.523438 407.011719 179.511719 C 405.359375 179.234375 403.871094 179.234375 402.558594 179.414062 C 402.988281 177.71875 403.359375 176.328125 403.679688 175.175781 Z M 403.679688 175.175781 " fill-opacity="1" fill-rule="evenodd"/><path fill="#000000" d="M 403.671875 175.03125 C 405.253906 174.941406 406.6875 175.246094 408.046875 175.652344 C 408.121094 175.675781 408.164062 175.753906 408.148438 175.828125 C 407.902344 176.820312 407.628906 177.984375 407.296875 179.566406 C 407.285156 179.644531 407.210938 179.695312 407.132812 179.679688 C 407.085938 179.671875 407.039062 179.664062 406.996094 179.65625 C 405.355469 179.378906 403.886719 179.382812 402.582031 179.558594 C 402.53125 179.566406 402.484375 179.546875 402.453125 179.511719 C 402.421875 179.476562 402.410156 179.425781 402.421875 179.378906 C 402.851562 177.683594 403.222656 176.296875 403.539062 175.140625 C 403.558594 175.082031 403.609375 175.035156 403.671875 175.035156 Z M 403.789062 175.316406 C 403.488281 176.402344 403.144531 177.691406 402.75 179.242188 C 404.027344 179.089844 405.457031 179.097656 407.039062 179.363281 L 407.042969 179.363281 C 407.351562 177.917969 407.601562 176.828125 407.832031 175.890625 C 406.574219 175.523438 405.246094 175.253906 403.789062 175.316406 Z M 403.789062 175.316406 " fill-opacity="1" fill-rule="evenodd"/><path fill="#000000" d="M 412.238281 177.09375 C 413.402344 177.347656 414.449219 177.433594 415.425781 177.382812 C 415.007812 178.511719 414.523438 179.855469 413.957031 181.449219 C 412.871094 181.230469 411.835938 180.886719 410.789062 180.542969 C 411.339844 179.230469 411.820312 178.089844 412.242188 177.097656 Z M 412.238281 177.09375 " fill-opacity="1" fill-rule="evenodd"/><path fill="#000000" d="M 412.273438 176.953125 C 413.421875 177.203125 414.457031 177.285156 415.417969 177.238281 C 415.46875 177.238281 415.515625 177.257812 415.542969 177.296875 C 415.570312 177.339844 415.578125 177.386719 415.558594 177.4375 C 415.140625 178.566406 414.65625 179.90625 414.09375 181.503906 C 414.070312 181.570312 414 181.613281 413.929688 181.597656 C 412.835938 181.375 411.792969 181.027344 410.742188 180.679688 C 410.703125 180.664062 410.671875 180.640625 410.65625 180.601562 C 410.640625 180.566406 410.636719 180.523438 410.65625 180.488281 C 411.203125 179.175781 411.6875 178.035156 412.109375 177.039062 C 412.136719 176.976562 412.207031 176.9375 412.273438 176.953125 Z M 412.328125 177.265625 C 411.933594 178.195312 411.492188 179.25 410.984375 180.453125 C 411.933594 180.765625 412.878906 181.074219 413.867188 181.285156 C 414.378906 179.835938 414.824219 178.597656 415.214844 177.539062 C 414.320312 177.566406 413.375 177.484375 412.324219 177.265625 Z M 412.328125 177.265625 " fill-opacity="1" fill-rule="evenodd"/><path fill="#000000" d="M 401.710938 182.871094 C 400.398438 183.136719 399.214844 183.714844 398.171875 184.894531 C 398.632812 183.027344 398.988281 181.542969 399.265625 180.320312 C 400.203125 179.921875 401.300781 179.589844 402.5625 179.417969 C 402.304688 180.449219 402.015625 181.59375 401.714844 182.871094 Z M 401.710938 182.871094 " fill-opacity="1" fill-rule="evenodd"/><path fill="#000000" d="M 401.734375 183.011719 C 400.453125 183.273438 399.296875 183.839844 398.273438 184.992188 C 398.230469 185.039062 398.160156 185.054688 398.101562 185.019531 C 398.039062 184.992188 398.011719 184.925781 398.03125 184.855469 C 398.492188 182.996094 398.847656 181.507812 399.125 180.289062 C 399.136719 180.242188 399.167969 180.207031 399.210938 180.1875 C 400.15625 179.785156 401.269531 179.441406 402.542969 179.269531 C 402.59375 179.265625 402.640625 179.28125 402.667969 179.320312 C 402.703125 179.355469 402.714844 179.40625 402.703125 179.449219 C 402.445312 180.484375 402.160156 181.625 401.855469 182.90625 C 401.839844 182.960938 401.800781 183.003906 401.742188 183.011719 Z M 401.589844 182.746094 C 401.871094 181.589844 402.128906 180.539062 402.367188 179.585938 C 401.238281 179.757812 400.246094 180.058594 399.390625 180.421875 C 399.140625 181.515625 398.832031 182.8125 398.441406 184.402344 C 399.390625 183.480469 400.441406 182.996094 401.589844 182.746094 Z M 401.589844 182.746094 " fill-opacity="1" fill-rule="evenodd"/><path fill="#000000" d="M 409.839844 182.804688 C 408.671875 182.835938 407.5625 182.785156 406.507812 182.738281 C 406.746094 181.5 406.960938 180.449219 407.152344 179.53125 C 408.445312 179.765625 409.621094 180.152344 410.789062 180.539062 C 410.492188 181.246094 410.179688 181.996094 409.84375 182.804688 Z M 409.839844 182.804688 " fill-opacity="1" fill-rule="evenodd"/><path fill="#000000" d="M 409.84375 182.949219 C 408.671875 182.984375 407.558594 182.933594 406.5 182.882812 C 406.460938 182.882812 406.421875 182.859375 406.394531 182.828125 C 406.367188 182.792969 406.355469 182.75 406.363281 182.707031 C 406.601562 181.46875 406.816406 180.414062 407.007812 179.503906 C 407.023438 179.429688 407.097656 179.375 407.175781 179.390625 C 408.472656 179.621094 409.660156 180.011719 410.832031 180.398438 C 410.867188 180.410156 410.902344 180.441406 410.914062 180.480469 C 410.933594 180.515625 410.933594 180.558594 410.914062 180.59375 C 410.621094 181.296875 410.304688 182.054688 409.972656 182.855469 C 409.949219 182.910156 409.898438 182.941406 409.839844 182.945312 Z M 409.746094 182.664062 C 410.046875 181.941406 410.328125 181.269531 410.59375 180.628906 C 409.523438 180.277344 408.4375 179.925781 407.261719 179.703125 C 407.085938 180.542969 406.894531 181.496094 406.679688 182.601562 C 407.652344 182.648438 408.671875 182.6875 409.742188 182.664062 Z M 409.746094 182.664062 " fill-opacity="1" fill-rule="evenodd"/><g clip-path="url(#ec11f701df)"><path fill="#ffffff" d="M 401.5625 170.953125 L 397.351562 191.914062 C 397.320312 192.0625 397.179688 192.152344 397.035156 192.125 L 396.511719 192.015625 C 396.367188 191.984375 396.273438 191.84375 396.300781 191.699219 L 400.511719 170.738281 C 400.542969 170.59375 400.683594 170.496094 400.828125 170.527344 L 401.355469 170.636719 C 401.5 170.664062 401.589844 170.808594 401.5625 170.953125 Z M 401.5625 170.953125 " fill-opacity="1" fill-rule="evenodd"/><path fill="#000000" d="M 401.703125 170.984375 L 397.492188 191.945312 C 397.449219 192.167969 397.230469 192.316406 397.007812 192.269531 L 396.480469 192.160156 C 396.257812 192.117188 396.113281 191.894531 396.15625 191.671875 L 400.371094 170.710938 C 400.417969 170.484375 400.636719 170.339844 400.859375 170.386719 L 401.382812 170.492188 C 401.605469 170.539062 401.75 170.757812 401.707031 170.984375 Z M 401.421875 170.921875 C 401.4375 170.855469 401.390625 170.789062 401.324219 170.773438 L 400.796875 170.664062 C 400.730469 170.648438 400.664062 170.695312 400.652344 170.761719 L 396.445312 191.730469 C 396.429688 191.800781 396.472656 191.867188 396.539062 191.878906 L 397.066406 191.984375 C 397.132812 192 397.199219 191.957031 397.210938 191.890625 Z M 401.421875 170.921875 " fill-opacity="1" fill-rule="evenodd"/></g><g clip-path="url(#948c057691)"><path fill="#ffffff" d="M 401.464844 171.308594 L 400.457031 171.101562 C 400.28125 170.90625 400.210938 170.636719 400.265625 170.378906 C 400.355469 169.921875 400.800781 169.625 401.261719 169.71875 C 401.722656 169.8125 402.015625 170.261719 401.925781 170.71875 C 401.871094 170.976562 401.703125 171.191406 401.464844 171.308594 Z M 401.464844 171.308594 " fill-opacity="1" fill-rule="evenodd"/></g><g clip-path="url(#7c9abdca55)"><path fill="#000000" d="M 401.4375 171.449219 L 400.425781 171.246094 C 400.398438 171.238281 400.367188 171.222656 400.351562 171.199219 C 400.144531 170.96875 400.0625 170.652344 400.125 170.351562 C 400.230469 169.816406 400.753906 169.46875 401.292969 169.578125 C 401.828125 169.6875 402.171875 170.214844 402.066406 170.746094 C 402.007812 171.050781 401.804688 171.304688 401.527344 171.4375 C 401.5 171.449219 401.46875 171.457031 401.4375 171.449219 Z M 401.441406 171.15625 C 401.617188 171.054688 401.742188 170.886719 401.78125 170.6875 C 401.859375 170.308594 401.609375 169.941406 401.226562 169.863281 C 400.851562 169.78125 400.480469 170.03125 400.402344 170.40625 C 400.359375 170.605469 400.410156 170.8125 400.53125 170.96875 L 401.4375 171.15625 Z M 401.441406 171.15625 " fill-opacity="1" fill-rule="evenodd"/></g><g fill="#000000" fill-opacity="1"><g transform="translate(72.098025, 123.84727)"><g><path d="M 4.734375 -1.953125 C 5.367188 -1.953125 5.859375 -2.066406 6.203125 -2.296875 C 6.546875 -2.535156 6.71875 -2.867188 6.71875 -3.296875 C 6.71875 -3.554688 6.644531 -3.765625 6.5 -3.921875 C 6.363281 -4.085938 6.148438 -4.226562 5.859375 -4.34375 C 5.566406 -4.457031 5.160156 -4.5625 4.640625 -4.65625 C 3.398438 -4.894531 2.414062 -5.285156 1.6875 -5.828125 C 0.957031 -6.367188 0.59375 -7.179688 0.59375 -8.265625 C 0.59375 -8.992188 0.785156 -9.617188 1.171875 -10.140625 C 1.554688 -10.671875 2.097656 -11.078125 2.796875 -11.359375 C 3.492188 -11.640625 4.304688 -11.78125 5.234375 -11.78125 C 6.816406 -11.78125 8.003906 -11.503906 8.796875 -10.953125 C 9.171875 -10.710938 9.359375 -10.394531 9.359375 -10 C 9.359375 -9.757812 9.289062 -9.515625 9.15625 -9.265625 C 9.019531 -9.015625 8.820312 -8.773438 8.5625 -8.546875 C 8.09375 -8.878906 7.570312 -9.128906 7 -9.296875 C 6.425781 -9.472656 5.851562 -9.5625 5.28125 -9.5625 C 4.707031 -9.5625 4.253906 -9.453125 3.921875 -9.234375 C 3.597656 -9.023438 3.4375 -8.75 3.4375 -8.40625 C 3.4375 -8.15625 3.488281 -7.945312 3.59375 -7.78125 C 3.707031 -7.625 3.898438 -7.488281 4.171875 -7.375 C 4.453125 -7.269531 4.851562 -7.164062 5.375 -7.0625 C 6.320312 -6.875 7.113281 -6.632812 7.75 -6.34375 C 8.382812 -6.050781 8.875 -5.664062 9.21875 -5.1875 C 9.5625 -4.71875 9.734375 -4.128906 9.734375 -3.421875 C 9.734375 -2.679688 9.539062 -2.035156 9.15625 -1.484375 C 8.769531 -0.929688 8.210938 -0.503906 7.484375 -0.203125 C 6.753906 0.0976562 5.878906 0.25 4.859375 0.25 C 3.253906 0.25 2.003906 -0.0078125 1.109375 -0.53125 C 0.554688 -0.851562 0.28125 -1.21875 0.28125 -1.625 C 0.28125 -2.070312 0.585938 -2.582031 1.203125 -3.15625 C 1.628906 -2.769531 2.148438 -2.472656 2.765625 -2.265625 C 3.378906 -2.054688 4.035156 -1.953125 4.734375 -1.953125 Z M 4.734375 -1.953125 "/></g></g></g><g fill="#000000" fill-opacity="1"><g transform="translate(82.335566, 123.84727)"><g><path d="M 7.0625 -2.65625 C 7.425781 -2.21875 7.609375 -1.796875 7.609375 -1.390625 C 7.609375 -1.171875 7.5625 -0.972656 7.46875 -0.796875 C 7.382812 -0.617188 7.265625 -0.472656 7.109375 -0.359375 C 6.859375 -0.160156 6.53125 -0.0078125 6.125 0.09375 C 5.726562 0.195312 5.328125 0.25 4.921875 0.25 C 2.785156 0.25 1.71875 -0.835938 1.71875 -3.015625 L 1.71875 -6.390625 L 0.171875 -6.390625 C 0.148438 -6.503906 0.132812 -6.648438 0.125 -6.828125 C 0.113281 -7.015625 0.109375 -7.175781 0.109375 -7.3125 C 0.109375 -7.632812 0.132812 -7.878906 0.1875 -8.046875 C 0.25 -8.210938 0.359375 -8.332031 0.515625 -8.40625 C 0.671875 -8.476562 0.898438 -8.515625 1.203125 -8.515625 L 1.71875 -8.515625 L 1.71875 -9.34375 C 1.71875 -9.75 1.769531 -10.066406 1.875 -10.296875 C 1.976562 -10.535156 2.148438 -10.703125 2.390625 -10.796875 C 2.628906 -10.898438 2.957031 -10.953125 3.375 -10.953125 C 3.53125 -10.953125 3.71875 -10.941406 3.9375 -10.921875 C 4.164062 -10.910156 4.359375 -10.894531 4.515625 -10.875 L 4.515625 -8.515625 L 7.28125 -8.515625 C 7.300781 -8.410156 7.316406 -8.265625 7.328125 -8.078125 C 7.347656 -7.890625 7.359375 -7.71875 7.359375 -7.5625 C 7.359375 -7.25 7.328125 -7.007812 7.265625 -6.84375 C 7.210938 -6.675781 7.109375 -6.554688 6.953125 -6.484375 C 6.796875 -6.421875 6.566406 -6.390625 6.265625 -6.390625 L 4.515625 -6.390625 L 4.515625 -3.34375 C 4.515625 -2.476562 4.890625 -2.046875 5.640625 -2.046875 C 5.910156 -2.046875 6.164062 -2.101562 6.40625 -2.21875 C 6.65625 -2.332031 6.875 -2.476562 7.0625 -2.65625 Z M 7.0625 -2.65625 "/></g></g></g><g fill="#000000" fill-opacity="1"><g transform="translate(90.285662, 123.84727)"><g><path d="M 10.421875 -1.890625 C 10.441406 -1.785156 10.457031 -1.679688 10.46875 -1.578125 C 10.488281 -1.484375 10.5 -1.382812 10.5 -1.28125 C 10.5 -0.75 10.347656 -0.359375 10.046875 -0.109375 C 9.890625 0.015625 9.695312 0.0976562 9.46875 0.140625 C 9.238281 0.179688 8.976562 0.203125 8.6875 0.203125 C 8.21875 0.203125 7.828125 0.132812 7.515625 0 C 7.210938 -0.144531 6.984375 -0.394531 6.828125 -0.75 C 6.515625 -0.414062 6.140625 -0.164062 5.703125 0 C 5.273438 0.164062 4.804688 0.25 4.296875 0.25 C 3.617188 0.25 2.992188 0.078125 2.421875 -0.265625 C 1.847656 -0.617188 1.394531 -1.132812 1.0625 -1.8125 C 0.726562 -2.488281 0.5625 -3.296875 0.5625 -4.234375 C 0.5625 -5.179688 0.734375 -6 1.078125 -6.6875 C 1.429688 -7.375 1.898438 -7.890625 2.484375 -8.234375 C 3.066406 -8.585938 3.707031 -8.765625 4.40625 -8.765625 C 4.84375 -8.765625 5.257812 -8.6875 5.65625 -8.53125 C 6.050781 -8.375 6.40625 -8.148438 6.71875 -7.859375 C 6.820312 -8.140625 7 -8.34375 7.25 -8.46875 C 7.507812 -8.601562 7.878906 -8.671875 8.359375 -8.671875 C 8.535156 -8.671875 8.722656 -8.660156 8.921875 -8.640625 C 9.128906 -8.617188 9.300781 -8.597656 9.4375 -8.578125 L 9.4375 -2.5625 C 9.4375 -2.289062 9.472656 -2.097656 9.546875 -1.984375 C 9.617188 -1.878906 9.765625 -1.828125 9.984375 -1.828125 C 10.148438 -1.828125 10.296875 -1.847656 10.421875 -1.890625 Z M 3.40625 -4.25 C 3.40625 -3.789062 3.484375 -3.394531 3.640625 -3.0625 C 3.796875 -2.726562 4.007812 -2.472656 4.28125 -2.296875 C 4.5625 -2.128906 4.875 -2.046875 5.21875 -2.046875 C 5.476562 -2.046875 5.722656 -2.085938 5.953125 -2.171875 C 6.191406 -2.253906 6.410156 -2.378906 6.609375 -2.546875 L 6.609375 -5.96875 C 6.203125 -6.300781 5.734375 -6.46875 5.203125 -6.46875 C 4.847656 -6.46875 4.535156 -6.378906 4.265625 -6.203125 C 4.003906 -6.035156 3.796875 -5.78125 3.640625 -5.4375 C 3.484375 -5.101562 3.40625 -4.707031 3.40625 -4.25 Z M 3.40625 -4.25 "/></g></g></g><g fill="#000000" fill-opacity="1"><g transform="translate(100.939104, 123.84727)"><g><path d="M 7.3125 -8.21875 C 7.46875 -8.03125 7.546875 -7.769531 7.546875 -7.4375 C 7.546875 -7.21875 7.507812 -6.972656 7.4375 -6.703125 C 7.375 -6.429688 7.285156 -6.171875 7.171875 -5.921875 C 6.785156 -6.117188 6.34375 -6.21875 5.84375 -6.21875 C 5.5 -6.21875 5.164062 -6.140625 4.84375 -5.984375 C 4.53125 -5.835938 4.257812 -5.625 4.03125 -5.34375 L 4.03125 0.0625 C 3.90625 0.0820312 3.742188 0.0976562 3.546875 0.109375 C 3.347656 0.128906 3.148438 0.140625 2.953125 0.140625 C 2.503906 0.140625 2.15625 0.0976562 1.90625 0.015625 C 1.664062 -0.0664062 1.488281 -0.21875 1.375 -0.4375 C 1.269531 -0.65625 1.21875 -0.96875 1.21875 -1.375 L 1.21875 -5.921875 C 1.21875 -6.171875 1.171875 -6.351562 1.078125 -6.46875 C 0.992188 -6.582031 0.847656 -6.640625 0.640625 -6.640625 C 0.484375 -6.640625 0.347656 -6.625 0.234375 -6.59375 C 0.179688 -6.757812 0.15625 -6.960938 0.15625 -7.203125 C 0.15625 -7.710938 0.300781 -8.078125 0.59375 -8.296875 C 0.894531 -8.546875 1.347656 -8.671875 1.953125 -8.671875 C 2.492188 -8.671875 2.929688 -8.570312 3.265625 -8.375 C 3.597656 -8.175781 3.820312 -7.84375 3.9375 -7.375 C 4.175781 -7.78125 4.492188 -8.085938 4.890625 -8.296875 C 5.285156 -8.515625 5.695312 -8.625 6.125 -8.625 C 6.675781 -8.625 7.070312 -8.488281 7.3125 -8.21875 Z M 7.3125 -8.21875 "/></g></g></g><g fill="#000000" fill-opacity="1"><g transform="translate(108.873201, 123.84727)"><g><path d="M 7.0625 -2.65625 C 7.425781 -2.21875 7.609375 -1.796875 7.609375 -1.390625 C 7.609375 -1.171875 7.5625 -0.972656 7.46875 -0.796875 C 7.382812 -0.617188 7.265625 -0.472656 7.109375 -0.359375 C 6.859375 -0.160156 6.53125 -0.0078125 6.125 0.09375 C 5.726562 0.195312 5.328125 0.25 4.921875 0.25 C 2.785156 0.25 1.71875 -0.835938 1.71875 -3.015625 L 1.71875 -6.390625 L 0.171875 -6.390625 C 0.148438 -6.503906 0.132812 -6.648438 0.125 -6.828125 C 0.113281 -7.015625 0.109375 -7.175781 0.109375 -7.3125 C 0.109375 -7.632812 0.132812 -7.878906 0.1875 -8.046875 C 0.25 -8.210938 0.359375 -8.332031 0.515625 -8.40625 C 0.671875 -8.476562 0.898438 -8.515625 1.203125 -8.515625 L 1.71875 -8.515625 L 1.71875 -9.34375 C 1.71875 -9.75 1.769531 -10.066406 1.875 -10.296875 C 1.976562 -10.535156 2.148438 -10.703125 2.390625 -10.796875 C 2.628906 -10.898438 2.957031 -10.953125 3.375 -10.953125 C 3.53125 -10.953125 3.71875 -10.941406 3.9375 -10.921875 C 4.164062 -10.910156 4.359375 -10.894531 4.515625 -10.875 L 4.515625 -8.515625 L 7.28125 -8.515625 C 7.300781 -8.410156 7.316406 -8.265625 7.328125 -8.078125 C 7.347656 -7.890625 7.359375 -7.71875 7.359375 -7.5625 C 7.359375 -7.25 7.328125 -7.007812 7.265625 -6.84375 C 7.210938 -6.675781 7.109375 -6.554688 6.953125 -6.484375 C 6.796875 -6.421875 6.566406 -6.390625 6.265625 -6.390625 L 4.515625 -6.390625 L 4.515625 -3.34375 C 4.515625 -2.476562 4.890625 -2.046875 5.640625 -2.046875 C 5.910156 -2.046875 6.164062 -2.101562 6.40625 -2.21875 C 6.65625 -2.332031 6.875 -2.476562 7.0625 -2.65625 Z M 7.0625 -2.65625 "/></g></g></g><g fill="#000000" fill-opacity="1"><g transform="translate(116.823297, 123.84727)"><g/></g></g><g fill="#000000" fill-opacity="1"><g transform="translate(120.342446, 123.84727)"><g><path d="M 10.890625 -0.28125 C 10.648438 -0.113281 10.378906 0.0234375 10.078125 0.140625 C 9.785156 0.253906 9.519531 0.3125 9.28125 0.3125 C 9 0.3125 8.773438 0.265625 8.609375 0.171875 C 8.441406 0.078125 8.242188 -0.101562 8.015625 -0.375 L 7.765625 -0.65625 C 7.304688 -0.375 6.8125 -0.160156 6.28125 -0.015625 C 5.75 0.117188 5.191406 0.1875 4.609375 0.1875 C 3.765625 0.1875 3.03125 0.0625 2.40625 -0.1875 C 1.789062 -0.4375 1.316406 -0.796875 0.984375 -1.265625 C 0.648438 -1.734375 0.484375 -2.289062 0.484375 -2.9375 C 0.484375 -3.625 0.664062 -4.21875 1.03125 -4.71875 C 1.40625 -5.21875 2.003906 -5.707031 2.828125 -6.1875 C 2.316406 -6.757812 1.96875 -7.253906 1.78125 -7.671875 C 1.59375 -8.085938 1.5 -8.515625 1.5 -8.953125 C 1.5 -9.523438 1.660156 -10.023438 1.984375 -10.453125 C 2.304688 -10.878906 2.742188 -11.207031 3.296875 -11.4375 C 3.847656 -11.664062 4.472656 -11.78125 5.171875 -11.78125 C 5.835938 -11.78125 6.4375 -11.664062 6.96875 -11.4375 C 7.507812 -11.21875 7.929688 -10.898438 8.234375 -10.484375 C 8.535156 -10.066406 8.6875 -9.585938 8.6875 -9.046875 C 8.6875 -8.378906 8.445312 -7.785156 7.96875 -7.265625 C 7.488281 -6.753906 6.820312 -6.265625 5.96875 -5.796875 L 7.96875 -3.546875 C 8.15625 -3.859375 8.3125 -4.207031 8.4375 -4.59375 C 8.570312 -4.976562 8.695312 -5.445312 8.8125 -6 C 9.070312 -6.039062 9.320312 -6.0625 9.5625 -6.0625 C 10.007812 -6.0625 10.335938 -5.972656 10.546875 -5.796875 C 10.765625 -5.628906 10.875 -5.375 10.875 -5.03125 C 10.875 -4.488281 10.734375 -3.9375 10.453125 -3.375 C 10.179688 -2.820312 9.835938 -2.335938 9.421875 -1.921875 Z M 5.125 -9.828125 C 4.769531 -9.828125 4.484375 -9.726562 4.265625 -9.53125 C 4.046875 -9.332031 3.9375 -9.070312 3.9375 -8.75 C 3.9375 -8.519531 3.992188 -8.28125 4.109375 -8.03125 C 4.234375 -7.78125 4.453125 -7.488281 4.765625 -7.15625 C 5.296875 -7.425781 5.6875 -7.691406 5.9375 -7.953125 C 6.1875 -8.210938 6.3125 -8.492188 6.3125 -8.796875 C 6.3125 -9.109375 6.195312 -9.359375 5.96875 -9.546875 C 5.738281 -9.734375 5.457031 -9.828125 5.125 -9.828125 Z M 4.765625 -1.875 C 5.347656 -1.875 5.875 -2 6.34375 -2.25 L 4.078125 -4.78125 C 3.285156 -4.300781 2.890625 -3.78125 2.890625 -3.21875 C 2.890625 -2.800781 3.054688 -2.472656 3.390625 -2.234375 C 3.734375 -1.992188 4.191406 -1.875 4.765625 -1.875 Z M 4.765625 -1.875 "/></g></g></g><g fill="#000000" fill-opacity="1"><g transform="translate(70.691776, 145.597269)"><g><path d="M 11.375 -0.15625 C 11.15625 -0.0507812 10.863281 0.03125 10.5 0.09375 C 10.132812 0.15625 9.789062 0.1875 9.46875 0.1875 C 9.175781 0.1875 8.929688 0.148438 8.734375 0.078125 C 8.546875 0.015625 8.375 -0.0976562 8.21875 -0.265625 C 8.0625 -0.441406 7.894531 -0.695312 7.71875 -1.03125 L 6.171875 -3.796875 L 4.0625 -3.796875 L 4.0625 0.046875 C 3.976562 0.0664062 3.816406 0.0859375 3.578125 0.109375 C 3.347656 0.128906 3.144531 0.140625 2.96875 0.140625 C 2.488281 0.140625 2.140625 0.101562 1.921875 0.03125 C 1.703125 -0.03125 1.550781 -0.144531 1.46875 -0.3125 C 1.394531 -0.488281 1.359375 -0.765625 1.359375 -1.140625 L 1.359375 -9.34375 L 0.21875 -9.34375 C 0.195312 -9.46875 0.179688 -9.613281 0.171875 -9.78125 C 0.160156 -9.945312 0.15625 -10.101562 0.15625 -10.25 C 0.15625 -10.582031 0.195312 -10.835938 0.28125 -11.015625 C 0.363281 -11.203125 0.488281 -11.332031 0.65625 -11.40625 C 0.832031 -11.476562 1.082031 -11.515625 1.40625 -11.515625 L 5.75 -11.515625 C 7.5 -11.515625 8.78125 -11.1875 9.59375 -10.53125 C 10.40625 -9.882812 10.8125 -8.90625 10.8125 -7.59375 C 10.8125 -6.8125 10.628906 -6.144531 10.265625 -5.59375 C 9.898438 -5.039062 9.390625 -4.65625 8.734375 -4.4375 Z M 4.0625 -6.046875 L 5.8125 -6.046875 C 6.550781 -6.046875 7.097656 -6.171875 7.453125 -6.421875 C 7.816406 -6.671875 8 -7.070312 8 -7.625 C 8 -8.207031 7.816406 -8.628906 7.453125 -8.890625 C 7.097656 -9.160156 6.550781 -9.296875 5.8125 -9.296875 L 4.0625 -9.296875 Z M 4.0625 -6.046875 "/></g></g></g><g fill="#000000" fill-opacity="1"><g transform="translate(82.512938, 145.597269)"><g><path d="M 5.15625 0.25 C 4.195312 0.25 3.367188 0.078125 2.671875 -0.265625 C 1.984375 -0.609375 1.457031 -1.117188 1.09375 -1.796875 C 0.738281 -2.472656 0.5625 -3.296875 0.5625 -4.265625 C 0.5625 -5.222656 0.75 -6.039062 1.125 -6.71875 C 1.5 -7.394531 2.03125 -7.90625 2.71875 -8.25 C 3.40625 -8.59375 4.210938 -8.765625 5.140625 -8.765625 C 6.097656 -8.765625 6.921875 -8.59375 7.609375 -8.25 C 8.296875 -7.90625 8.820312 -7.394531 9.1875 -6.71875 C 9.5625 -6.039062 9.75 -5.210938 9.75 -4.234375 C 9.75 -3.285156 9.554688 -2.472656 9.171875 -1.796875 C 8.796875 -1.117188 8.265625 -0.609375 7.578125 -0.265625 C 6.890625 0.078125 6.082031 0.25 5.15625 0.25 Z M 5.171875 -2.046875 C 5.710938 -2.046875 6.132812 -2.222656 6.4375 -2.578125 C 6.738281 -2.929688 6.890625 -3.484375 6.890625 -4.234375 C 6.890625 -5.003906 6.734375 -5.566406 6.421875 -5.921875 C 6.109375 -6.285156 5.675781 -6.46875 5.125 -6.46875 C 4.570312 -6.46875 4.144531 -6.289062 3.84375 -5.9375 C 3.539062 -5.582031 3.390625 -5.023438 3.390625 -4.265625 C 3.390625 -3.503906 3.546875 -2.941406 3.859375 -2.578125 C 4.179688 -2.222656 4.617188 -2.046875 5.171875 -2.046875 Z M 5.171875 -2.046875 "/></g></g></g><g fill="#000000" fill-opacity="1"><g transform="translate(92.798464, 145.597269)"><g><path d="M 10.140625 -1.890625 C 10.191406 -1.703125 10.21875 -1.492188 10.21875 -1.265625 C 10.21875 -0.742188 10.070312 -0.359375 9.78125 -0.109375 C 9.613281 0.015625 9.414062 0.0976562 9.1875 0.140625 C 8.96875 0.191406 8.71875 0.21875 8.4375 0.21875 C 7.9375 0.21875 7.523438 0.132812 7.203125 -0.03125 C 6.890625 -0.195312 6.660156 -0.476562 6.515625 -0.875 C 6.222656 -0.539062 5.847656 -0.269531 5.390625 -0.0625 C 4.929688 0.144531 4.445312 0.25 3.9375 0.25 C 1.875 0.25 0.84375 -0.96875 0.84375 -3.40625 L 0.84375 -8.59375 C 0.988281 -8.613281 1.15625 -8.628906 1.34375 -8.640625 C 1.539062 -8.660156 1.734375 -8.671875 1.921875 -8.671875 C 2.367188 -8.671875 2.710938 -8.628906 2.953125 -8.546875 C 3.203125 -8.460938 3.378906 -8.3125 3.484375 -8.09375 C 3.597656 -7.882812 3.65625 -7.570312 3.65625 -7.15625 L 3.65625 -3.703125 C 3.65625 -3.097656 3.765625 -2.671875 3.984375 -2.421875 C 4.203125 -2.171875 4.515625 -2.046875 4.921875 -2.046875 C 5.191406 -2.046875 5.453125 -2.101562 5.703125 -2.21875 C 5.960938 -2.34375 6.179688 -2.5 6.359375 -2.6875 L 6.359375 -8.59375 C 6.492188 -8.613281 6.660156 -8.628906 6.859375 -8.640625 C 7.054688 -8.660156 7.242188 -8.671875 7.421875 -8.671875 C 7.859375 -8.671875 8.203125 -8.617188 8.453125 -8.515625 C 8.703125 -8.410156 8.882812 -8.238281 9 -8 C 9.113281 -7.757812 9.171875 -7.4375 9.171875 -7.03125 L 9.171875 -2.546875 C 9.171875 -2.273438 9.207031 -2.082031 9.28125 -1.96875 C 9.363281 -1.863281 9.515625 -1.8125 9.734375 -1.8125 C 9.878906 -1.8125 10.015625 -1.835938 10.140625 -1.890625 Z M 10.140625 -1.890625 "/></g></g></g><g fill="#000000" fill-opacity="1"><g transform="translate(103.179971, 145.597269)"><g><path d="M 10.546875 -1.890625 C 10.585938 -1.679688 10.609375 -1.476562 10.609375 -1.28125 C 10.609375 -0.738281 10.457031 -0.347656 10.15625 -0.109375 C 10.007812 0.015625 9.820312 0.0976562 9.59375 0.140625 C 9.363281 0.179688 9.101562 0.203125 8.8125 0.203125 C 8.363281 0.203125 7.988281 0.132812 7.6875 0 C 7.382812 -0.125 7.148438 -0.351562 6.984375 -0.6875 C 6.816406 -1.019531 6.734375 -1.472656 6.734375 -2.046875 L 6.734375 -4.859375 C 6.734375 -5.460938 6.613281 -5.878906 6.375 -6.109375 C 6.132812 -6.347656 5.800781 -6.46875 5.375 -6.46875 C 5.144531 -6.46875 4.90625 -6.421875 4.65625 -6.328125 C 4.414062 -6.234375 4.207031 -6.117188 4.03125 -5.984375 L 4.03125 0.0625 C 3.90625 0.0820312 3.742188 0.0976562 3.546875 0.109375 C 3.347656 0.128906 3.148438 0.140625 2.953125 0.140625 C 2.503906 0.140625 2.15625 0.0976562 1.90625 0.015625 C 1.664062 -0.0664062 1.488281 -0.21875 1.375 -0.4375 C 1.269531 -0.65625 1.21875 -0.96875 1.21875 -1.375 L 1.21875 -5.921875 C 1.21875 -6.171875 1.171875 -6.351562 1.078125 -6.46875 C 0.992188 -6.582031 0.847656 -6.640625 0.640625 -6.640625 C 0.484375 -6.640625 0.347656 -6.625 0.234375 -6.59375 C 0.179688 -6.757812 0.15625 -6.960938 0.15625 -7.203125 C 0.15625 -7.710938 0.300781 -8.078125 0.59375 -8.296875 C 0.894531 -8.546875 1.347656 -8.671875 1.953125 -8.671875 C 2.441406 -8.671875 2.835938 -8.59375 3.140625 -8.4375 C 3.453125 -8.28125 3.6875 -8.019531 3.84375 -7.65625 C 4.125 -7.988281 4.488281 -8.253906 4.9375 -8.453125 C 5.394531 -8.660156 5.890625 -8.765625 6.421875 -8.765625 C 8.503906 -8.765625 9.546875 -7.535156 9.546875 -5.078125 L 9.546875 -2.5625 C 9.546875 -2.289062 9.585938 -2.097656 9.671875 -1.984375 C 9.753906 -1.878906 9.898438 -1.828125 10.109375 -1.828125 C 10.285156 -1.828125 10.429688 -1.847656 10.546875 -1.890625 Z M 10.546875 -1.890625 "/></g></g></g><g fill="#000000" fill-opacity="1"><g transform="translate(113.8654, 145.597269)"><g><path d="M 10.421875 -1.890625 C 10.441406 -1.785156 10.457031 -1.679688 10.46875 -1.578125 C 10.488281 -1.484375 10.5 -1.382812 10.5 -1.28125 C 10.5 -0.75 10.347656 -0.359375 10.046875 -0.109375 C 9.890625 0.015625 9.695312 0.0976562 9.46875 0.140625 C 9.238281 0.179688 8.976562 0.203125 8.6875 0.203125 C 8.21875 0.203125 7.828125 0.132812 7.515625 0 C 7.210938 -0.144531 6.984375 -0.394531 6.828125 -0.75 C 6.515625 -0.414062 6.140625 -0.164062 5.703125 0 C 5.273438 0.164062 4.804688 0.25 4.296875 0.25 C 3.617188 0.25 2.992188 0.078125 2.421875 -0.265625 C 1.847656 -0.617188 1.394531 -1.132812 1.0625 -1.8125 C 0.726562 -2.488281 0.5625 -3.296875 0.5625 -4.234375 C 0.5625 -5.179688 0.734375 -6 1.078125 -6.6875 C 1.429688 -7.375 1.898438 -7.890625 2.484375 -8.234375 C 3.066406 -8.585938 3.707031 -8.765625 4.40625 -8.765625 C 4.820312 -8.765625 5.210938 -8.695312 5.578125 -8.5625 C 5.953125 -8.425781 6.296875 -8.222656 6.609375 -7.953125 L 6.609375 -11.71875 C 6.691406 -11.738281 6.847656 -11.757812 7.078125 -11.78125 C 7.304688 -11.800781 7.515625 -11.8125 7.703125 -11.8125 C 8.148438 -11.8125 8.492188 -11.765625 8.734375 -11.671875 C 8.984375 -11.585938 9.160156 -11.4375 9.265625 -11.21875 C 9.378906 -11 9.4375 -10.6875 9.4375 -10.28125 L 9.4375 -2.5625 C 9.4375 -2.289062 9.472656 -2.097656 9.546875 -1.984375 C 9.617188 -1.878906 9.765625 -1.828125 9.984375 -1.828125 C 10.148438 -1.828125 10.296875 -1.847656 10.421875 -1.890625 Z M 3.40625 -4.25 C 3.40625 -3.789062 3.484375 -3.394531 3.640625 -3.0625 C 3.796875 -2.726562 4.007812 -2.472656 4.28125 -2.296875 C 4.5625 -2.128906 4.875 -2.046875 5.21875 -2.046875 C 5.476562 -2.046875 5.722656 -2.085938 5.953125 -2.171875 C 6.191406 -2.253906 6.410156 -2.378906 6.609375 -2.546875 L 6.609375 -5.96875 C 6.203125 -6.300781 5.734375 -6.46875 5.203125 -6.46875 C 4.847656 -6.46875 4.535156 -6.378906 4.265625 -6.203125 C 4.003906 -6.035156 3.796875 -5.78125 3.640625 -5.4375 C 3.484375 -5.101562 3.40625 -4.707031 3.40625 -4.25 Z M 3.40625 -4.25 "/></g></g></g><g fill="#000000" fill-opacity="1"><g transform="translate(124.518842, 145.597269)"><g><path d="M 4.03125 0.25 C 3.4375 0.25 2.878906 0.191406 2.359375 0.078125 C 1.835938 -0.0234375 1.40625 -0.175781 1.0625 -0.375 C 0.863281 -0.476562 0.71875 -0.59375 0.625 -0.71875 C 0.539062 -0.851562 0.5 -1.015625 0.5 -1.203125 C 0.5 -1.546875 0.707031 -1.992188 1.125 -2.546875 C 1.457031 -2.296875 1.878906 -2.09375 2.390625 -1.9375 C 2.898438 -1.78125 3.421875 -1.703125 3.953125 -1.703125 C 4.910156 -1.703125 5.390625 -1.984375 5.390625 -2.546875 C 5.390625 -2.703125 5.335938 -2.832031 5.234375 -2.9375 C 5.140625 -3.039062 4.988281 -3.125 4.78125 -3.1875 C 4.582031 -3.25 4.296875 -3.304688 3.921875 -3.359375 C 3.253906 -3.460938 2.6875 -3.601562 2.21875 -3.78125 C 1.75 -3.96875 1.367188 -4.242188 1.078125 -4.609375 C 0.785156 -4.984375 0.640625 -5.472656 0.640625 -6.078125 C 0.640625 -6.628906 0.796875 -7.109375 1.109375 -7.515625 C 1.421875 -7.921875 1.867188 -8.226562 2.453125 -8.4375 C 3.046875 -8.65625 3.742188 -8.765625 4.546875 -8.765625 C 5.546875 -8.765625 6.382812 -8.59375 7.0625 -8.25 C 7.3125 -8.144531 7.492188 -8.019531 7.609375 -7.875 C 7.734375 -7.726562 7.796875 -7.566406 7.796875 -7.390625 C 7.796875 -7.210938 7.738281 -7.015625 7.625 -6.796875 C 7.519531 -6.585938 7.375 -6.347656 7.1875 -6.078125 C 6.851562 -6.316406 6.441406 -6.503906 5.953125 -6.640625 C 5.472656 -6.773438 4.988281 -6.84375 4.5 -6.84375 C 4.101562 -6.84375 3.796875 -6.773438 3.578125 -6.640625 C 3.367188 -6.515625 3.265625 -6.335938 3.265625 -6.109375 C 3.265625 -5.953125 3.3125 -5.816406 3.40625 -5.703125 C 3.507812 -5.597656 3.660156 -5.515625 3.859375 -5.453125 C 4.066406 -5.390625 4.351562 -5.332031 4.71875 -5.28125 C 5.375 -5.1875 5.941406 -5.050781 6.421875 -4.875 C 6.910156 -4.707031 7.3125 -4.4375 7.625 -4.0625 C 7.9375 -3.695312 8.09375 -3.207031 8.09375 -2.59375 C 8.09375 -2.019531 7.941406 -1.519531 7.640625 -1.09375 C 7.335938 -0.664062 6.882812 -0.332031 6.28125 -0.09375 C 5.675781 0.132812 4.925781 0.25 4.03125 0.25 Z M 4.03125 0.25 "/></g></g></g><g clip-path="url(#5698060335)"><path fill="#7ed957" d="M 48.40625 158.03125 C 48.40625 164.125 43.464844 169.0625 37.371094 169.0625 C 31.28125 169.0625 26.339844 164.125 26.339844 158.03125 C 26.339844 151.9375 31.28125 146.996094 37.371094 146.996094 C 43.464844 146.996094 48.40625 151.9375 48.40625 158.03125 Z M 48.40625 158.03125 " fill-opacity="1" fill-rule="nonzero"/></g><path fill="#ffffff" d="M 34.789062 153.625 L 34.789062 162.625 L 41.863281 158.125 Z M 34.789062 153.625 " fill-opacity="1" fill-rule="nonzero"/></svg>