<svg xmlns="http://www.w3.org/2000/svg" xmlns:xlink="http://www.w3.org/1999/xlink" width="600" zoomAndPan="magnify" viewBox="0 0 450 225" height="300" preserveAspectRatio="xMidYMid meet" version="1.0"><defs><g/><clipPath id="88c4e8aa46"><path d="M 68.296875 12.214844 L 381.703125 12.214844 L 381.703125 197.445312 L 68.296875 197.445312 Z M 68.296875 12.214844 " clip-rule="nonzero"/></clipPath><clipPath id="8dad6acb0a"><path d="M 225 12.214844 C 311.539062 12.214844 381.703125 53.671875 381.703125 104.832031 C 381.703125 155.992188 311.539062 197.445312 225 197.445312 C 138.460938 197.445312 68.296875 155.992188 68.296875 104.832031 C 68.296875 53.671875 138.460938 12.214844 225 12.214844 Z M 225 12.214844 " clip-rule="nonzero"/></clipPath><clipPath id="e5f8d3bbc5"><path d="M 0.296875 0.214844 L 313.703125 0.214844 L 313.703125 185.445312 L 0.296875 185.445312 Z M 0.296875 0.214844 " clip-rule="nonzero"/></clipPath><clipPath id="32c6a39a4a"><path d="M 157 0.214844 C 243.539062 0.214844 313.703125 41.671875 313.703125 92.832031 C 313.703125 143.992188 243.539062 185.445312 157 185.445312 C 70.460938 185.445312 0.296875 143.992188 0.296875 92.832031 C 0.296875 41.671875 70.460938 0.214844 157 0.214844 Z M 157 0.214844 " clip-rule="nonzero"/></clipPath><clipPath id="209f37acec"><rect x="0" width="314" y="0" height="186"/></clipPath><clipPath id="e8e7fc439e"><path d="M 68.296875 12.214844 L 381.699219 12.214844 L 381.699219 197.441406 L 68.296875 197.441406 Z M 68.296875 12.214844 " clip-rule="nonzero"/></clipPath><clipPath id="ec7ab08e7a"><path d="M 225 12.214844 C 311.535156 12.214844 381.699219 53.671875 381.699219 104.828125 C 381.699219 155.988281 311.535156 197.441406 225 197.441406 C 138.460938 197.441406 68.296875 155.988281 68.296875 104.828125 C 68.296875 53.671875 138.460938 12.214844 225 12.214844 Z M 225 12.214844 " clip-rule="nonzero"/></clipPath><clipPath id="bef6e3f8d9"><path d="M 94.207031 31.15625 L 355.792969 31.15625 L 355.792969 178.738281 L 94.207031 178.738281 Z M 94.207031 31.15625 " clip-rule="nonzero"/></clipPath><clipPath id="e57acd6108"><path d="M 225 31.15625 C 297.230469 31.15625 355.792969 64.132812 355.792969 104.832031 C 355.792969 145.53125 297.230469 178.507812 225 178.507812 C 152.769531 178.507812 94.207031 145.53125 94.207031 104.832031 C 94.207031 64.132812 152.769531 31.15625 225 31.15625 Z M 225 31.15625 " clip-rule="nonzero"/></clipPath><clipPath id="4014512132"><path d="M 0.207031 0.15625 L 261.792969 0.15625 L 261.792969 147.558594 L 0.207031 147.558594 Z M 0.207031 0.15625 " clip-rule="nonzero"/></clipPath><clipPath id="453aaf4c89"><path d="M 131 0.15625 C 203.230469 0.15625 261.792969 33.132812 261.792969 73.832031 C 261.792969 114.53125 203.230469 147.507812 131 147.507812 C 58.769531 147.507812 0.207031 114.53125 0.207031 73.832031 C 0.207031 33.132812 58.769531 0.15625 131 0.15625 Z M 131 0.15625 " clip-rule="nonzero"/></clipPath><clipPath id="3918952aec"><rect x="0" width="262" y="0" height="148"/></clipPath><clipPath id="458c6ab93a"><path d="M 94.207031 31.15625 L 355.898438 31.15625 L 355.898438 178.15625 L 94.207031 178.15625 Z M 94.207031 31.15625 " clip-rule="nonzero"/></clipPath><clipPath id="3a8cfe51e3"><path d="M 224.996094 31.15625 C 297.222656 31.15625 355.78125 64.132812 355.78125 104.832031 C 355.78125 145.527344 297.222656 178.503906 224.996094 178.503906 C 152.769531 178.503906 94.207031 145.527344 94.207031 104.832031 C 94.207031 64.132812 152.769531 31.15625 224.996094 31.15625 Z M 224.996094 31.15625 " clip-rule="nonzero"/></clipPath><clipPath id="bd02a9d5db"><path d="M 217.257812 169.570312 L 222.507812 169.570312 L 222.507812 199.570312 L 217.257812 199.570312 Z M 217.257812 169.570312 " clip-rule="nonzero"/></clipPath><clipPath id="196a12ba86"><path d="M 196.335938 162.464844 L 218.085938 162.464844 L 218.085938 184.214844 L 196.335938 184.214844 Z M 196.335938 162.464844 " clip-rule="nonzero"/></clipPath><clipPath id="abef8438a4"><path d="M 222 183 L 242.765625 183 L 242.765625 197 L 222 197 Z M 222 183 " clip-rule="nonzero"/></clipPath><clipPath id="afa4d1f118"><path d="M 222 182 L 242.765625 182 L 242.765625 197 L 222 197 Z M 222 182 " clip-rule="nonzero"/></clipPath><clipPath id="360dd54761"><path d="M 239 186 L 242.765625 186 L 242.765625 189 L 239 189 Z M 239 186 " clip-rule="nonzero"/></clipPath><clipPath id="fc44b1b193"><path d="M 239 186 L 242.765625 186 L 242.765625 190 L 239 190 Z M 239 186 " clip-rule="nonzero"/></clipPath><clipPath id="7a0a912f1a"><path d="M 220.265625 182 L 226 182 L 226 203.898438 L 220.265625 203.898438 Z M 220.265625 182 " clip-rule="nonzero"/></clipPath><clipPath id="7198646f6f"><path d="M 220.265625 181 L 226 181 L 226 203.898438 L 220.265625 203.898438 Z M 220.265625 181 " clip-rule="nonzero"/></clipPath></defs><rect x="-45" width="540" fill="#ffffff" y="-22.5" height="270" fill-opacity="1"/><rect x="-45" width="540" fill="#ffffff" y="-22.5" height="270" fill-opacity="1"/><g clip-path="url(#88c4e8aa46)"><g clip-path="url(#8dad6acb0a)"><g transform="matrix(1, 0, 0, 1, 68, 12)"><g clip-path="url(#209f37acec)"><g clip-path="url(#e5f8d3bbc5)"><g clip-path="url(#32c6a39a4a)"><path fill="#ffffff" d="M 0.296875 0.214844 L 313.703125 0.214844 L 313.703125 185.445312 L 0.296875 185.445312 Z M 0.296875 0.214844 " fill-opacity="1" fill-rule="nonzero"/></g></g></g></g></g></g><g clip-path="url(#e8e7fc439e)"><g clip-path="url(#ec7ab08e7a)"><path stroke-linecap="butt" transform="matrix(0.75, 0, 0, 0.75, 68.296485, 12.216513)" fill="none" stroke-linejoin="miter" d="M 208.938042 -0.00222632 C 324.318262 -0.00222632 417.870356 55.273821 417.870356 123.482162 C 417.870356 191.695711 324.318262 246.96655 208.938042 246.96655 C 93.552613 246.96655 0.000519794 191.695711 0.000519794 123.482162 C 0.000519794 55.273821 93.552613 -0.00222632 208.938042 -0.00222632 Z M 208.938042 -0.00222632 " stroke="#000000" stroke-width="8" stroke-opacity="1" stroke-miterlimit="4"/></g></g><g clip-path="url(#bef6e3f8d9)"><g clip-path="url(#e57acd6108)"><g transform="matrix(1, 0, 0, 1, 94, 31)"><g clip-path="url(#3918952aec)"><g clip-path="url(#4014512132)"><g clip-path="url(#453aaf4c89)"><path fill="#ffffff" d="M 0.207031 0.15625 L 261.792969 0.15625 L 261.792969 147.445312 L 0.207031 147.445312 Z M 0.207031 0.15625 " fill-opacity="1" fill-rule="nonzero"/></g></g></g></g></g></g><g clip-path="url(#458c6ab93a)"><g clip-path="url(#3a8cfe51e3)"><path stroke-linecap="butt" transform="matrix(0.75, 0, 0, 0.75, 94.207986, 31.157429)" fill="none" stroke-linejoin="miter" d="M 174.384163 -0.00157246 C 270.686256 -0.00157246 348.764389 43.967182 348.764389 98.232813 C 348.764389 152.493235 270.686256 196.46199 174.384163 196.46199 C 78.082069 196.46199 -0.00127257 152.493235 -0.00127257 98.232813 C -0.00127257 43.967182 78.082069 -0.00157246 174.384163 -0.00157246 Z M 174.384163 -0.00157246 " stroke="#000000" stroke-width="8" stroke-opacity="1" stroke-miterlimit="4"/></g></g><g clip-path="url(#bd02a9d5db)"><path fill="#262626" d="M 218.453125 199.570312 L 218.453125 198.570312 L 217.5 198.570312 L 217.5 197.570312 L 218.453125 197.570312 L 218.453125 196.570312 L 217.5 196.570312 L 217.5 195.570312 L 218.453125 195.570312 L 218.453125 194.570312 L 217.5 194.570312 L 217.5 193.570312 L 218.453125 193.570312 L 218.453125 192.570312 L 217.5 192.570312 L 217.5 191.570312 L 218.453125 191.570312 L 218.453125 190.570312 L 217.5 190.570312 L 217.5 189.570312 L 218.453125 189.570312 L 218.453125 188.570312 L 217.5 188.570312 L 217.5 187.570312 L 218.453125 187.570312 L 218.453125 186.570312 L 217.5 186.570312 L 217.5 185.570312 L 218.453125 185.570312 L 218.453125 184.570312 L 217.5 184.570312 L 217.5 183.570312 L 218.453125 183.570312 L 218.453125 182.570312 L 217.5 182.570312 L 217.5 181.570312 L 218.453125 181.570312 L 218.453125 180.570312 L 217.5 180.570312 L 217.5 179.570312 L 218.453125 179.570312 L 218.453125 178.570312 L 217.5 178.570312 L 217.5 177.570312 L 218.453125 177.570312 L 218.453125 176.570312 L 217.5 176.570312 L 217.5 175.570312 L 218.453125 175.570312 L 218.453125 174.570312 L 217.5 174.570312 L 217.5 173.570312 L 218.453125 173.570312 L 218.453125 172.570312 L 217.5 172.570312 L 217.5 171.570312 L 218.453125 171.570312 L 218.453125 170.570312 L 217.5 170.570312 L 217.5 169.570312 L 217.265625 169.570312 L 217.265625 199.570312 Z M 218.453125 170.570312 L 219.40625 170.570312 L 219.40625 169.570312 L 218.453125 169.570312 Z M 219.40625 170.570312 L 219.40625 171.570312 L 220.359375 171.570312 L 220.359375 170.570312 Z M 220.359375 170.570312 L 221.3125 170.570312 L 221.3125 169.570312 L 220.359375 169.570312 Z M 221.3125 170.570312 L 221.3125 171.570312 L 222.265625 171.570312 L 222.265625 172.570312 L 221.3125 172.570312 L 221.3125 173.570312 L 222.265625 173.570312 L 222.265625 174.570312 L 221.3125 174.570312 L 221.3125 175.570312 L 222.265625 175.570312 L 222.265625 176.570312 L 221.3125 176.570312 L 221.3125 177.570312 L 222.265625 177.570312 L 222.265625 178.570312 L 221.3125 178.570312 L 221.3125 179.570312 L 222.265625 179.570312 L 222.265625 180.570312 L 221.3125 180.570312 L 221.3125 181.570312 L 222.265625 181.570312 L 222.265625 182.570312 L 221.3125 182.570312 L 221.3125 183.570312 L 222.265625 183.570312 L 222.265625 184.570312 L 221.3125 184.570312 L 221.3125 185.570312 L 222.265625 185.570312 L 222.265625 186.570312 L 221.3125 186.570312 L 221.3125 187.570312 L 222.265625 187.570312 L 222.265625 188.570312 L 221.3125 188.570312 L 221.3125 189.570312 L 222.265625 189.570312 L 222.265625 190.570312 L 221.3125 190.570312 L 221.3125 191.570312 L 222.265625 191.570312 L 222.265625 192.570312 L 221.3125 192.570312 L 221.3125 193.570312 L 222.265625 193.570312 L 222.265625 194.570312 L 221.3125 194.570312 L 221.3125 195.570312 L 222.265625 195.570312 L 222.265625 196.570312 L 221.3125 196.570312 L 221.3125 197.570312 L 222.265625 197.570312 L 222.265625 198.570312 L 221.3125 198.570312 L 221.3125 199.570312 L 222.503906 199.570312 L 222.503906 169.570312 L 222.265625 169.570312 L 222.265625 170.570312 Z M 221.3125 198.570312 L 221.3125 197.570312 L 220.359375 197.570312 L 220.359375 198.570312 Z M 220.359375 198.570312 L 219.40625 198.570312 L 219.40625 199.570312 L 220.359375 199.570312 Z M 219.40625 198.570312 L 219.40625 197.570312 L 218.453125 197.570312 L 218.453125 198.570312 Z M 218.453125 172.570312 L 219.40625 172.570312 L 219.40625 171.570312 L 218.453125 171.570312 Z M 218.453125 174.570312 L 219.40625 174.570312 L 219.40625 173.570312 L 218.453125 173.570312 Z M 218.453125 176.570312 L 219.40625 176.570312 L 219.40625 175.570312 L 218.453125 175.570312 Z M 218.453125 178.570312 L 219.40625 178.570312 L 219.40625 177.570312 L 218.453125 177.570312 Z M 218.453125 180.570312 L 219.40625 180.570312 L 219.40625 179.570312 L 218.453125 179.570312 Z M 218.453125 182.570312 L 219.40625 182.570312 L 219.40625 181.570312 L 218.453125 181.570312 Z M 218.453125 184.570312 L 219.40625 184.570312 L 219.40625 183.570312 L 218.453125 183.570312 Z M 218.453125 186.570312 L 219.40625 186.570312 L 219.40625 185.570312 L 218.453125 185.570312 Z M 218.453125 188.570312 L 219.40625 188.570312 L 219.40625 187.570312 L 218.453125 187.570312 Z M 218.453125 190.570312 L 219.40625 190.570312 L 219.40625 189.570312 L 218.453125 189.570312 Z M 218.453125 192.570312 L 219.40625 192.570312 L 219.40625 191.570312 L 218.453125 191.570312 Z M 218.453125 194.570312 L 219.40625 194.570312 L 219.40625 193.570312 L 218.453125 193.570312 Z M 218.453125 196.570312 L 219.40625 196.570312 L 219.40625 195.570312 L 218.453125 195.570312 Z M 220.359375 171.570312 L 220.359375 172.570312 L 221.3125 172.570312 L 221.3125 171.570312 Z M 219.40625 172.570312 L 219.40625 173.570312 L 220.359375 173.570312 L 220.359375 172.570312 Z M 221.3125 195.570312 L 220.359375 195.570312 L 220.359375 196.570312 L 221.3125 196.570312 Z M 221.3125 193.570312 L 220.359375 193.570312 L 220.359375 194.570312 L 221.3125 194.570312 Z M 221.3125 191.570312 L 220.359375 191.570312 L 220.359375 192.570312 L 221.3125 192.570312 Z M 221.3125 189.570312 L 220.359375 189.570312 L 220.359375 190.570312 L 221.3125 190.570312 Z M 221.3125 187.570312 L 220.359375 187.570312 L 220.359375 188.570312 L 221.3125 188.570312 Z M 221.3125 185.570312 L 220.359375 185.570312 L 220.359375 186.570312 L 221.3125 186.570312 Z M 221.3125 183.570312 L 220.359375 183.570312 L 220.359375 184.570312 L 221.3125 184.570312 Z M 221.3125 181.570312 L 220.359375 181.570312 L 220.359375 182.570312 L 221.3125 182.570312 Z M 221.3125 179.570312 L 220.359375 179.570312 L 220.359375 180.570312 L 221.3125 180.570312 Z M 221.3125 177.570312 L 220.359375 177.570312 L 220.359375 178.570312 L 221.3125 178.570312 Z M 221.3125 175.570312 L 220.359375 175.570312 L 220.359375 176.570312 L 221.3125 176.570312 Z M 221.3125 173.570312 L 220.359375 173.570312 L 220.359375 174.570312 L 221.3125 174.570312 Z M 220.359375 197.570312 L 220.359375 196.570312 L 219.40625 196.570312 L 219.40625 197.570312 Z M 219.40625 175.570312 L 220.359375 175.570312 L 220.359375 174.570312 L 219.40625 174.570312 Z M 219.40625 177.570312 L 220.359375 177.570312 L 220.359375 176.570312 L 219.40625 176.570312 Z M 219.40625 179.570312 L 220.359375 179.570312 L 220.359375 178.570312 L 219.40625 178.570312 Z M 219.40625 181.570312 L 220.359375 181.570312 L 220.359375 180.570312 L 219.40625 180.570312 Z M 219.40625 183.570312 L 220.359375 183.570312 L 220.359375 182.570312 L 219.40625 182.570312 Z M 219.40625 185.570312 L 220.359375 185.570312 L 220.359375 184.570312 L 219.40625 184.570312 Z M 219.40625 187.570312 L 220.359375 187.570312 L 220.359375 186.570312 L 219.40625 186.570312 Z M 219.40625 189.570312 L 220.359375 189.570312 L 220.359375 188.570312 L 219.40625 188.570312 Z M 219.40625 191.570312 L 220.359375 191.570312 L 220.359375 190.570312 L 219.40625 190.570312 Z M 219.40625 193.570312 L 220.359375 193.570312 L 220.359375 192.570312 L 219.40625 192.570312 Z M 219.40625 195.570312 L 220.359375 195.570312 L 220.359375 194.570312 L 219.40625 194.570312 Z M 219.40625 195.570312 " fill-opacity="1" fill-rule="evenodd"/></g><g clip-path="url(#196a12ba86)"><path fill="#7ed957" d="M 218.402344 173.5 C 218.402344 179.59375 213.464844 184.53125 207.371094 184.53125 C 201.277344 184.53125 196.335938 179.59375 196.335938 173.5 C 196.335938 167.40625 201.277344 162.464844 207.371094 162.464844 C 213.464844 162.464844 218.402344 167.40625 218.402344 173.5 Z M 218.402344 173.5 " fill-opacity="1" fill-rule="nonzero"/></g><path fill="#ffffff" d="M 204.785156 169.089844 L 204.785156 178.09375 L 211.859375 173.59375 Z M 204.785156 169.089844 " fill-opacity="1" fill-rule="nonzero"/><g clip-path="url(#abef8438a4)"><path fill="#ffffff" d="M 222.316406 196.46875 C 224.441406 187.9375 224.273438 187.296875 224.835938 183.96875 C 233.492188 180.65625 233.308594 187.210938 242.523438 186.519531 C 242.757812 188.050781 240.070312 194.03125 234.785156 194.34375 C 229.503906 194.660156 225.351562 193.058594 222.316406 196.464844 Z M 222.316406 196.46875 " fill-opacity="1" fill-rule="evenodd"/></g><g clip-path="url(#afa4d1f118)"><path fill="#000000" d="M 222.179688 196.433594 C 224.304688 187.910156 224.132812 187.277344 224.699219 183.945312 C 224.707031 183.894531 224.746094 183.851562 224.792969 183.832031 C 229.179688 182.15625 231.328125 182.980469 233.542969 184.132812 C 235.710938 185.261719 237.949219 186.71875 242.515625 186.375 C 242.589844 186.371094 242.65625 186.421875 242.667969 186.5 C 242.765625 187.125 242.394531 188.496094 241.546875 189.917969 C 240.296875 192.035156 238.019531 194.296875 234.796875 194.492188 C 232.152344 194.648438 229.796875 194.328125 227.71875 194.394531 C 225.679688 194.457031 223.917969 194.894531 222.429688 196.566406 C 222.382812 196.613281 222.3125 196.628906 222.253906 196.597656 C 222.195312 196.566406 222.164062 196.5 222.183594 196.433594 Z M 222.589844 195.980469 C 224.050781 194.5625 225.757812 194.167969 227.707031 194.101562 C 229.78125 194.039062 232.140625 194.359375 234.777344 194.203125 C 237.898438 194.015625 240.09375 191.820312 241.300781 189.773438 C 242.042969 188.515625 242.417969 187.316406 242.394531 186.679688 C 237.84375 186.984375 235.589844 185.53125 233.40625 184.394531 C 231.261719 183.277344 229.183594 182.484375 224.96875 184.078125 C 224.429688 187.273438 224.558594 188.007812 222.589844 195.984375 Z M 222.589844 195.980469 " fill-opacity="1" fill-rule="evenodd"/></g><path fill="#000000" d="M 224.277344 187.609375 C 224.488281 186.332031 224.597656 185.398438 224.839844 183.972656 C 226.464844 183.347656 227.78125 183.074219 228.902344 183.035156 C 228.632812 183.957031 228.28125 185.125 227.828125 186.761719 C 226.726562 186.820312 225.554688 187.070312 224.277344 187.609375 Z M 224.277344 187.609375 " fill-opacity="1" fill-rule="evenodd"/><path fill="#000000" d="M 224.136719 187.582031 C 224.347656 186.308594 224.457031 185.375 224.699219 183.945312 C 224.707031 183.894531 224.746094 183.851562 224.792969 183.832031 C 226.433594 183.203125 227.765625 182.929688 228.898438 182.886719 C 228.949219 182.886719 228.988281 182.90625 229.019531 182.941406 C 229.046875 182.980469 229.054688 183.027344 229.042969 183.074219 C 228.773438 183.992188 228.421875 185.164062 227.96875 186.792969 C 227.953125 186.855469 227.898438 186.894531 227.839844 186.898438 C 226.753906 186.957031 225.597656 187.203125 224.335938 187.734375 C 224.289062 187.753906 224.234375 187.746094 224.191406 187.71875 C 224.152344 187.683594 224.128906 187.632812 224.140625 187.578125 Z M 224.464844 187.375 C 225.625 186.910156 226.703125 186.683594 227.71875 186.617188 C 228.125 185.148438 228.449219 184.0625 228.707031 183.191406 C 227.660156 183.253906 226.445312 183.519531 224.972656 184.078125 C 224.753906 185.367188 224.644531 186.253906 224.464844 187.378906 Z M 224.464844 187.375 " fill-opacity="1" fill-rule="evenodd"/><path fill="#000000" d="M 233 184.019531 C 234.355469 184.6875 235.675781 185.546875 237.5 186.074219 C 237.1875 186.808594 236.820312 187.664062 236.394531 188.675781 C 235.78125 188.539062 235.136719 188.359375 234.453125 188.132812 C 233.699219 187.882812 232.9375 187.609375 232.15625 187.375 C 232.460938 186.144531 232.71875 185.179688 233 184.023438 Z M 233 184.019531 " fill-opacity="1" fill-rule="evenodd"/><path fill="#000000" d="M 233.0625 183.894531 C 234.410156 184.558594 235.726562 185.410156 237.542969 185.9375 C 237.582031 185.949219 237.617188 185.980469 237.632812 186.015625 C 237.648438 186.054688 237.648438 186.097656 237.632812 186.136719 C 237.316406 186.867188 236.949219 187.726562 236.523438 188.734375 C 236.496094 188.796875 236.425781 188.835938 236.359375 188.820312 C 235.746094 188.683594 235.09375 188.507812 234.402344 188.273438 C 233.65625 188.019531 232.894531 187.75 232.113281 187.515625 C 232.039062 187.492188 231.996094 187.417969 232.011719 187.339844 C 232.316406 186.109375 232.574219 185.144531 232.855469 183.988281 C 232.863281 183.949219 232.894531 183.910156 232.933594 183.894531 C 232.972656 183.875 233.015625 183.875 233.058594 183.894531 Z M 233.09375 184.234375 C 232.84375 185.269531 232.601562 186.167969 232.328125 187.273438 C 233.066406 187.5 233.785156 187.753906 234.496094 187.992188 C 235.128906 188.207031 235.734375 188.378906 236.304688 188.507812 C 236.683594 187.613281 237.011719 186.839844 237.300781 186.167969 C 235.617188 185.652344 234.363281 184.871094 233.09375 184.234375 Z M 233.09375 184.234375 " fill-opacity="1" fill-rule="evenodd"/><g clip-path="url(#360dd54761)"><path fill="#000000" d="M 240.480469 186.558594 C 241.109375 186.589844 241.785156 186.578125 242.523438 186.519531 C 242.585938 186.933594 242.4375 187.660156 242.089844 188.511719 C 241.285156 188.757812 240.460938 188.914062 239.578125 188.957031 C 239.925781 188.015625 240.226562 187.21875 240.480469 186.554688 Z M 240.480469 186.558594 " fill-opacity="1" fill-rule="evenodd"/></g><g clip-path="url(#fc44b1b193)"><path fill="#000000" d="M 240.488281 186.414062 C 241.109375 186.4375 241.78125 186.429688 242.515625 186.375 C 242.589844 186.371094 242.65625 186.421875 242.667969 186.5 C 242.734375 186.925781 242.589844 187.683594 242.222656 188.570312 C 242.207031 188.609375 242.171875 188.640625 242.128906 188.652344 C 241.316406 188.898438 240.476562 189.058594 239.582031 189.105469 C 239.53125 189.105469 239.484375 189.082031 239.457031 189.042969 C 239.429688 189.003906 239.421875 188.953125 239.441406 188.910156 C 239.789062 187.96875 240.089844 187.171875 240.34375 186.507812 C 240.367188 186.445312 240.421875 186.414062 240.484375 186.417969 Z M 240.578125 186.707031 C 240.347656 187.300781 240.089844 187.996094 239.789062 188.800781 C 240.554688 188.746094 241.277344 188.601562 241.980469 188.394531 C 242.269531 187.6875 242.410156 187.070312 242.394531 186.675781 C 241.746094 186.71875 241.140625 186.726562 240.578125 186.703125 Z M 240.578125 186.707031 " fill-opacity="1" fill-rule="evenodd"/></g><path fill="#000000" d="M 227.828125 186.757812 C 229.394531 186.671875 230.8125 186.964844 232.15625 187.375 C 231.914062 188.363281 231.636719 189.535156 231.304688 191.117188 C 231.257812 191.109375 231.210938 191.101562 231.164062 191.089844 C 229.511719 190.8125 228.019531 190.8125 226.710938 190.992188 C 227.140625 189.296875 227.507812 187.90625 227.828125 186.757812 Z M 227.828125 186.757812 " fill-opacity="1" fill-rule="evenodd"/><path fill="#000000" d="M 227.820312 186.609375 C 229.402344 186.519531 230.835938 186.824219 232.199219 187.230469 C 232.273438 187.253906 232.316406 187.332031 232.296875 187.40625 C 232.054688 188.398438 231.777344 189.5625 231.449219 191.144531 C 231.433594 191.222656 231.359375 191.273438 231.28125 191.257812 C 231.238281 191.25 231.191406 191.242188 231.144531 191.234375 C 229.507812 190.957031 228.035156 190.960938 226.730469 191.136719 C 226.683594 191.144531 226.636719 191.125 226.605469 191.089844 C 226.570312 191.054688 226.5625 191.003906 226.570312 190.957031 C 227.003906 189.261719 227.371094 187.875 227.691406 186.71875 C 227.710938 186.660156 227.761719 186.613281 227.820312 186.613281 Z M 227.941406 186.894531 C 227.640625 187.984375 227.292969 189.269531 226.902344 190.820312 C 228.175781 190.667969 229.609375 190.679688 231.191406 190.945312 L 231.195312 190.945312 C 231.5 189.496094 231.753906 188.40625 231.984375 187.46875 C 230.722656 187.101562 229.394531 186.832031 227.941406 186.894531 Z M 227.941406 186.894531 " fill-opacity="1" fill-rule="evenodd"/><path fill="#000000" d="M 236.390625 188.675781 C 237.554688 188.925781 238.597656 189.011719 239.578125 188.960938 C 239.15625 190.089844 238.671875 191.433594 238.109375 193.03125 C 237.023438 192.808594 235.984375 192.464844 234.941406 192.121094 C 235.488281 190.808594 235.972656 189.667969 236.394531 188.679688 Z M 236.390625 188.675781 " fill-opacity="1" fill-rule="evenodd"/><path fill="#000000" d="M 236.421875 188.53125 C 237.570312 188.78125 238.605469 188.863281 239.570312 188.816406 C 239.617188 188.816406 239.664062 188.835938 239.691406 188.875 C 239.722656 188.917969 239.730469 188.964844 239.710938 189.015625 C 239.292969 190.144531 238.804688 191.484375 238.242188 193.082031 C 238.21875 193.148438 238.148438 193.191406 238.078125 193.175781 C 236.988281 192.953125 235.945312 192.605469 234.890625 192.257812 C 234.855469 192.246094 234.820312 192.21875 234.808594 192.179688 C 234.792969 192.144531 234.789062 192.101562 234.808594 192.066406 C 235.355469 190.753906 235.835938 189.613281 236.261719 188.617188 C 236.285156 188.554688 236.355469 188.515625 236.421875 188.53125 Z M 236.480469 188.84375 C 236.085938 189.773438 235.640625 190.828125 235.132812 192.03125 C 236.085938 192.34375 237.03125 192.652344 238.015625 192.863281 C 238.527344 191.414062 238.976562 190.175781 239.367188 189.121094 C 238.472656 189.144531 237.523438 189.0625 236.476562 188.847656 Z M 236.480469 188.84375 " fill-opacity="1" fill-rule="evenodd"/><path fill="#000000" d="M 225.859375 194.449219 C 224.546875 194.714844 223.367188 195.296875 222.320312 196.472656 C 222.785156 194.605469 223.140625 193.125 223.417969 191.902344 C 224.351562 191.5 225.453125 191.167969 226.714844 190.996094 C 226.453125 192.027344 226.167969 193.171875 225.863281 194.449219 Z M 225.859375 194.449219 " fill-opacity="1" fill-rule="evenodd"/><path fill="#000000" d="M 225.886719 194.59375 C 224.605469 194.855469 223.449219 195.417969 222.425781 196.570312 C 222.378906 196.617188 222.308594 196.632812 222.25 196.601562 C 222.191406 196.570312 222.160156 196.503906 222.179688 196.433594 C 222.644531 194.574219 223 193.085938 223.277344 191.867188 C 223.289062 191.820312 223.316406 191.785156 223.363281 191.765625 C 224.308594 191.363281 225.417969 191.023438 226.695312 190.851562 C 226.742188 190.84375 226.789062 190.859375 226.820312 190.898438 C 226.855469 190.9375 226.863281 190.984375 226.855469 191.03125 C 226.59375 192.0625 226.308594 193.207031 226.003906 194.484375 C 225.988281 194.539062 225.949219 194.582031 225.894531 194.59375 Z M 225.742188 194.324219 C 226.019531 193.167969 226.28125 192.117188 226.515625 191.164062 C 225.390625 191.335938 224.398438 191.640625 223.539062 192 C 223.292969 193.09375 222.984375 194.390625 222.589844 195.980469 C 223.539062 195.058594 224.59375 194.574219 225.742188 194.324219 Z M 225.742188 194.324219 " fill-opacity="1" fill-rule="evenodd"/><path fill="#000000" d="M 233.992188 194.382812 C 232.824219 194.414062 231.710938 194.363281 230.660156 194.316406 C 230.898438 193.078125 231.113281 192.027344 231.304688 191.113281 C 232.59375 191.34375 233.773438 191.730469 234.941406 192.117188 C 234.644531 192.824219 234.328125 193.574219 233.996094 194.382812 Z M 233.992188 194.382812 " fill-opacity="1" fill-rule="evenodd"/><path fill="#000000" d="M 233.996094 194.527344 C 232.824219 194.5625 231.707031 194.515625 230.652344 194.460938 C 230.613281 194.460938 230.570312 194.4375 230.546875 194.40625 C 230.519531 194.371094 230.507812 194.332031 230.515625 194.285156 C 230.753906 193.046875 230.96875 191.992188 231.160156 191.082031 C 231.175781 191.007812 231.25 190.953125 231.328125 190.96875 C 232.625 191.203125 233.808594 191.589844 234.980469 191.980469 C 235.019531 191.992188 235.050781 192.019531 235.066406 192.058594 C 235.085938 192.09375 235.085938 192.136719 235.066406 192.171875 C 234.769531 192.875 234.453125 193.632812 234.121094 194.433594 C 234.097656 194.488281 234.046875 194.519531 233.992188 194.523438 Z M 233.894531 194.242188 C 234.195312 193.519531 234.476562 192.847656 234.746094 192.207031 C 233.671875 191.855469 232.585938 191.503906 231.414062 191.285156 C 231.238281 192.121094 231.046875 193.074219 230.832031 194.179688 C 231.800781 194.226562 232.824219 194.265625 233.890625 194.242188 Z M 233.894531 194.242188 " fill-opacity="1" fill-rule="evenodd"/><g clip-path="url(#7a0a912f1a)"><path fill="#ffffff" d="M 225.710938 182.53125 L 221.503906 203.492188 C 221.472656 203.640625 221.332031 203.734375 221.1875 203.703125 L 220.660156 203.59375 C 220.515625 203.566406 220.421875 203.421875 220.453125 203.277344 L 224.664062 182.320312 C 224.691406 182.171875 224.832031 182.074219 224.976562 182.105469 L 225.503906 182.214844 C 225.648438 182.242188 225.742188 182.386719 225.710938 182.53125 Z M 225.710938 182.53125 " fill-opacity="1" fill-rule="evenodd"/></g><g clip-path="url(#7198646f6f)"><path fill="#000000" d="M 225.851562 182.5625 L 221.644531 203.523438 C 221.597656 203.746094 221.378906 203.894531 221.15625 203.847656 L 220.632812 203.742188 C 220.410156 203.695312 220.265625 203.476562 220.308594 203.25 L 224.523438 182.289062 C 224.566406 182.066406 224.785156 181.917969 225.007812 181.964844 L 225.535156 182.070312 C 225.757812 182.117188 225.902344 182.335938 225.855469 182.5625 Z M 225.570312 182.503906 C 225.585938 182.433594 225.542969 182.367188 225.476562 182.351562 L 224.949219 182.242188 C 224.882812 182.230469 224.816406 182.273438 224.804688 182.339844 L 220.59375 203.308594 C 220.578125 203.378906 220.625 203.445312 220.691406 203.457031 L 221.214844 203.566406 C 221.285156 203.578125 221.351562 203.535156 221.359375 203.46875 Z M 225.570312 182.503906 " fill-opacity="1" fill-rule="evenodd"/></g><path fill="#ffffff" d="M 225.617188 182.886719 L 224.609375 182.679688 C 224.433594 182.484375 224.363281 182.214844 224.414062 181.957031 C 224.507812 181.5 224.953125 181.203125 225.410156 181.296875 C 225.871094 181.390625 226.167969 181.839844 226.074219 182.296875 C 226.023438 182.554688 225.851562 182.769531 225.617188 182.886719 Z M 225.617188 182.886719 " fill-opacity="1" fill-rule="evenodd"/><path fill="#000000" d="M 225.585938 183.027344 L 224.578125 182.824219 C 224.546875 182.816406 224.519531 182.800781 224.5 182.777344 C 224.296875 182.546875 224.210938 182.234375 224.273438 181.929688 C 224.382812 181.394531 224.90625 181.046875 225.441406 181.15625 C 225.980469 181.265625 226.324219 181.792969 226.214844 182.328125 C 226.15625 182.628906 225.957031 182.882812 225.679688 183.019531 C 225.648438 183.027344 225.621094 183.035156 225.589844 183.027344 Z M 225.59375 182.734375 C 225.769531 182.632812 225.894531 182.464844 225.929688 182.265625 C 226.007812 181.890625 225.761719 181.519531 225.378906 181.441406 C 225 181.363281 224.628906 181.609375 224.550781 181.984375 C 224.511719 182.183594 224.558594 182.390625 224.683594 182.546875 L 225.589844 182.734375 Z M 225.59375 182.734375 " fill-opacity="1" fill-rule="evenodd"/><g fill="#000000" fill-opacity="1"><g transform="translate(174.182806, 139.315199)"><g><path d="M 4.734375 -1.953125 C 5.367188 -1.953125 5.859375 -2.066406 6.203125 -2.296875 C 6.546875 -2.535156 6.71875 -2.867188 6.71875 -3.296875 C 6.71875 -3.554688 6.644531 -3.765625 6.5 -3.921875 C 6.363281 -4.085938 6.148438 -4.226562 5.859375 -4.34375 C 5.566406 -4.457031 5.160156 -4.5625 4.640625 -4.65625 C 3.398438 -4.894531 2.414062 -5.285156 1.6875 -5.828125 C 0.957031 -6.367188 0.59375 -7.179688 0.59375 -8.265625 C 0.59375 -8.992188 0.785156 -9.617188 1.171875 -10.140625 C 1.554688 -10.671875 2.097656 -11.078125 2.796875 -11.359375 C 3.492188 -11.640625 4.304688 -11.78125 5.234375 -11.78125 C 6.816406 -11.78125 8.003906 -11.503906 8.796875 -10.953125 C 9.171875 -10.710938 9.359375 -10.394531 9.359375 -10 C 9.359375 -9.757812 9.289062 -9.515625 9.15625 -9.265625 C 9.019531 -9.015625 8.820312 -8.773438 8.5625 -8.546875 C 8.09375 -8.878906 7.570312 -9.128906 7 -9.296875 C 6.425781 -9.472656 5.851562 -9.5625 5.28125 -9.5625 C 4.707031 -9.5625 4.253906 -9.453125 3.921875 -9.234375 C 3.597656 -9.023438 3.4375 -8.75 3.4375 -8.40625 C 3.4375 -8.15625 3.488281 -7.945312 3.59375 -7.78125 C 3.707031 -7.625 3.898438 -7.488281 4.171875 -7.375 C 4.453125 -7.269531 4.851562 -7.164062 5.375 -7.0625 C 6.320312 -6.875 7.113281 -6.632812 7.75 -6.34375 C 8.382812 -6.050781 8.875 -5.664062 9.21875 -5.1875 C 9.5625 -4.71875 9.734375 -4.128906 9.734375 -3.421875 C 9.734375 -2.679688 9.539062 -2.035156 9.15625 -1.484375 C 8.769531 -0.929688 8.210938 -0.503906 7.484375 -0.203125 C 6.753906 0.0976562 5.878906 0.25 4.859375 0.25 C 3.253906 0.25 2.003906 -0.0078125 1.109375 -0.53125 C 0.554688 -0.851562 0.28125 -1.21875 0.28125 -1.625 C 0.28125 -2.070312 0.585938 -2.582031 1.203125 -3.15625 C 1.628906 -2.769531 2.148438 -2.472656 2.765625 -2.265625 C 3.378906 -2.054688 4.035156 -1.953125 4.734375 -1.953125 Z M 4.734375 -1.953125 "/></g></g></g><g fill="#000000" fill-opacity="1"><g transform="translate(184.340364, 139.315199)"><g><path d="M 10.421875 -1.890625 C 10.441406 -1.785156 10.457031 -1.679688 10.46875 -1.578125 C 10.488281 -1.484375 10.5 -1.382812 10.5 -1.28125 C 10.5 -0.75 10.347656 -0.359375 10.046875 -0.109375 C 9.890625 0.015625 9.695312 0.0976562 9.46875 0.140625 C 9.238281 0.179688 8.976562 0.203125 8.6875 0.203125 C 8.21875 0.203125 7.828125 0.132812 7.515625 0 C 7.210938 -0.144531 6.984375 -0.394531 6.828125 -0.75 C 6.515625 -0.414062 6.140625 -0.164062 5.703125 0 C 5.273438 0.164062 4.804688 0.25 4.296875 0.25 C 3.617188 0.25 2.992188 0.078125 2.421875 -0.265625 C 1.847656 -0.617188 1.394531 -1.132812 1.0625 -1.8125 C 0.726562 -2.488281 0.5625 -3.296875 0.5625 -4.234375 C 0.5625 -5.179688 0.734375 -6 1.078125 -6.6875 C 1.429688 -7.375 1.898438 -7.890625 2.484375 -8.234375 C 3.066406 -8.585938 3.707031 -8.765625 4.40625 -8.765625 C 4.84375 -8.765625 5.257812 -8.6875 5.65625 -8.53125 C 6.050781 -8.375 6.40625 -8.148438 6.71875 -7.859375 C 6.820312 -8.140625 7 -8.34375 7.25 -8.46875 C 7.507812 -8.601562 7.878906 -8.671875 8.359375 -8.671875 C 8.535156 -8.671875 8.722656 -8.660156 8.921875 -8.640625 C 9.128906 -8.617188 9.300781 -8.597656 9.4375 -8.578125 L 9.4375 -2.5625 C 9.4375 -2.289062 9.472656 -2.097656 9.546875 -1.984375 C 9.617188 -1.878906 9.765625 -1.828125 9.984375 -1.828125 C 10.148438 -1.828125 10.296875 -1.847656 10.421875 -1.890625 Z M 3.40625 -4.25 C 3.40625 -3.789062 3.484375 -3.394531 3.640625 -3.0625 C 3.796875 -2.726562 4.007812 -2.472656 4.28125 -2.296875 C 4.5625 -2.128906 4.875 -2.046875 5.21875 -2.046875 C 5.476562 -2.046875 5.722656 -2.085938 5.953125 -2.171875 C 6.191406 -2.253906 6.410156 -2.378906 6.609375 -2.546875 L 6.609375 -5.96875 C 6.203125 -6.300781 5.734375 -6.46875 5.203125 -6.46875 C 4.847656 -6.46875 4.535156 -6.378906 4.265625 -6.203125 C 4.003906 -6.035156 3.796875 -5.78125 3.640625 -5.4375 C 3.484375 -5.101562 3.40625 -4.707031 3.40625 -4.25 Z M 3.40625 -4.25 "/></g></g></g><g fill="#000000" fill-opacity="1"><g transform="translate(194.993806, 139.315199)"><g><path d="M 15.890625 -1.890625 C 15.921875 -1.785156 15.941406 -1.679688 15.953125 -1.578125 C 15.960938 -1.484375 15.96875 -1.382812 15.96875 -1.28125 C 15.96875 -0.738281 15.816406 -0.347656 15.515625 -0.109375 C 15.359375 0.015625 15.164062 0.0976562 14.9375 0.140625 C 14.71875 0.179688 14.460938 0.203125 14.171875 0.203125 C 13.710938 0.203125 13.332031 0.132812 13.03125 0 C 12.726562 -0.125 12.492188 -0.351562 12.328125 -0.6875 C 12.171875 -1.019531 12.09375 -1.472656 12.09375 -2.046875 L 12.09375 -4.859375 C 12.09375 -5.441406 11.976562 -5.851562 11.75 -6.09375 C 11.519531 -6.34375 11.191406 -6.46875 10.765625 -6.46875 C 10.304688 -6.46875 9.859375 -6.289062 9.421875 -5.9375 C 9.453125 -5.675781 9.46875 -5.390625 9.46875 -5.078125 L 9.46875 0.0625 C 9.34375 0.0820312 9.179688 0.0976562 8.984375 0.109375 C 8.785156 0.128906 8.59375 0.140625 8.40625 0.140625 C 7.957031 0.140625 7.609375 0.0976562 7.359375 0.015625 C 7.109375 -0.0664062 6.925781 -0.21875 6.8125 -0.4375 C 6.707031 -0.65625 6.65625 -0.96875 6.65625 -1.375 L 6.65625 -4.859375 C 6.65625 -5.441406 6.539062 -5.851562 6.3125 -6.09375 C 6.082031 -6.34375 5.757812 -6.46875 5.34375 -6.46875 C 5.09375 -6.46875 4.851562 -6.425781 4.625 -6.34375 C 4.40625 -6.257812 4.207031 -6.148438 4.03125 -6.015625 L 4.03125 0.0625 C 3.90625 0.0820312 3.742188 0.0976562 3.546875 0.109375 C 3.347656 0.128906 3.148438 0.140625 2.953125 0.140625 C 2.503906 0.140625 2.15625 0.0976562 1.90625 0.015625 C 1.664062 -0.0664062 1.488281 -0.21875 1.375 -0.4375 C 1.269531 -0.65625 1.21875 -0.96875 1.21875 -1.375 L 1.21875 -5.921875 C 1.21875 -6.171875 1.171875 -6.351562 1.078125 -6.46875 C 0.992188 -6.582031 0.847656 -6.640625 0.640625 -6.640625 C 0.484375 -6.640625 0.347656 -6.625 0.234375 -6.59375 C 0.179688 -6.757812 0.15625 -6.960938 0.15625 -7.203125 C 0.15625 -7.710938 0.300781 -8.078125 0.59375 -8.296875 C 0.894531 -8.546875 1.347656 -8.671875 1.953125 -8.671875 C 2.429688 -8.671875 2.820312 -8.59375 3.125 -8.4375 C 3.4375 -8.289062 3.671875 -8.046875 3.828125 -7.703125 C 4.109375 -8.015625 4.472656 -8.269531 4.921875 -8.46875 C 5.378906 -8.664062 5.875 -8.765625 6.40625 -8.765625 C 7.601562 -8.765625 8.445312 -8.351562 8.9375 -7.53125 C 9.289062 -7.914062 9.71875 -8.21875 10.21875 -8.4375 C 10.71875 -8.65625 11.257812 -8.765625 11.84375 -8.765625 C 12.851562 -8.765625 13.613281 -8.460938 14.125 -7.859375 C 14.644531 -7.265625 14.90625 -6.335938 14.90625 -5.078125 L 14.90625 -2.5625 C 14.90625 -2.289062 14.945312 -2.097656 15.03125 -1.984375 C 15.113281 -1.878906 15.257812 -1.828125 15.46875 -1.828125 C 15.65625 -1.828125 15.796875 -1.847656 15.890625 -1.890625 Z M 15.890625 -1.890625 "/></g></g></g><g fill="#000000" fill-opacity="1"><g transform="translate(211.037953, 139.315199)"><g><path d="M 8.234375 -2.796875 C 8.429688 -2.628906 8.578125 -2.4375 8.671875 -2.21875 C 8.765625 -2 8.8125 -1.773438 8.8125 -1.546875 C 8.8125 -0.984375 8.5 -0.5625 7.875 -0.28125 C 7.5625 -0.125 7.175781 0 6.71875 0.09375 C 6.257812 0.195312 5.765625 0.25 5.234375 0.25 C 4.273438 0.25 3.441406 0.0664062 2.734375 -0.296875 C 2.035156 -0.660156 1.5 -1.179688 1.125 -1.859375 C 0.75 -2.535156 0.5625 -3.328125 0.5625 -4.234375 C 0.5625 -5.203125 0.757812 -6.023438 1.15625 -6.703125 C 1.550781 -7.378906 2.09375 -7.890625 2.78125 -8.234375 C 3.46875 -8.585938 4.253906 -8.765625 5.140625 -8.765625 C 5.867188 -8.765625 6.53125 -8.648438 7.125 -8.421875 C 7.71875 -8.203125 8.1875 -7.878906 8.53125 -7.453125 C 8.882812 -7.023438 9.0625 -6.519531 9.0625 -5.9375 C 9.0625 -5.101562 8.726562 -4.460938 8.0625 -4.015625 C 7.40625 -3.578125 6.410156 -3.359375 5.078125 -3.359375 C 4.492188 -3.359375 3.894531 -3.414062 3.28125 -3.53125 C 3.5625 -2.476562 4.335938 -1.953125 5.609375 -1.953125 C 6.171875 -1.953125 6.664062 -2.035156 7.09375 -2.203125 C 7.519531 -2.367188 7.898438 -2.566406 8.234375 -2.796875 Z M 5.1875 -6.78125 C 4.882812 -6.78125 4.59375 -6.71875 4.3125 -6.59375 C 4.039062 -6.476562 3.804688 -6.289062 3.609375 -6.03125 C 3.410156 -5.769531 3.28125 -5.453125 3.21875 -5.078125 C 3.675781 -4.984375 4.171875 -4.9375 4.703125 -4.9375 C 5.304688 -4.9375 5.753906 -5.003906 6.046875 -5.140625 C 6.335938 -5.285156 6.484375 -5.53125 6.484375 -5.875 C 6.484375 -6.144531 6.363281 -6.363281 6.125 -6.53125 C 5.882812 -6.695312 5.570312 -6.78125 5.1875 -6.78125 Z M 5.1875 -6.78125 "/></g></g></g><g fill="#000000" fill-opacity="1"><g transform="translate(220.859592, 139.315199)"><g/></g></g><g fill="#000000" fill-opacity="1"><g transform="translate(224.378742, 139.315199)"><g><path d="M 4.03125 0.25 C 3.4375 0.25 2.878906 0.191406 2.359375 0.078125 C 1.835938 -0.0234375 1.40625 -0.175781 1.0625 -0.375 C 0.863281 -0.476562 0.71875 -0.59375 0.625 -0.71875 C 0.539062 -0.851562 0.5 -1.015625 0.5 -1.203125 C 0.5 -1.546875 0.707031 -1.992188 1.125 -2.546875 C 1.457031 -2.296875 1.878906 -2.09375 2.390625 -1.9375 C 2.898438 -1.78125 3.421875 -1.703125 3.953125 -1.703125 C 4.910156 -1.703125 5.390625 -1.984375 5.390625 -2.546875 C 5.390625 -2.703125 5.335938 -2.832031 5.234375 -2.9375 C 5.140625 -3.039062 4.988281 -3.125 4.78125 -3.1875 C 4.582031 -3.25 4.296875 -3.304688 3.921875 -3.359375 C 3.253906 -3.460938 2.6875 -3.601562 2.21875 -3.78125 C 1.75 -3.96875 1.367188 -4.242188 1.078125 -4.609375 C 0.785156 -4.984375 0.640625 -5.472656 0.640625 -6.078125 C 0.640625 -6.628906 0.796875 -7.109375 1.109375 -7.515625 C 1.421875 -7.921875 1.867188 -8.226562 2.453125 -8.4375 C 3.046875 -8.65625 3.742188 -8.765625 4.546875 -8.765625 C 5.546875 -8.765625 6.382812 -8.59375 7.0625 -8.25 C 7.3125 -8.144531 7.492188 -8.019531 7.609375 -7.875 C 7.734375 -7.726562 7.796875 -7.566406 7.796875 -7.390625 C 7.796875 -7.210938 7.738281 -7.015625 7.625 -6.796875 C 7.519531 -6.585938 7.375 -6.347656 7.1875 -6.078125 C 6.851562 -6.316406 6.441406 -6.503906 5.953125 -6.640625 C 5.472656 -6.773438 4.988281 -6.84375 4.5 -6.84375 C 4.101562 -6.84375 3.796875 -6.773438 3.578125 -6.640625 C 3.367188 -6.515625 3.265625 -6.335938 3.265625 -6.109375 C 3.265625 -5.953125 3.3125 -5.816406 3.40625 -5.703125 C 3.507812 -5.597656 3.660156 -5.515625 3.859375 -5.453125 C 4.066406 -5.390625 4.351562 -5.332031 4.71875 -5.28125 C 5.375 -5.1875 5.941406 -5.050781 6.421875 -4.875 C 6.910156 -4.707031 7.3125 -4.4375 7.625 -4.0625 C 7.9375 -3.695312 8.09375 -3.207031 8.09375 -2.59375 C 8.09375 -2.019531 7.941406 -1.519531 7.640625 -1.09375 C 7.335938 -0.664062 6.882812 -0.332031 6.28125 -0.09375 C 5.675781 0.132812 4.925781 0.25 4.03125 0.25 Z M 4.03125 0.25 "/></g></g></g><g fill="#000000" fill-opacity="1"><g transform="translate(233.000674, 139.315199)"><g><path d="M 7.0625 -2.65625 C 7.425781 -2.21875 7.609375 -1.796875 7.609375 -1.390625 C 7.609375 -1.171875 7.5625 -0.972656 7.46875 -0.796875 C 7.382812 -0.617188 7.265625 -0.472656 7.109375 -0.359375 C 6.859375 -0.160156 6.53125 -0.0078125 6.125 0.09375 C 5.726562 0.195312 5.328125 0.25 4.921875 0.25 C 2.785156 0.25 1.71875 -0.835938 1.71875 -3.015625 L 1.71875 -6.390625 L 0.171875 -6.390625 C 0.148438 -6.503906 0.132812 -6.648438 0.125 -6.828125 C 0.113281 -7.015625 0.109375 -7.175781 0.109375 -7.3125 C 0.109375 -7.632812 0.132812 -7.878906 0.1875 -8.046875 C 0.25 -8.210938 0.359375 -8.332031 0.515625 -8.40625 C 0.671875 -8.476562 0.898438 -8.515625 1.203125 -8.515625 L 1.71875 -8.515625 L 1.71875 -9.34375 C 1.71875 -9.75 1.769531 -10.066406 1.875 -10.296875 C 1.976562 -10.535156 2.148438 -10.703125 2.390625 -10.796875 C 2.628906 -10.898438 2.957031 -10.953125 3.375 -10.953125 C 3.53125 -10.953125 3.71875 -10.941406 3.9375 -10.921875 C 4.164062 -10.910156 4.359375 -10.894531 4.515625 -10.875 L 4.515625 -8.515625 L 7.28125 -8.515625 C 7.300781 -8.410156 7.316406 -8.265625 7.328125 -8.078125 C 7.347656 -7.890625 7.359375 -7.71875 7.359375 -7.5625 C 7.359375 -7.25 7.328125 -7.007812 7.265625 -6.84375 C 7.210938 -6.675781 7.109375 -6.554688 6.953125 -6.484375 C 6.796875 -6.421875 6.566406 -6.390625 6.265625 -6.390625 L 4.515625 -6.390625 L 4.515625 -3.34375 C 4.515625 -2.476562 4.890625 -2.046875 5.640625 -2.046875 C 5.910156 -2.046875 6.164062 -2.101562 6.40625 -2.21875 C 6.65625 -2.332031 6.875 -2.476562 7.0625 -2.65625 Z M 7.0625 -2.65625 "/></g></g></g><g fill="#000000" fill-opacity="1"><g transform="translate(240.790793, 139.315199)"><g><path d="M 10.421875 -1.890625 C 10.441406 -1.785156 10.457031 -1.679688 10.46875 -1.578125 C 10.488281 -1.484375 10.5 -1.382812 10.5 -1.28125 C 10.5 -0.75 10.347656 -0.359375 10.046875 -0.109375 C 9.890625 0.015625 9.695312 0.0976562 9.46875 0.140625 C 9.238281 0.179688 8.976562 0.203125 8.6875 0.203125 C 8.21875 0.203125 7.828125 0.132812 7.515625 0 C 7.210938 -0.144531 6.984375 -0.394531 6.828125 -0.75 C 6.515625 -0.414062 6.140625 -0.164062 5.703125 0 C 5.273438 0.164062 4.804688 0.25 4.296875 0.25 C 3.617188 0.25 2.992188 0.078125 2.421875 -0.265625 C 1.847656 -0.617188 1.394531 -1.132812 1.0625 -1.8125 C 0.726562 -2.488281 0.5625 -3.296875 0.5625 -4.234375 C 0.5625 -5.179688 0.734375 -6 1.078125 -6.6875 C 1.429688 -7.375 1.898438 -7.890625 2.484375 -8.234375 C 3.066406 -8.585938 3.707031 -8.765625 4.40625 -8.765625 C 4.84375 -8.765625 5.257812 -8.6875 5.65625 -8.53125 C 6.050781 -8.375 6.40625 -8.148438 6.71875 -7.859375 C 6.820312 -8.140625 7 -8.34375 7.25 -8.46875 C 7.507812 -8.601562 7.878906 -8.671875 8.359375 -8.671875 C 8.535156 -8.671875 8.722656 -8.660156 8.921875 -8.640625 C 9.128906 -8.617188 9.300781 -8.597656 9.4375 -8.578125 L 9.4375 -2.5625 C 9.4375 -2.289062 9.472656 -2.097656 9.546875 -1.984375 C 9.617188 -1.878906 9.765625 -1.828125 9.984375 -1.828125 C 10.148438 -1.828125 10.296875 -1.847656 10.421875 -1.890625 Z M 3.40625 -4.25 C 3.40625 -3.789062 3.484375 -3.394531 3.640625 -3.0625 C 3.796875 -2.726562 4.007812 -2.472656 4.28125 -2.296875 C 4.5625 -2.128906 4.875 -2.046875 5.21875 -2.046875 C 5.476562 -2.046875 5.722656 -2.085938 5.953125 -2.171875 C 6.191406 -2.253906 6.410156 -2.378906 6.609375 -2.546875 L 6.609375 -5.96875 C 6.203125 -6.300781 5.734375 -6.46875 5.203125 -6.46875 C 4.847656 -6.46875 4.535156 -6.378906 4.265625 -6.203125 C 4.003906 -6.035156 3.796875 -5.78125 3.640625 -5.4375 C 3.484375 -5.101562 3.40625 -4.707031 3.40625 -4.25 Z M 3.40625 -4.25 "/></g></g></g><g fill="#000000" fill-opacity="1"><g transform="translate(251.444235, 139.315199)"><g><path d="M 7.3125 -8.21875 C 7.46875 -8.03125 7.546875 -7.769531 7.546875 -7.4375 C 7.546875 -7.21875 7.507812 -6.972656 7.4375 -6.703125 C 7.375 -6.429688 7.285156 -6.171875 7.171875 -5.921875 C 6.785156 -6.117188 6.34375 -6.21875 5.84375 -6.21875 C 5.5 -6.21875 5.164062 -6.140625 4.84375 -5.984375 C 4.53125 -5.835938 4.257812 -5.625 4.03125 -5.34375 L 4.03125 0.0625 C 3.90625 0.0820312 3.742188 0.0976562 3.546875 0.109375 C 3.347656 0.128906 3.148438 0.140625 2.953125 0.140625 C 2.503906 0.140625 2.15625 0.0976562 1.90625 0.015625 C 1.664062 -0.0664062 1.488281 -0.21875 1.375 -0.4375 C 1.269531 -0.65625 1.21875 -0.96875 1.21875 -1.375 L 1.21875 -5.921875 C 1.21875 -6.171875 1.171875 -6.351562 1.078125 -6.46875 C 0.992188 -6.582031 0.847656 -6.640625 0.640625 -6.640625 C 0.484375 -6.640625 0.347656 -6.625 0.234375 -6.59375 C 0.179688 -6.757812 0.15625 -6.960938 0.15625 -7.203125 C 0.15625 -7.710938 0.300781 -8.078125 0.59375 -8.296875 C 0.894531 -8.546875 1.347656 -8.671875 1.953125 -8.671875 C 2.492188 -8.671875 2.929688 -8.570312 3.265625 -8.375 C 3.597656 -8.175781 3.820312 -7.84375 3.9375 -7.375 C 4.175781 -7.78125 4.492188 -8.085938 4.890625 -8.296875 C 5.285156 -8.515625 5.695312 -8.625 6.125 -8.625 C 6.675781 -8.625 7.070312 -8.488281 7.3125 -8.21875 Z M 7.3125 -8.21875 "/></g></g></g><g fill="#000000" fill-opacity="1"><g transform="translate(259.586294, 139.315199)"><g><path d="M 7.0625 -2.65625 C 7.425781 -2.21875 7.609375 -1.796875 7.609375 -1.390625 C 7.609375 -1.171875 7.5625 -0.972656 7.46875 -0.796875 C 7.382812 -0.617188 7.265625 -0.472656 7.109375 -0.359375 C 6.859375 -0.160156 6.53125 -0.0078125 6.125 0.09375 C 5.726562 0.195312 5.328125 0.25 4.921875 0.25 C 2.785156 0.25 1.71875 -0.835938 1.71875 -3.015625 L 1.71875 -6.390625 L 0.171875 -6.390625 C 0.148438 -6.503906 0.132812 -6.648438 0.125 -6.828125 C 0.113281 -7.015625 0.109375 -7.175781 0.109375 -7.3125 C 0.109375 -7.632812 0.132812 -7.878906 0.1875 -8.046875 C 0.25 -8.210938 0.359375 -8.332031 0.515625 -8.40625 C 0.671875 -8.476562 0.898438 -8.515625 1.203125 -8.515625 L 1.71875 -8.515625 L 1.71875 -9.34375 C 1.71875 -9.75 1.769531 -10.066406 1.875 -10.296875 C 1.976562 -10.535156 2.148438 -10.703125 2.390625 -10.796875 C 2.628906 -10.898438 2.957031 -10.953125 3.375 -10.953125 C 3.53125 -10.953125 3.71875 -10.941406 3.9375 -10.921875 C 4.164062 -10.910156 4.359375 -10.894531 4.515625 -10.875 L 4.515625 -8.515625 L 7.28125 -8.515625 C 7.300781 -8.410156 7.316406 -8.265625 7.328125 -8.078125 C 7.347656 -7.890625 7.359375 -7.71875 7.359375 -7.5625 C 7.359375 -7.25 7.328125 -7.007812 7.265625 -6.84375 C 7.210938 -6.675781 7.109375 -6.554688 6.953125 -6.484375 C 6.796875 -6.421875 6.566406 -6.390625 6.265625 -6.390625 L 4.515625 -6.390625 L 4.515625 -3.34375 C 4.515625 -2.476562 4.890625 -2.046875 5.640625 -2.046875 C 5.910156 -2.046875 6.164062 -2.101562 6.40625 -2.21875 C 6.65625 -2.332031 6.875 -2.476562 7.0625 -2.65625 Z M 7.0625 -2.65625 "/></g></g></g><g fill="#000000" fill-opacity="1"><g transform="translate(267.77635, 139.315199)"><g><path d="M 3.53125 -2.25 C 3.789062 -1.90625 3.921875 -1.429688 3.921875 -0.828125 C 3.921875 -0.316406 3.832031 0.207031 3.65625 0.75 C 3.476562 1.289062 3.226562 1.773438 2.90625 2.203125 C 2.726562 2.453125 2.53125 2.625 2.3125 2.71875 C 2.09375 2.820312 1.847656 2.875 1.578125 2.875 C 1.390625 2.875 1.203125 2.828125 1.015625 2.734375 C 0.835938 2.648438 0.6875 2.523438 0.5625 2.359375 C 0.90625 2.023438 1.207031 1.632812 1.46875 1.1875 C 1.738281 0.738281 1.929688 0.304688 2.046875 -0.109375 C 1.609375 -0.140625 1.257812 -0.269531 1 -0.5 C 0.75 -0.726562 0.625 -1.035156 0.625 -1.421875 C 0.625 -1.859375 0.769531 -2.207031 1.0625 -2.46875 C 1.351562 -2.726562 1.734375 -2.859375 2.203125 -2.859375 C 2.492188 -2.859375 2.753906 -2.804688 2.984375 -2.703125 C 3.222656 -2.609375 3.40625 -2.457031 3.53125 -2.25 Z M 3.53125 -2.25 "/></g></g></g><g fill="#000000" fill-opacity="1"><g transform="translate(272.292176, 139.315199)"><g/></g></g><g fill="#000000" fill-opacity="1"><g transform="translate(184.307805, 161.065198)"><g><path d="M 4.734375 -1.953125 C 5.367188 -1.953125 5.859375 -2.066406 6.203125 -2.296875 C 6.546875 -2.535156 6.71875 -2.867188 6.71875 -3.296875 C 6.71875 -3.554688 6.644531 -3.765625 6.5 -3.921875 C 6.363281 -4.085938 6.148438 -4.226562 5.859375 -4.34375 C 5.566406 -4.457031 5.160156 -4.5625 4.640625 -4.65625 C 3.398438 -4.894531 2.414062 -5.285156 1.6875 -5.828125 C 0.957031 -6.367188 0.59375 -7.179688 0.59375 -8.265625 C 0.59375 -8.992188 0.785156 -9.617188 1.171875 -10.140625 C 1.554688 -10.671875 2.097656 -11.078125 2.796875 -11.359375 C 3.492188 -11.640625 4.304688 -11.78125 5.234375 -11.78125 C 6.816406 -11.78125 8.003906 -11.503906 8.796875 -10.953125 C 9.171875 -10.710938 9.359375 -10.394531 9.359375 -10 C 9.359375 -9.757812 9.289062 -9.515625 9.15625 -9.265625 C 9.019531 -9.015625 8.820312 -8.773438 8.5625 -8.546875 C 8.09375 -8.878906 7.570312 -9.128906 7 -9.296875 C 6.425781 -9.472656 5.851562 -9.5625 5.28125 -9.5625 C 4.707031 -9.5625 4.253906 -9.453125 3.921875 -9.234375 C 3.597656 -9.023438 3.4375 -8.75 3.4375 -8.40625 C 3.4375 -8.15625 3.488281 -7.945312 3.59375 -7.78125 C 3.707031 -7.625 3.898438 -7.488281 4.171875 -7.375 C 4.453125 -7.269531 4.851562 -7.164062 5.375 -7.0625 C 6.320312 -6.875 7.113281 -6.632812 7.75 -6.34375 C 8.382812 -6.050781 8.875 -5.664062 9.21875 -5.1875 C 9.5625 -4.71875 9.734375 -4.128906 9.734375 -3.421875 C 9.734375 -2.679688 9.539062 -2.035156 9.15625 -1.484375 C 8.769531 -0.929688 8.210938 -0.503906 7.484375 -0.203125 C 6.753906 0.0976562 5.878906 0.25 4.859375 0.25 C 3.253906 0.25 2.003906 -0.0078125 1.109375 -0.53125 C 0.554688 -0.851562 0.28125 -1.21875 0.28125 -1.625 C 0.28125 -2.070312 0.585938 -2.582031 1.203125 -3.15625 C 1.628906 -2.769531 2.148438 -2.472656 2.765625 -2.265625 C 3.378906 -2.054688 4.035156 -1.953125 4.734375 -1.953125 Z M 4.734375 -1.953125 "/></g></g></g><g fill="#000000" fill-opacity="1"><g transform="translate(194.465363, 161.065198)"><g><path d="M 10.421875 -1.890625 C 10.441406 -1.785156 10.457031 -1.679688 10.46875 -1.578125 C 10.488281 -1.484375 10.5 -1.382812 10.5 -1.28125 C 10.5 -0.75 10.347656 -0.359375 10.046875 -0.109375 C 9.890625 0.015625 9.695312 0.0976562 9.46875 0.140625 C 9.238281 0.179688 8.976562 0.203125 8.6875 0.203125 C 8.21875 0.203125 7.828125 0.132812 7.515625 0 C 7.210938 -0.144531 6.984375 -0.394531 6.828125 -0.75 C 6.515625 -0.414062 6.140625 -0.164062 5.703125 0 C 5.273438 0.164062 4.804688 0.25 4.296875 0.25 C 3.617188 0.25 2.992188 0.078125 2.421875 -0.265625 C 1.847656 -0.617188 1.394531 -1.132812 1.0625 -1.8125 C 0.726562 -2.488281 0.5625 -3.296875 0.5625 -4.234375 C 0.5625 -5.179688 0.734375 -6 1.078125 -6.6875 C 1.429688 -7.375 1.898438 -7.890625 2.484375 -8.234375 C 3.066406 -8.585938 3.707031 -8.765625 4.40625 -8.765625 C 4.84375 -8.765625 5.257812 -8.6875 5.65625 -8.53125 C 6.050781 -8.375 6.40625 -8.148438 6.71875 -7.859375 C 6.820312 -8.140625 7 -8.34375 7.25 -8.46875 C 7.507812 -8.601562 7.878906 -8.671875 8.359375 -8.671875 C 8.535156 -8.671875 8.722656 -8.660156 8.921875 -8.640625 C 9.128906 -8.617188 9.300781 -8.597656 9.4375 -8.578125 L 9.4375 -2.5625 C 9.4375 -2.289062 9.472656 -2.097656 9.546875 -1.984375 C 9.617188 -1.878906 9.765625 -1.828125 9.984375 -1.828125 C 10.148438 -1.828125 10.296875 -1.847656 10.421875 -1.890625 Z M 3.40625 -4.25 C 3.40625 -3.789062 3.484375 -3.394531 3.640625 -3.0625 C 3.796875 -2.726562 4.007812 -2.472656 4.28125 -2.296875 C 4.5625 -2.128906 4.875 -2.046875 5.21875 -2.046875 C 5.476562 -2.046875 5.722656 -2.085938 5.953125 -2.171875 C 6.191406 -2.253906 6.410156 -2.378906 6.609375 -2.546875 L 6.609375 -5.96875 C 6.203125 -6.300781 5.734375 -6.46875 5.203125 -6.46875 C 4.847656 -6.46875 4.535156 -6.378906 4.265625 -6.203125 C 4.003906 -6.035156 3.796875 -5.78125 3.640625 -5.4375 C 3.484375 -5.101562 3.40625 -4.707031 3.40625 -4.25 Z M 3.40625 -4.25 "/></g></g></g><g fill="#000000" fill-opacity="1"><g transform="translate(205.118805, 161.065198)"><g><path d="M 15.890625 -1.890625 C 15.921875 -1.785156 15.941406 -1.679688 15.953125 -1.578125 C 15.960938 -1.484375 15.96875 -1.382812 15.96875 -1.28125 C 15.96875 -0.738281 15.816406 -0.347656 15.515625 -0.109375 C 15.359375 0.015625 15.164062 0.0976562 14.9375 0.140625 C 14.71875 0.179688 14.460938 0.203125 14.171875 0.203125 C 13.710938 0.203125 13.332031 0.132812 13.03125 0 C 12.726562 -0.125 12.492188 -0.351562 12.328125 -0.6875 C 12.171875 -1.019531 12.09375 -1.472656 12.09375 -2.046875 L 12.09375 -4.859375 C 12.09375 -5.441406 11.976562 -5.851562 11.75 -6.09375 C 11.519531 -6.34375 11.191406 -6.46875 10.765625 -6.46875 C 10.304688 -6.46875 9.859375 -6.289062 9.421875 -5.9375 C 9.453125 -5.675781 9.46875 -5.390625 9.46875 -5.078125 L 9.46875 0.0625 C 9.34375 0.0820312 9.179688 0.0976562 8.984375 0.109375 C 8.785156 0.128906 8.59375 0.140625 8.40625 0.140625 C 7.957031 0.140625 7.609375 0.0976562 7.359375 0.015625 C 7.109375 -0.0664062 6.925781 -0.21875 6.8125 -0.4375 C 6.707031 -0.65625 6.65625 -0.96875 6.65625 -1.375 L 6.65625 -4.859375 C 6.65625 -5.441406 6.539062 -5.851562 6.3125 -6.09375 C 6.082031 -6.34375 5.757812 -6.46875 5.34375 -6.46875 C 5.09375 -6.46875 4.851562 -6.425781 4.625 -6.34375 C 4.40625 -6.257812 4.207031 -6.148438 4.03125 -6.015625 L 4.03125 0.0625 C 3.90625 0.0820312 3.742188 0.0976562 3.546875 0.109375 C 3.347656 0.128906 3.148438 0.140625 2.953125 0.140625 C 2.503906 0.140625 2.15625 0.0976562 1.90625 0.015625 C 1.664062 -0.0664062 1.488281 -0.21875 1.375 -0.4375 C 1.269531 -0.65625 1.21875 -0.96875 1.21875 -1.375 L 1.21875 -5.921875 C 1.21875 -6.171875 1.171875 -6.351562 1.078125 -6.46875 C 0.992188 -6.582031 0.847656 -6.640625 0.640625 -6.640625 C 0.484375 -6.640625 0.347656 -6.625 0.234375 -6.59375 C 0.179688 -6.757812 0.15625 -6.960938 0.15625 -7.203125 C 0.15625 -7.710938 0.300781 -8.078125 0.59375 -8.296875 C 0.894531 -8.546875 1.347656 -8.671875 1.953125 -8.671875 C 2.429688 -8.671875 2.820312 -8.59375 3.125 -8.4375 C 3.4375 -8.289062 3.671875 -8.046875 3.828125 -7.703125 C 4.109375 -8.015625 4.472656 -8.269531 4.921875 -8.46875 C 5.378906 -8.664062 5.875 -8.765625 6.40625 -8.765625 C 7.601562 -8.765625 8.445312 -8.351562 8.9375 -7.53125 C 9.289062 -7.914062 9.71875 -8.21875 10.21875 -8.4375 C 10.71875 -8.65625 11.257812 -8.765625 11.84375 -8.765625 C 12.851562 -8.765625 13.613281 -8.460938 14.125 -7.859375 C 14.644531 -7.265625 14.90625 -6.335938 14.90625 -5.078125 L 14.90625 -2.5625 C 14.90625 -2.289062 14.945312 -2.097656 15.03125 -1.984375 C 15.113281 -1.878906 15.257812 -1.828125 15.46875 -1.828125 C 15.65625 -1.828125 15.796875 -1.847656 15.890625 -1.890625 Z M 15.890625 -1.890625 "/></g></g></g><g fill="#000000" fill-opacity="1"><g transform="translate(221.162952, 161.065198)"><g><path d="M 8.234375 -2.796875 C 8.429688 -2.628906 8.578125 -2.4375 8.671875 -2.21875 C 8.765625 -2 8.8125 -1.773438 8.8125 -1.546875 C 8.8125 -0.984375 8.5 -0.5625 7.875 -0.28125 C 7.5625 -0.125 7.175781 0 6.71875 0.09375 C 6.257812 0.195312 5.765625 0.25 5.234375 0.25 C 4.273438 0.25 3.441406 0.0664062 2.734375 -0.296875 C 2.035156 -0.660156 1.5 -1.179688 1.125 -1.859375 C 0.75 -2.535156 0.5625 -3.328125 0.5625 -4.234375 C 0.5625 -5.203125 0.757812 -6.023438 1.15625 -6.703125 C 1.550781 -7.378906 2.09375 -7.890625 2.78125 -8.234375 C 3.46875 -8.585938 4.253906 -8.765625 5.140625 -8.765625 C 5.867188 -8.765625 6.53125 -8.648438 7.125 -8.421875 C 7.71875 -8.203125 8.1875 -7.878906 8.53125 -7.453125 C 8.882812 -7.023438 9.0625 -6.519531 9.0625 -5.9375 C 9.0625 -5.101562 8.726562 -4.460938 8.0625 -4.015625 C 7.40625 -3.578125 6.410156 -3.359375 5.078125 -3.359375 C 4.492188 -3.359375 3.894531 -3.414062 3.28125 -3.53125 C 3.5625 -2.476562 4.335938 -1.953125 5.609375 -1.953125 C 6.171875 -1.953125 6.664062 -2.035156 7.09375 -2.203125 C 7.519531 -2.367188 7.898438 -2.566406 8.234375 -2.796875 Z M 5.1875 -6.78125 C 4.882812 -6.78125 4.59375 -6.71875 4.3125 -6.59375 C 4.039062 -6.476562 3.804688 -6.289062 3.609375 -6.03125 C 3.410156 -5.769531 3.28125 -5.453125 3.21875 -5.078125 C 3.675781 -4.984375 4.171875 -4.9375 4.703125 -4.9375 C 5.304688 -4.9375 5.753906 -5.003906 6.046875 -5.140625 C 6.335938 -5.285156 6.484375 -5.53125 6.484375 -5.875 C 6.484375 -6.144531 6.363281 -6.363281 6.125 -6.53125 C 5.882812 -6.695312 5.570312 -6.78125 5.1875 -6.78125 Z M 5.1875 -6.78125 "/></g></g></g><g fill="#000000" fill-opacity="1"><g transform="translate(230.984592, 161.065198)"><g/></g></g><g fill="#000000" fill-opacity="1"><g transform="translate(234.503741, 161.065198)"><g><path d="M 8.234375 -2.796875 C 8.429688 -2.628906 8.578125 -2.4375 8.671875 -2.21875 C 8.765625 -2 8.8125 -1.773438 8.8125 -1.546875 C 8.8125 -0.984375 8.5 -0.5625 7.875 -0.28125 C 7.5625 -0.125 7.175781 0 6.71875 0.09375 C 6.257812 0.195312 5.765625 0.25 5.234375 0.25 C 4.273438 0.25 3.441406 0.0664062 2.734375 -0.296875 C 2.035156 -0.660156 1.5 -1.179688 1.125 -1.859375 C 0.75 -2.535156 0.5625 -3.328125 0.5625 -4.234375 C 0.5625 -5.203125 0.757812 -6.023438 1.15625 -6.703125 C 1.550781 -7.378906 2.09375 -7.890625 2.78125 -8.234375 C 3.46875 -8.585938 4.253906 -8.765625 5.140625 -8.765625 C 5.867188 -8.765625 6.53125 -8.648438 7.125 -8.421875 C 7.71875 -8.203125 8.1875 -7.878906 8.53125 -7.453125 C 8.882812 -7.023438 9.0625 -6.519531 9.0625 -5.9375 C 9.0625 -5.101562 8.726562 -4.460938 8.0625 -4.015625 C 7.40625 -3.578125 6.410156 -3.359375 5.078125 -3.359375 C 4.492188 -3.359375 3.894531 -3.414062 3.28125 -3.53125 C 3.5625 -2.476562 4.335938 -1.953125 5.609375 -1.953125 C 6.171875 -1.953125 6.664062 -2.035156 7.09375 -2.203125 C 7.519531 -2.367188 7.898438 -2.566406 8.234375 -2.796875 Z M 5.1875 -6.78125 C 4.882812 -6.78125 4.59375 -6.71875 4.3125 -6.59375 C 4.039062 -6.476562 3.804688 -6.289062 3.609375 -6.03125 C 3.410156 -5.769531 3.28125 -5.453125 3.21875 -5.078125 C 3.675781 -4.984375 4.171875 -4.9375 4.703125 -4.9375 C 5.304688 -4.9375 5.753906 -5.003906 6.046875 -5.140625 C 6.335938 -5.285156 6.484375 -5.53125 6.484375 -5.875 C 6.484375 -6.144531 6.363281 -6.363281 6.125 -6.53125 C 5.882812 -6.695312 5.570312 -6.78125 5.1875 -6.78125 Z M 5.1875 -6.78125 "/></g></g></g><g fill="#000000" fill-opacity="1"><g transform="translate(244.325381, 161.065198)"><g><path d="M 10.546875 -1.890625 C 10.585938 -1.679688 10.609375 -1.476562 10.609375 -1.28125 C 10.609375 -0.738281 10.457031 -0.347656 10.15625 -0.109375 C 10.007812 0.015625 9.820312 0.0976562 9.59375 0.140625 C 9.363281 0.179688 9.101562 0.203125 8.8125 0.203125 C 8.363281 0.203125 7.988281 0.132812 7.6875 0 C 7.382812 -0.125 7.148438 -0.351562 6.984375 -0.6875 C 6.816406 -1.019531 6.734375 -1.472656 6.734375 -2.046875 L 6.734375 -4.859375 C 6.734375 -5.460938 6.613281 -5.878906 6.375 -6.109375 C 6.132812 -6.347656 5.800781 -6.46875 5.375 -6.46875 C 5.144531 -6.46875 4.90625 -6.421875 4.65625 -6.328125 C 4.414062 -6.234375 4.207031 -6.117188 4.03125 -5.984375 L 4.03125 0.0625 C 3.90625 0.0820312 3.742188 0.0976562 3.546875 0.109375 C 3.347656 0.128906 3.148438 0.140625 2.953125 0.140625 C 2.503906 0.140625 2.15625 0.0976562 1.90625 0.015625 C 1.664062 -0.0664062 1.488281 -0.21875 1.375 -0.4375 C 1.269531 -0.65625 1.21875 -0.96875 1.21875 -1.375 L 1.21875 -5.921875 C 1.21875 -6.171875 1.171875 -6.351562 1.078125 -6.46875 C 0.992188 -6.582031 0.847656 -6.640625 0.640625 -6.640625 C 0.484375 -6.640625 0.347656 -6.625 0.234375 -6.59375 C 0.179688 -6.757812 0.15625 -6.960938 0.15625 -7.203125 C 0.15625 -7.710938 0.300781 -8.078125 0.59375 -8.296875 C 0.894531 -8.546875 1.347656 -8.671875 1.953125 -8.671875 C 2.441406 -8.671875 2.835938 -8.59375 3.140625 -8.4375 C 3.453125 -8.28125 3.6875 -8.019531 3.84375 -7.65625 C 4.125 -7.988281 4.488281 -8.253906 4.9375 -8.453125 C 5.394531 -8.660156 5.890625 -8.765625 6.421875 -8.765625 C 8.503906 -8.765625 9.546875 -7.535156 9.546875 -5.078125 L 9.546875 -2.5625 C 9.546875 -2.289062 9.585938 -2.097656 9.671875 -1.984375 C 9.753906 -1.878906 9.898438 -1.828125 10.109375 -1.828125 C 10.285156 -1.828125 10.429688 -1.847656 10.546875 -1.890625 Z M 10.546875 -1.890625 "/></g></g></g><g fill="#000000" fill-opacity="1"><g transform="translate(255.010809, 161.065198)"><g><path d="M 10.421875 -1.890625 C 10.441406 -1.785156 10.457031 -1.679688 10.46875 -1.578125 C 10.488281 -1.484375 10.5 -1.382812 10.5 -1.28125 C 10.5 -0.75 10.347656 -0.359375 10.046875 -0.109375 C 9.890625 0.015625 9.695312 0.0976562 9.46875 0.140625 C 9.238281 0.179688 8.976562 0.203125 8.6875 0.203125 C 8.21875 0.203125 7.828125 0.132812 7.515625 0 C 7.210938 -0.144531 6.984375 -0.394531 6.828125 -0.75 C 6.515625 -0.414062 6.140625 -0.164062 5.703125 0 C 5.273438 0.164062 4.804688 0.25 4.296875 0.25 C 3.617188 0.25 2.992188 0.078125 2.421875 -0.265625 C 1.847656 -0.617188 1.394531 -1.132812 1.0625 -1.8125 C 0.726562 -2.488281 0.5625 -3.296875 0.5625 -4.234375 C 0.5625 -5.179688 0.734375 -6 1.078125 -6.6875 C 1.429688 -7.375 1.898438 -7.890625 2.484375 -8.234375 C 3.066406 -8.585938 3.707031 -8.765625 4.40625 -8.765625 C 4.820312 -8.765625 5.210938 -8.695312 5.578125 -8.5625 C 5.953125 -8.425781 6.296875 -8.222656 6.609375 -7.953125 L 6.609375 -11.71875 C 6.691406 -11.738281 6.847656 -11.757812 7.078125 -11.78125 C 7.304688 -11.800781 7.515625 -11.8125 7.703125 -11.8125 C 8.148438 -11.8125 8.492188 -11.765625 8.734375 -11.671875 C 8.984375 -11.585938 9.160156 -11.4375 9.265625 -11.21875 C 9.378906 -11 9.4375 -10.6875 9.4375 -10.28125 L 9.4375 -2.5625 C 9.4375 -2.289062 9.472656 -2.097656 9.546875 -1.984375 C 9.617188 -1.878906 9.765625 -1.828125 9.984375 -1.828125 C 10.148438 -1.828125 10.296875 -1.847656 10.421875 -1.890625 Z M 3.40625 -4.25 C 3.40625 -3.789062 3.484375 -3.394531 3.640625 -3.0625 C 3.796875 -2.726562 4.007812 -2.472656 4.28125 -2.296875 C 4.5625 -2.128906 4.875 -2.046875 5.21875 -2.046875 C 5.476562 -2.046875 5.722656 -2.085938 5.953125 -2.171875 C 6.191406 -2.253906 6.410156 -2.378906 6.609375 -2.546875 L 6.609375 -5.96875 C 6.203125 -6.300781 5.734375 -6.46875 5.203125 -6.46875 C 4.847656 -6.46875 4.535156 -6.378906 4.265625 -6.203125 C 4.003906 -6.035156 3.796875 -5.78125 3.640625 -5.4375 C 3.484375 -5.101562 3.40625 -4.707031 3.40625 -4.25 Z M 3.40625 -4.25 "/></g></g></g></svg>